<svg version="1.1" xmlns="http://www.w3.org/2000/svg" xmlns:xlink="http://www.w3.org/1999/xlink" x="0px" y="0px" width="1804px"
	 height="677.6px" viewBox="0 0 1804 677.6" style="overflow:visible;enable-background:new 0 0 1804 677.6;" xml:space="preserve">
<style type="text/css">
	.st0{fill:#FFFFFF;}
	.st1{fill:#603813;}
	.st2{fill:#D18148;}
	.st3{opacity:0.18;}
	.st4{opacity:0.19;}
	.st5{fill:#99683F;}
	.st6{opacity:0.14;}
	.st7{fill:#773E0E;}
	.st8{fill:#A95C06;}
	.st9{fill:#8E4B07;}
	.st10{fill:#54351F;}
	.st11{fill:#683F23;}
	.st12{fill:#7A4F32;}
	.st13{fill:#EDBF8C;}
	.st14{fill:#E07B4F;}
	.st15{fill:#EF8354;}
	.st16{fill:#EFC9A3;}
	.st17{fill:#C69466;}
	.st18{fill:#FF9A6E;}
	.st19{fill:#F88951;}
	.st20{fill:#F1C68F;}
	.st21{fill:none;}
	.st22{fill:#EFB970;}
	.st23{fill:#CD953F;}
	.st24{fill:#E2A85A;}
	.st25{fill:#BA8238;}
	.st26{opacity:0.25;}
	.st27{fill:#828D40;}
	.st28{fill:#99A138;}
	.st29{fill:#C2E04E;}
	.st30{fill:#006837;}
	.st31{fill:#B22200;}
	.st32{fill:#7F1601;}
	.st33{fill:#EBD39C;}
	.st34{fill:#BC9F64;}
</style>
<defs>
</defs>
<path class="st0" d="M1803.2,364.7c0.5-5.5,0.8-10.7,0.8-15.5c0-32.9-47.9-51.9-72.3-61.9c-27.7-11.4-56.7-19.8-85.7-27.2
	c-15.3-3.9-30.8-8.4-46.3-11.4c-17.5-3.3-35.7-2.9-52.5-9.1c-13.9-5.2-25.9-14.5-37.6-23.6c-12.5-9.8-25-19.5-36.7-30.2
	c-13.6-12.4-26.3-26.1-41.2-37.1c-16-11.8-34.3-16.2-51.8-24.9c-12-6-24.5-11.3-36.9-16.3c-6.1-2.5-17.1-9-24.1-7.7
	c-3.4,0.7-47.3-8.1-105-18.3c-2.3-1.1-4.7-2.2-8.1-2.2c-0.2,0-0.3,0-0.5,0c-0.3,0-0.7,0-1.1,0c-0.4,0-0.9,0.1-1.3,0.2
	c-11.9-2.1-24.3-4.2-36.9-6.3c-1.8-1.4-3.7-2.8-5.6-4.2c-27.4-19.5-69.1-29-104.8-31.2c-41-2.5-63.9,2.6-71.8,4.9
	c-2.2,0.6-3.2,1.1-3.3,1.1l-2.1,0.8l2.2,0.6c0,0,24,6.1,32.3,8.2c-15.3-1.1-29.5-1.6-41.9-1.5c-23.8-10.9-55.1-22.8-93.7-33.8
	C793.1-5.7,716.5,0.8,715.8,0.9L714,1l22.3,18.9c-11.9-0.7-22.8-0.4-31.9,0.8c-15.4,2.1-33.9,8.4-52.1,16.1
	c-11,4.7-22,9.9-32.2,15.1c-10.1,1.4-20.4,2.7-29.3,5.2c-6.5,1.9-12.3,4.5-16.7,8.4c-1.3,1.1-2.4,2.3-3.4,3.7
	c-4.9,6.5-11.3,11.5-18.6,14.9c-2.7,1.3-5.6,2.3-8.4,3.3c-2.4,0.8-4.8,1.8-7.3,2.3c-10.4,2.1-21,3-31.5,4.3
	c-2.1,0.2-4.1,0.5-6.2,0.8c-4.9,0.6-9.8,1.4-14.6,2.6c-2.4,0.6-4.8,1.3-7.2,2.2c-1.2,0.4-2.3,0.9-3.5,1.4c-1,0.4-2.2,0.7-3.2,1
	c-6.7,2.3-13.3,4.6-20,7c-6.7,2.4-13.4,5-20.1,7.5c-4.4,1.7-8.7,3.3-13.1,5c-0.7,0.3-1.5,0.6-2.2,0.9c-3.4,1.4-95.5,36.9-104.2,42.8
	c-5.2,3.5-21,11.3-35.1,20.6c-1.9,1.3-3.8,2.6-5.6,3.9c-0.8,0.6-1.5,1.3-2.1,2.2c-2,3.1-4,6.5-5.7,9.9c-4,3.5-7.2,7.1-9.2,10.7
	c-6.5,11.8-6.7,20.2-0.6,27.4C101,267.2,6.1,304.2,0.3,345.2c-0.1,0.7-0.2,1.3-0.2,2c0,0.7-0.1,1.3-0.1,2c0,1.9,0,3.9,0.1,5.9
	c0,0,0,0.1,0,0.1c0.1,3,0.3,6.2,0.6,9.5c-0.2,0.8-0.4,1.7-0.5,2.5c-0.1,0.7-0.2,1.3-0.2,2c0,0.7-0.1,1.3-0.1,2c0,1.9,0,3.9,0.1,5.9
	c0,0,0,0.1,0,0.1c3.4,90.1,87.5,300.4,886.8,300.4h30.1c700.7,0,851.8-161.6,880.7-262.2c0.3-0.4,0.6-0.8,0.9-1.3
	c0.9-3.5,1.6-6.9,2.2-10.2c-0.1,0.1-0.2,0.3-0.3,0.4c2.6-12.4,3.5-23.6,3.5-33.2C1804,369,1803.7,366.8,1803.2,364.7z"/>
<g>
	<path class="st1" d="M887.1,666.3C80.3,666.3,12,446.2,12,359.9s391.6-156.4,874.8-156.4h30.5c483.1,0,874.8,70,874.8,156.4
		s-68.3,306.4-875.1,306.4H887.1z"/>
	<ellipse class="st2" cx="901.3" cy="381" rx="841" ry="133.7"/>
</g>
<g>
	<g class="st3">
		<path d="M61.8,467.2c282.3,154.5,831.3,199.2,839.5,197.6c0,0-548.2-50.7-633-81.7C91.8,518.6,61.8,467.2,61.8,467.2z"/>
	</g>
	<g class="st4">
		<path class="st0" d="M1691.7,494c0,0-199.1,184.2-738.4,159C953.3,652.9,1415.3,673.7,1691.7,494z"/>
	</g>
	<g>
		<path class="st5" d="M1733.3,437.5c-70.8,39.1-213.7,80.8-485.9,90.6C787.1,544.7,139,540,43.9,400.4c-15-22-24.6-34.1-31.7-44.5
			c-0.2,1.3-0.3,2.6-0.3,4c0,1.9,0,3.9,0.1,6c8,21,25.9,47.9,25.9,47.9C140.1,557,763.1,553.4,763.1,553.4s750,32.2,979.1-107
			c19.8-12,34.5-29,44.5-43.6c0.8-3.5,1.6-6.9,2.2-10.2C1769.1,416.8,1752.9,426.7,1733.3,437.5z"/>
	</g>
</g>
<path class="st6" d="M402.1,273.4c-110.9,24.9-179,59.6-179.7,99c-0.9,48.8,101.5,94.2,261,124.6c123.1,11.2,265.8,17.7,417.9,17.7
	c197.6,0,379.3-10.8,522.9-29c86.1-23.8,137.6-54.4,138.2-88.7c1.1-58.6-146.7-112.2-363.5-141.1c-92.5-5.6-192.8-8.6-297.6-8.6
	C714.3,247.3,541.7,257,402.1,273.4z"/>
<path class="st7" d="M821,494c0,0,38.6,5.9,59.4-49.5c21.8-58.1,3-375.5,3-375.5l-65.4,26.7l-4.5,172.2"/>
<path class="st8" d="M1518.6,351.8c-2.4,1-4.8,2.1-7.4,3.2c-68.3,31.2-281.6,47.1-345.5,48.3c-122.6,2.2-151.6,13.4-214,10.4
	c-26.5-1.3-44.7-6.8-56.9-12.8c2.4,43.4,9.5,80.2,27.4,87.2c4.6,1.8,165.5,24.7,337.7,11.7c172.2-13,246.7-68,246.7-68
	s17.6-8.8,20-30.1c2.5-21.3,2.6-18-1.4-35.8C1524.1,359.4,1521.6,354.9,1518.6,351.8z"/>
<path class="st8" d="M1496,285.6c3.5-3,7.9-6,13.1-8.6c17.6-8.8,22.1-18.8,13.3-36.4s-47-37.3-55.4-43.5
	c-8.4-6.2-97.8-45.2-101.2-46.7c-3.3-1.5-74.6-33-82.6-31.1c-8.1,1.9-260.7-43.9-358.1-33.7c0,0-25.8,105.3-28.9,168.7
	C1161.8,243.9,1388.6,270,1496,285.6z"/>
<path class="st9" d="M1165.7,403.3c63.8-1.2,277.1-17.1,345.5-48.3c2.5-1.2,5-2.2,7.4-3.2c-5.2-5.3-12.1-6.3-18.2-6.1
	c-9.8,0.4-16.4-46.6-16.4-46.6s3.8-6.6,12.1-13.5c-107.4-15.6-334.2-41.7-599.8-31.3c-0.1,2.9-0.2,5.7-0.3,8.4
	c-0.5,32.7-3.7,89.7-1,138.3c12.2,6,30.3,11.5,56.9,12.8C1014.2,416.7,1043.2,405.6,1165.7,403.3z"/>
<g>
	<path class="st8" d="M853,272.9c4-66.8,30.5-201.3,30.5-201.3c-96.9-13.9-370.8,37.8-378.8,35.5c-8-2.2-80.4,26.5-83.8,27.9
		c-3.4,1.4-94.3,36.9-102.9,42.8c-8.6,5.9-47.6,24.1-57,41.4c-9.5,17.2-5.3,27.4,11.9,36.8c5.1,2.8,9.3,6,12.7,9
		C369.9,255.4,571.6,240.5,853,272.9z"/>
	<path class="st8" d="M258.4,332.9c-2.2,2.8-4,6.5-5.3,11.5c-4.6,17.6-4.4,14.4-2.7,35.7c1.6,21.4,18.9,30.8,18.9,30.8
		s72.4,57.8,244,77.3c171.6,19.6,315.2,6.7,319.8,5.1c21.9-7.6,24.8-54.3,23.4-104.6C398.1,423.8,285.7,366.2,258.4,332.9z"/>
	<path class="st9" d="M852.5,283.3c0.1-3.2,0.2-6.7,0.4-10.4c-281.4-32.4-483-17.5-567.4-7.8c8.1,7.3,11.7,14.1,11.7,14.1
		s-8.5,46.7-18.2,46c-7-0.5-15,0.6-20.6,7.8c27.3,33.2,139.7,90.9,598,55.9C855.4,350.5,851.9,310.1,852.5,283.3z"/>
</g>
<g id="_x3C_Capa_x3E__copia">
	<path class="st10" d="M374.5,316.9c-4.3-1.2-9.5-1.5-16,5.8c-10,11.2-12.8,24.6-12.8,24.6s0.2,0.4,0.4,1.2
		C360.7,343.5,369.4,331.1,374.5,316.9z"/>
	<path class="st11" d="M397.9,361C397.9,361,397.9,361,397.9,361c0.3-4.6-4.8-11-4.8-11s-2.2-11.4-5.6-12.8
		c-3.3-1.5-1.5-18-6.7-18.5c-1.8-0.2-3.9-1.2-6.3-1.8c-5.1,14.2-13.9,26.7-28.3,31.6c1.1,3,3.9,10.7,4.5,11.1
		c0.2,0.2,2.2,1.5,4.7,3.1C369.3,356,383.7,357.8,397.9,361z"/>
	<path class="st12" d="M355.4,362.6c5,3.3,12.4,8,12.4,8s11.6-0.4,12.8-0.6c1.3-0.2,17-4.5,17.3-9
		C383.7,357.8,369.3,356,355.4,362.6z"/>
	<path class="st11" d="M603.6,379.3c0.1-5.2-1.2-9.8-2.5-13.1c-2.3-1.6-4.7-3.4-7.4-4.5c-15.5-5.6-24.4,7.5-36.7,15.2
		c0.1,0.3,0.2,0.5,0.3,0.7c2.4,2.5,9.1,3.5,9.1,3.5s7.7,4.9,10.6,4.1c0.5-0.1,1.1,0,1.8,0.4c6.9,0.2,13.7,1.5,20.6,2.7
		C601.7,386.7,603.5,384.2,603.6,379.3z"/>
	<path class="st12" d="M591.6,391.7c2-1.2,5.3-1.6,7.9-3.5c-6.9-1.2-13.7-2.5-20.6-2.7C582.5,387.2,588.5,393.5,591.6,391.7z"/>
	<path class="st10" d="M588.4,356.5c-0.7,0-17,2.1-17,2.1s-7.2,5.6-7.9,6.3c-0.7,0.6-7.3,8.9-6.5,12.1c12.3-7.7,21.1-20.8,36.7-15.2
		c2.8,1.1,5.1,2.8,7.4,4.5c-1.4-3.5-2.8-5.6-2.8-5.6S589.2,356.4,588.4,356.5z"/>
	<path class="st11" d="M411.7,370.4l9,9.6c1.3,1.4,3.1,2.1,4.9,2.1c2.8-0.1,6.8-0.1,7.7,0c1.5,0.3,18.5,5.8,19.9,6.1
		c0.3,0.1,1-0.3,2.1-0.9c3.9-2.3,4.3-7.8,0.8-10.7c-11.4-9.2-24.3-16.6-38-20.6c-4.2-1.2-8.4,2.1-8.2,6.4c0,1.3,0.1,2.7,0.2,4
		C410.1,368,410.7,369.4,411.7,370.4z"/>
	<g>
		<path class="st10" d="M835.2,367.8c0.5-2.7,0.8-6.2-0.8-6.4c-2.5-0.3-7.6,2.1-7.6,2.1s-7,0.7-8.8,2.5c-1.8,1.8-10.5,0-12.4,2.8
			c-0.8,1.2-2.3,2.5-3.5,4.1C813.2,375.9,825.7,374.1,835.2,367.8z"/>
		<path class="st12" d="M802.2,382.5c3.5,4.9,9.2,6.7,9.2,6.7s7.8-1.8,8.3-2.1c0.1-0.1,1-0.8,2.2-1.7
			C815.6,383.5,809.1,382.1,802.2,382.5z"/>
		<path class="st11" d="M834.4,371.2c0.1-0.3,0.5-1.7,0.8-3.4c-9.5,6.3-22,8.1-33,5.1c-1.7,2.1-2.8,4.8-0.9,8.2
			c0.3,0.5,0.6,0.9,0.9,1.3c6.9-0.4,13.4,1,19.7,2.8c3.3-2.6,9-7.1,9-7.1S834.1,371.9,834.4,371.2z"/>
	</g>
	<path class="st10" d="M686,377c0.9-3.3-4.2-8.1-4.3-9.2c-0.1-1.3-10.6-9.5-13.8-11.1c-3.2-1.6-5.5-1.4-8.4,0.5
		c-2.9,2-5.2,2.6-7.5,2.7c-2.3,0.1-1.3,3.2-5.9,3.9c-1.7,0.3-3.4,0.8-4.8,1.4C654.1,373.7,670.7,379.3,686,377z"/>
	<path class="st12" d="M646.7,386.9c0.3,0.9,0.7,1.8,1.1,2.7l7.9,3.9c0,0,4.5-1.2,5.3-1.2c0.8,0,10,0.2,10.8,0.2
		c0.4,0,1.7-1.3,3-2.7C665.5,386.4,656.1,386.6,646.7,386.9z"/>
	<path class="st11" d="M641.3,365.3c-2.5,1-4.4,2.2-4.9,2.8c-0.7,0.9,2.9,9.6,6.1,11.6c2.4,1.5,3.2,4.4,4.1,7.2
		c9.4-0.2,18.7-0.5,28.1,2.9c1.4-1.5,2.7-3.2,2.7-3.9c-0.1-1.3,2.8-4.2,7.2-7.1c0.7-0.5,1.1-1,1.3-1.7
		C670.7,379.3,654.1,373.7,641.3,365.3z"/>
	<path class="st10" d="M723.8,385.8c0.5-0.8,1.1-1.5,1.8-2c0.9-1.1,2.8-2.3,3.7-3.4c-0.4-3.8-1.1-7.1-4.9-10.8
		c-2.9-3.3-4.8-6.3-6.5-9.3c-1.8,1-3.9,2-5.8,1.6c-2.3-0.5-4.2,3.7-5.4,6.9C711.7,375.9,717.2,381.3,723.8,385.8z"/>
	<path class="st12" d="M707.2,386.6c0.7,1.1,1.2,1.9,1.4,2c0.6,0.4,7.6,2.9,11.9,4.9c0.5-1.2,0.9-2.4,1.3-3.7
		C717.3,387.7,712.3,386.6,707.2,386.6z"/>
	<path class="st11" d="M721.9,389.9c0.5-1.4,1.1-2.8,1.9-4c-6.6-4.5-12.1-10-17-17.1c-0.7,1.9-1.1,3.4-1.1,3.4l-2.7,7.6
		c0,0,2.5,4.3,4.2,6.9C712.3,386.6,717.3,387.7,721.9,389.9z"/>
	<g>
		<g>
			<path class="st12" d="M505.1,370.3c3.5,3.3,8.7,5.7,17.3,6.3c23.8,1.5,43.1-8.9,43.1-8.9s6.9-11.9,9.5-17
				C554.8,365,530.5,371.9,505.1,370.3z"/>
			<path class="st11" d="M572.9,314.2c0,0-11.9-14.9-13.4-16.3c-1.5-1.5-22.3-17.8-28.2-13.4s-8.9,17.8-8.9,17.8
				s-11.9,14.9-10.4,20.8s-20.8,20.8-16.3,28.2c2.9,4.8,3.3,13.2,9.5,19c25.4,1.5,49.7-5.3,69.8-19.7c0.6-1.2,0.9-2,0.9-2.3
				C575.9,346.9,572.9,314.2,572.9,314.2z"/>
			<path class="st10" d="M513.5,352.8c0,0-5.3,7.5-10.4,15.2c0.6,0.8,1.3,1.6,2.1,2.3c1,0.1,2.1,0.1,3.1,0.1
				C517.9,357.9,514.7,352.8,513.5,352.8z"/>
		</g>
		<g>
			<path class="st10" d="M575.1,303.8c-6.6,11.6-8.9,21.4-8.9,21.4s6.6,19.6,7.7,20.5c0.2,0.2,1.3,1,2.9,2.2
				C573.1,334.4,576.8,318.3,575.1,303.8z"/>
			<path class="st11" d="M631.5,303.2c-1-8.5-1.8-18.9-7-19.8c-8.5-1.5-19.9-13.4-36.6,3.5c-5.4,5.5-9.6,11.4-12.8,16.9
				c1.7,14.5-2,30.6,1.8,44.1c4.8,3.6,14.5,10.6,20.2,14.7c9.3-1.5,23-4.2,32.3-6.9c-0.2-0.9-1.5-5.4-1.5-5.9
				C627.9,333.8,621.3,316.1,631.5,303.2z"/>
			<path class="st12" d="M650,346.9c-2.2-5.8-6.1-11.1-6.1-11.1s-3.4-18.7-8.8-21.5c-2.1-1.1-2.9-5.7-3.5-11.1
				c0.1,0.7-2.4,3.6-2.8,4.4c-0.8,1.6-1.5,3.3-2,5.1c-3,10.3-1.6,22.4-0.5,32.9c0.3,2.8,0.7,5.5,1.8,8.1c0.4,1,0.9,1.4,1.6,1.6
				c-10.6,3.4-21.7,5.7-32.4,7.4c2.7,2,4.6,3.3,4.6,3.3s19,0.8,21.1,0.7c2.1-0.1,28.1-5.1,28.6-12.5
				C651.6,352,650.9,349.4,650,346.9z"/>
		</g>
		<g>
			<path class="st10" d="M775.3,328.1c0,1.3-1.7,16.8-1.7,18.1c0,1.3,10,10.3,12.7,10.3c0.7,0,1.6,0.3,2.5,1
				c-4.4-13.3-9.8-26-13.6-30.7C775.2,327.4,775.3,327.9,775.3,328.1z"/>
			<path class="st11" d="M845.4,343.5c2.2-11.5-5.4-21-8.1-32c-1.2-1.1-2.3-2.7-2.6-5.6c-0.2-1.7-0.6-3.3-1-4.9
				c-1.7-5.9-4.8-10.9-6.2-11.9c-1.8-1.3-19.8,4-24.3,9.2c-4.5,5.2-13.5,5.2-20.7,7.8l-9,13c0,0,0.1,0.5,0.3,1.2
				c0.4,1.7,1.1,4.8,1.4,6.6c3.8,4.7,9.2,17.4,13.6,30.7c2.9,1.8,7,6.2,11,11.9c5.4,7.8,19.8-4,22.5-4c1.4,0,7.2-4.8,12.9-10.1
				c0-0.5,0.1-1,0.2-1.6C836.6,347.4,844.2,346.1,845.4,343.5z"/>
			<path class="st12" d="M846.6,343.4c3.6-5.2,3.6-9.1-0.1-14.2c-3.6-5.2-4.5-9.1-4.6-12.9c0-2.4-2.5-2.8-4.6-4.7
				c2.7,11,10.3,20.5,8.1,32c-1.3,2.6-8.8,3.9-10.1,10.4c-0.1,0.5-0.2,1-0.2,1.6C840.1,350.8,844.9,345.8,846.6,343.4z"/>
			<path class="st10" d="M835.2,308c-1.7-5.9-4.8-10.9-6.2-11.9c-1.8-1.3-19.8,4-24.3,9.2c-4.5,5.2-13.5,5.2-20.7,7.8l-5.7,5.7
				l-3.3,4.7c0,0,0.1,0.5,0.3,1.2c0.2,0.7,0.3,1.5,0.6,2.4c23.1-6.4,53.6-11,58.6-16.9C834.6,309.9,834.9,309.1,835.2,308z"/>
		</g>
		<g>
			<path class="st12" d="M688.8,372c7.3-0.5,10.7-3.3,12.6-10.4c0.6-2.2,1.3-4.1,2.1-5.7c-17.4,4.7-35.2,7.9-51.2,10.7
				C658.1,369.1,682.1,372.4,688.8,372z"/>
			<path class="st12" d="M630.8,348.3c-1.7,6.4,5.3,10.6,11.6,13.5c-4.9-7.4-6.7-17.1-9.2-25.8C632.8,339.5,632,343.7,630.8,348.3z"
				/>
			<path class="st11" d="M722.6,315.2c-0.2-2.6-18.3-15.2-26.2-15.5c-8-0.3-14.7-8.5-22.4-13.2l-18.2,1.2c0,0-5.5,7.3-6.7,8.2
				c-1.1,0.9-16.2,10.6-17.4,11.6c-1.1,0.9-1.7,16.6,0.3,19c1.1,1.4,1.5,4.8,1,9.4c2.5,8.6,4.4,18.4,9.2,25.8
				c4.1,1.9,7.9,3.2,8.7,4.2c0.2,0.2,0.6,0.5,1.2,0.7c15.9-2.9,33.7-6.1,51.2-10.7c1.6-3.5,3.7-5.8,6-7.8c3.4-2.8-2.4-7.6,3.7-14.1
				C719.3,327.5,722.8,317.8,722.6,315.2z"/>
			<path class="st10" d="M672.4,309.7l-35.7,7.4l-3.6,12.6c0.2,1.6,0.2,3.7,0,6.1c0.2,0.8,0.4-0.3,0.7,0.5c4.8,0.3,7.4,0,31.2-10.4
				c0,0,34-6.3,38.2,29.8c0.1,0,1.8-3.1,1.9-3.1c1.6-3.5,1.9-2.8,4.3-4.7c3.4-2.8-2.4-7.6,3.7-14.1c0.8-0.8,1.5-1.7,2.2-2.6
				c0.1-0.5,0.1-0.8,0.1-0.8L672.4,309.7z"/>
		</g>
		<g>
			<path class="st11" d="M789.5,372.3c0-0.1,0-0.2,0-0.2c0.6-7.4-7.6-18.4-7.6-18.4s-2.8-15.6-7.5-20.5
				C779.4,345.9,780.3,364,789.5,372.3z"/>
			<path class="st11" d="M774.5,333.1c-0.4-0.5-0.9-0.8-1.4-1.1c-5.5-2.8-2-29.4-10.5-30.9c-8.5-1.5-19.9-13.4-36.6,3.5
				c-16.8,16.9-21.6,38.3-21.6,38.3s6.6,19.6,7.7,20.5c1.1,1,27.7,20.2,27.7,20.2s19,0.8,21.1,0.7c2.1-0.1,27.5-5,28.6-12.2
				C780.3,364,779.4,345.9,774.5,333.1z"/>
			<path class="st12" d="M746.7,340.9c-1.3-7.6,18.1-13.1,23.7-14.5c0-0.2-0.1-0.5-0.1-0.7c-16.7,4.9-29,10.7-26.7,18.4
				c3.9,13.1,3.4,29.9,0.6,39.9c1.2,0,2.6,0.1,4.1,0.2C752.2,364.8,747.8,347.5,746.7,340.9z"/>
		</g>
		<g>
			<path class="st12" d="M391.6,324.6c-2.2-4.5-7.8-7.3-13.6-7.7l2.1,3l13.2,27c0,0,13.7,6.8,15.8,7.2c2.1,0.4,14.8-4.7,20.6-1.5
				c1.7,0.9,4.2,0.1,6.9-1.5C419.9,349.3,402.1,337.4,391.6,324.6z"/>
			<path class="st11" d="M398.8,268.8c-6.1-1.2-16.5-3.3-17.1-4.2c-0.8-1.2-24-3.4-24-3.4l-8.1,9.2l-11,7.6l10,9.3l15.4,9.3
				l13.9,20.3c5.8,0.5,11.4,3.3,13.6,7.7c10.5,12.8,28.3,24.7,44.8,26.4c4.2-2.6,8.9-7.3,11.6-10.2
				C417.6,330.6,394.6,304.8,398.8,268.8z"/>
			<path class="st10" d="M462.2,326.5c0,0-1.1-17.3-1.9-18.5c-0.8-1.2-16.7-13.8-20-18.7c-3.4-4.9-37-19.7-37-19.7s-1.8-0.3-4.4-0.9
				c-4.2,36,18.8,61.8,49.3,72c1.4-1.5,2.3-2.6,2.3-2.6L462.2,326.5z"/>
		</g>
		<g>
			<path class="st12" d="M292.1,293.4c-0.6-2.5-2.5-4.2-5.1-5.2l-3.8,5.3c0,0,2.1,8.9,2.1,10.4c0,1.5-2.1,19.3-2.1,20.8
				c0,1.5,11.7,11.9,14.9,11.9c3.2,0,9.6,5.9,15.9,14.8c4.5,6.3,14.3,1.4,20.8-1.9C310.5,345.8,295.7,319.1,292.1,293.4z"/>
			<path class="st11" d="M339.6,293.4c-7.4-3-8.9-14.9-16.3-22.3c-1.4-1-3-1.5-4.7-1.7c-0.1,0.1-0.3,0.3-0.4,0.4
				c-5.3,5.9-15.9,5.9-24.4,8.9l-6.8,9.5c2.6,1,4.5,2.7,5.1,5.2c3.7,25.7,18.5,52.4,42.7,56c2.7-1.4,4.8-2.5,5.7-2.5
				c3.2,0,24.4-19.3,28.7-25.2c1.8-2.5,2.8-4.7,3.1-6.9C364.7,303.4,353.9,297.3,339.6,293.4z"/>
			<path class="st10" d="M339.6,293.4c14.3,3.9,25.1,10,32.6,21.4c0.4-3-0.6-6-3.1-9.4c-4.2-5.9-5.3-10.4-5.3-14.8
				c0-4.4-7.4-3-8.5-11.9c-1.1-8.9-6.4-17.8-8.5-19.3c-2.1-1.4-22.4,4.2-28.3,10c1.7,0.2,3.3,0.7,4.7,1.7
				C330.7,278.5,332.2,290.4,339.6,293.4z"/>
		</g>
	</g>
	<g>
		<g>
			<path class="st13" d="M1286.1,339.4c-1.3-2.6-7.2-1.8-12.7-1.5c4.3,4.9,14,14.9,27.8,23.9c0.8-2,1.6-4.1,2.3-6.2
				C1297.5,351.2,1291.6,345.9,1286.1,339.4z"/>
		</g>
		<g>
			<path class="st13" d="M1294.9,302.7l-24.1,32.1c0,0,0.9,1.1,2.6,3.1c5.5-0.2,11.4-1.1,12.7,1.5c5.6,6.4,11.4,11.8,17.4,16.2
				c6-16.6,10.4-34,14.9-51C1305,304,1294.9,302.7,1294.9,302.7z"/>
		</g>
		<g>
			<path class="st14" d="M1301.2,361.8c1.7,1.1,3.4,2.2,5.2,3.2c1.8-1.4,3.4-2.8,4.9-4.2c-2.6-1.6-5.3-3.3-7.8-5.2
				C1302.7,357.7,1302,359.8,1301.2,361.8z"/>
		</g>
		<g>
			<path class="st14" d="M1331.7,324.4c-1.4-6.7-3.2-13.2-5.4-19.4c-2.7-0.1-5.4-0.2-8-0.3c-4.6,16.9-9,34.4-14.9,51
				c2.6,1.9,5.2,3.6,7.8,5.2C1325.3,347.9,1330.4,334.9,1331.7,324.4z"/>
		</g>
		<g>
			<path class="st15" d="M1306.4,365.1c8.2,4.8,17.7,9.1,28.2,11.9c0.3-2.1,0.5-4.2,0.6-6.4c-8.2-2-16.2-5.1-24-9.7
				C1309.8,362.3,1308.2,363.7,1306.4,365.1z"/>
		</g>
		<g>
			<path class="st15" d="M1331.7,324.4c-1.3,10.5-6.4,23.6-20.4,36.5c7.7,4.6,15.7,7.7,24,9.7C1336.4,355.2,1335,339.4,1331.7,324.4
				z"/>
		</g>
		<g>
			<path class="st13" d="M1409.7,364.2c-3.9-13.2-9.7-26-15.8-37c-5.9-9.8-13.4-19.1-21.6-28.1c-0.6,0.2-1.2,0.4-1.8,0.7
				c-10.2,4.3-26,5.4-40.4,5.2c1.1,3.6,2.6,10.6,1.6,19.3c3.2,15,4.6,30.9,3.5,46.2C1359.1,376.3,1384.6,372.3,1409.7,364.2z"/>
		</g>
		<g>
			<path class="st16" d="M1335.3,370.6c-0.2,2.1-0.4,4.3-0.6,6.4c12.2,3.1,25.7,4.2,40.4,1.5c13.3-2.4,25.3-5.9,35.9-9.9
				c-0.4-1.5-0.8-2.9-1.3-4.4C1384.6,372.3,1359.1,376.3,1335.3,370.6z"/>
		</g>
		<g>
			<path class="st17" d="M1330.2,305.1c-1.3,0-2.5,0-3.8-0.1c2.1,6.2,3.9,12.7,5.4,19.4C1332.8,315.6,1331.3,308.7,1330.2,305.1z"/>
		</g>
		<g>
			<path class="st18" d="M1409.7,364.2c0.4,1.5,0.9,2.9,1.3,4.4c16.4-6.2,29.4-13.5,39.1-20.2c0,0,0,0,0-0.1
				C1436.9,354.2,1423.4,359.8,1409.7,364.2z"/>
		</g>
		<g>
			<path class="st19" d="M1397.4,292.6c-8.9,1.5-17.4,3.6-25,6.6c8.2,9,15.7,18.2,21.6,28.1c6,11,11.8,23.8,15.8,37
				c13.7-4.4,27.2-10,40.3-15.8C1436.1,326.7,1418.5,307.6,1397.4,292.6z"/>
		</g>
		<g>
			<g>
				<path class="st13" d="M1458.2,342.3c-9.9-6.2-26.9-25.8-29.5-31.1c-2.3-4.7-10.2-14.9-15.6-20.5c-5.3,0.4-10.5,1-15.7,1.8
					c21.1,15,38.7,34.2,52.6,55.8c0.1-0.1,0.3-0.1,0.4-0.2C1453.3,346.1,1456,344.2,1458.2,342.3z"/>
			</g>
			<g>
				<path class="st13" d="M1450.4,348.2c-0.1,0.1-0.3,0.1-0.4,0.2c0,0,0,0,0,0.1C1450.2,348.3,1450.3,348.2,1450.4,348.2z"/>
			</g>
			<g>
				<path class="st17" d="M1458.2,342.3c7.7-6.2,11.7-11,11.7-12c-0.1-3,7.5-37.5-17.8-39.5c-12-1-25.5-1.1-39-0.1
					c5.4,5.6,13.3,15.8,15.6,20.5C1431.4,316.5,1448.3,336.1,1458.2,342.3z"/>
			</g>
		</g>
	</g>
	<g>
		<g>
			<path class="st16" d="M1166.9,402.9c6.8,0,14.5,0.2,22.4,0.3c-3.3-4.1-6.3-8.4-9-13c-13.4,0.1-26.7,0-40.2,0.4
				C1146.7,398,1154.9,402.9,1166.9,402.9z"/>
		</g>
		<g>
			<path class="st20" d="M1130.5,376.9c2.9,5.1,6,9.7,9.6,13.7c13.5-0.4,26.9-0.3,40.2-0.4c-3.5-6-6.5-12.3-9-18.9
				C1152.9,377.2,1137.2,377.2,1130.5,376.9z"/>
		</g>
		<g>
			<path class="st17" d="M1116.1,351.2c5.3,8.5,9.7,17.6,14.4,25.7c6.7,0.4,22.4,0.3,40.8-5.6c-4.9-12.8-8-26.5-9.7-39.9
				c-24.5,0.5-51.8,3.9-46.9,15C1116.8,351,1116.1,351.2,1116.1,351.2z"/>
		</g>
		<g>
			<path class="st14" d="M1192.2,362.2c-3.3-10.4-6.4-20.8-9.4-31c-7,0-14.2,0-21.2,0.2c1.8,13.4,4.9,27.1,9.7,39.9
				C1178,369.1,1185.1,366.2,1192.2,362.2z"/>
		</g>
		<g>
			<path class="st18" d="M1189.3,403.2c6.2,0.1,12.6,0.1,18.9-0.1c-2.1-4.4-4.1-8.8-6-13.4c-7.3,0.3-14.6,0.4-21.9,0.5
				C1183,394.7,1186,399.1,1189.3,403.2z"/>
		</g>
		<g>
			<path class="st19" d="M1171.3,371.3c2.5,6.6,5.5,12.9,9,18.9c7.3-0.1,14.6-0.2,21.9-0.5c-3.7-9-7-18.2-10-27.6
				C1185.1,366.2,1178,369.1,1171.3,371.3z"/>
		</g>
		<g>
			<path class="st20" d="M1215,329.8c-0.5,10.3-5.2,21.7-19.6,30.5c-1.1,0.7-2.2,1.3-3.3,1.9c3,9.3,6.3,18.6,10,27.6
				c14-0.5,28.1-1.7,42.3-4.2c0.3-0.1,0.5-0.2,0.8-0.2c-6.5-20.2-16.5-38-22.1-57.2C1220.8,328.8,1218.1,329.3,1215,329.8z"/>
		</g>
		<g>
			<path class="st16" d="M1202.2,389.7c1.9,4.5,3.9,9,6,13.4c14.6-0.4,28.7-1.9,38.8-6.2c0-3-0.2-6.1-1-9.1
				c-0.3-0.9-0.5-1.7-0.8-2.5c-0.3,0.1-0.5,0.2-0.8,0.2C1230.3,388,1216.2,389.2,1202.2,389.7z"/>
		</g>
		<g>
			<path class="st17" d="M1195.4,360.2c14.4-8.8,19-20.2,19.6-30.5c-8.7,1.2-20.1,1.4-32.2,1.4c3,10.2,6,20.6,9.4,31
				C1193.3,361.5,1194.4,360.9,1195.4,360.2z"/>
		</g>
		<g>
			<path class="st18" d="M1246.1,387.8c0.7,3,0.9,6.1,1,9.1c3.4-1.5,6.4-3.3,8.8-5.5c2.3-2.1,5.2-4.4,8.6-6.7c-1-2.8-2-5.7-3-8.5
				c-5.3,3.8-10.5,7.2-16.2,9C1245.5,386.1,1245.8,386.9,1246.1,387.8z"/>
		</g>
		<g>
			<path class="st19" d="M1227.8,325.9c-1.2,0.8-2.8,1.5-4.6,2.1c5.6,19.2,15.6,37,22.1,57.2c5.7-1.8,10.9-5.3,16.2-9
				c-7-19.6-15.1-38.7-27.6-54.3C1231.6,323.4,1229.5,324.7,1227.8,325.9z"/>
		</g>
		<g>
			<path class="st20" d="M1299,352.4c-10-16.6-22.1-32.2-34.8-46.9c-11.4,5.7-22.3,11.5-30.4,16.4c12.4,15.5,20.6,34.7,27.6,54.3
				c4.1-2.9,8.3-6,12.8-8.6C1282.6,362.3,1290.7,357.1,1299,352.4z"/>
		</g>
		<g>
			<path class="st16" d="M1274.2,367.7c-4.5,2.5-8.6,5.6-12.8,8.6c1,2.8,2,5.7,3,8.5c10.9-7.4,26.2-15.8,38.8-25.1
				c-1.4-2.4-2.8-4.8-4.2-7.2C1290.7,357.1,1282.6,362.3,1274.2,367.7z"/>
		</g>
		<g>
			<path class="st19" d="M1322.5,339.6c-12.2-15.4-27.4-29.1-43.4-41.3c-4.9,2.3-9.9,4.8-14.9,7.2c12.6,14.7,24.7,30.3,34.8,46.9
				c7.3-4.2,14.8-8,22.7-11.4C1322,340.6,1322.3,340.1,1322.5,339.6z"/>
		</g>
		<g>
			<path class="st18" d="M1299,352.4c1.4,2.4,2.8,4.8,4.2,7.2c7.8-5.8,14.5-12,18.5-18.6C1313.8,344.4,1306.4,348.3,1299,352.4z"/>
		</g>
		<g>
			<path class="st20" d="M1322.5,339.6c1.2-2.2,2-4.4,2.5-6.7c4.8-24.3,3.5-56.1-14.2-48.8c-7.1,2.9-18.9,8.1-31.6,14.2
				C1295.1,310.5,1310.3,324.2,1322.5,339.6z"/>
		</g>
		<g>
			<path class="st17" d="M1310.8,284.1c-7.1,2.9-18.9,8.1-31.6,14.2c9.3,7.1,18.3,14.7,26.7,22.9c8.1-5.1,15.7-10.8,21.5-15.9
				C1326.6,290.5,1321.9,279.5,1310.8,284.1z"/>
		</g>
		<g>
			<path class="st14" d="M1305.8,321.2c-8.4-8.2-17.4-15.8-26.7-22.9c-4.9,2.3-9.9,4.8-14.9,7.2c7.4,8.5,14.5,17.4,21.2,26.6
				C1292.1,329.4,1299.1,325.5,1305.8,321.2z"/>
		</g>
		<g>
			<path class="st17" d="M1285.5,332.1c-6.7-9.2-13.8-18-21.2-26.6c-10.4,5.2-20.4,10.5-28.2,15.1c4.9,4.7,18.1,15.8,32.2,15.8
				C1273.1,336.5,1279.1,334.8,1285.5,332.1z"/>
		</g>
	</g>
	<g>
		<g>
			<path class="st16" d="M924,400.8c-2.1-6.5-3.5-13.1-4.4-19.9c-12.9-8.2-23.8-19-35.4-29.3C890.7,375.2,906,393.2,924,400.8z"/>
		</g>
		<g>
			<path class="st20" d="M935,305c-18.1-6.2-34.7-11.7-39.3-6.8c-13.7,14.5-13.7,14.5-13.7,14.5c-2,13.9-1,27.1,2.3,39
				c11.6,10.2,22.5,21.1,35.4,29.3C916.5,355.3,922.1,328.4,935,305z"/>
		</g>
		<g>
			<path class="st18" d="M924,400.8c3.7,1.6,7.5,2.6,11.3,3c1.7,0.2,3.6,0.3,5.5,0.4c-0.4-4.5-0.7-9-0.8-13.5
				c-7.5-2.4-14.2-5.8-20.5-9.7C920.5,387.7,921.9,394.4,924,400.8z"/>
		</g>
		<g>
			<path class="st19" d="M959.8,314c-8.4-3.2-16.9-6.4-24.8-9.1c-12.9,23.4-18.6,50.3-15.4,76c6.2,4,13,7.3,20.5,9.7
				C939.5,363.9,944.9,337.2,959.8,314z"/>
		</g>
		<g>
			<path class="st16" d="M948.8,392.9c-3-0.6-5.9-1.4-8.7-2.3c0.1,4.5,0.4,9,0.8,13.5c15.6,0.8,38.5-0.4,61-3.2
				c0-2.3,0.1-4.6,0.2-6.9C984.8,396.3,967.2,396.7,948.8,392.9z"/>
		</g>
		<g>
			<path class="st20" d="M959.8,314c-14.9,23.2-20.3,49.9-19.7,76.6c2.8,0.9,5.7,1.7,8.7,2.3c18.4,3.8,36,3.3,53.3,1.1
				c0.6-21.2,2.9-42.7,3.7-62.8C993.2,327.1,976.5,320.4,959.8,314z"/>
		</g>
		<g>
			<path class="st17" d="M1103.9,313.6c-27-4.5-55.7,24-83,21.4c-0.1,2.2-0.2,4.5-0.4,6.8c17.4,16.2,41.6,23.6,65.8,29
				C1107.8,349.8,1126,317.3,1103.9,313.6z"/>
		</g>
		<g>
			<path class="st16" d="M1020.5,398.2c19.8-3.4,37.6-8,47.9-13.6c2.2-1.2,4.5-2.7,6.8-4.4c-18.6,2.8-36.9,7.5-55.6,11
				C1019.8,393.6,1020.1,395.9,1020.5,398.2z"/>
		</g>
		<g>
			<path class="st20" d="M1020.5,341.7c-1,16.4-2.4,33.4-0.9,49.5c18.6-3.5,37-8.2,55.6-11c3.7-2.7,7.5-6,11.2-9.6
				C1062.2,365.3,1037.9,358,1020.5,341.7z"/>
		</g>
		<g>
			<path class="st14" d="M1020.5,341.7c0.1-2.3,0.3-4.5,0.4-6.8c-1.4-0.1-2.9-0.3-4.3-0.7c-1.2-0.3-2.4-0.6-3.8-1
				C1015.2,336.4,1017.8,339.2,1020.5,341.7z"/>
		</g>
		<g>
			<path class="st19" d="M1020.5,341.7c-2.7-2.6-5.3-5.4-7.7-8.4c-2.2-0.6-4.5-1.3-7.1-2.1c-0.8,20.2-3.1,41.6-3.7,62.8
				c5.9-0.8,11.7-1.7,17.6-2.8C1018.1,375.2,1019.6,358.1,1020.5,341.7z"/>
		</g>
		<g>
			<path class="st18" d="M1001.9,401c6.3-0.8,12.5-1.7,18.6-2.7c-0.4-2.3-0.6-4.6-0.9-7c-5.8,1.1-11.7,2.1-17.6,2.8
				C1002,396.4,1001.9,398.7,1001.9,401z"/>
		</g>
	</g>
	<g>
		<g>
			<path class="st16" d="M989.8,303.9c7.2,11.3,31.7,39.2,52.6,48.7c0.8-8.3,2.2-16.6,3.9-24.9c-20.8-8.4-40.5-19.6-58.3-33.5
				C987.4,297.4,987.7,300.7,989.8,303.9z"/>
		</g>
		<g>
			<path class="st13" d="M1036.3,276.1c-19-3-32-5.1-32-5.1c-4.8,5.4-14.6,14.1-16.3,23.1c17.8,13.9,37.5,25.1,58.3,33.5
				c2.4-11.7,5.6-23.2,9.2-34.4C1044.7,286.8,1038.8,279.6,1036.3,276.1z"/>
		</g>
		<g>
			<path class="st18" d="M1042.4,352.5c1.5,0.7,2.9,1.3,4.3,1.7c9.4,3.2,22.9,8,37.4,12.2c0.2-8.7,0.9-17.5,1.9-26.2
				c-13.6-3.2-26.9-7.4-39.7-12.6C1044.6,335.9,1043.2,344.2,1042.4,352.5z"/>
		</g>
		<g>
			<path class="st19" d="M1055.5,293.3c-3.6,11.2-6.8,22.7-9.2,34.4c12.9,5.2,26.2,9.4,39.7,12.6c1.3-11.9,3.1-23.7,5.2-35.2
				C1075.8,303.2,1064.1,298.5,1055.5,293.3z"/>
		</g>
		<g>
			<path class="st13" d="M1163.6,347.6c1.7-17.7,1.9-35.7,1.6-53.3c-8.2-0.8-18.8-2.1-30.5-3.7c-6.6,8.5-19,16.9-41.8,14.6
				c-0.6-0.1-1.2-0.1-1.7-0.2c-2.1,11.5-3.9,23.3-5.2,35.2C1111.2,346.1,1137.5,348.6,1163.6,347.6z"/>
		</g>
		<g>
			<path class="st16" d="M1086,340.2c-0.9,8.7-1.6,17.5-1.9,26.2c18.8,5.5,39.3,9.9,55,8.4c6.6-0.6,13.8-2,21.2-4
				c1.5-7.6,2.5-15.4,3.3-23.2C1137.5,348.6,1111.2,346.1,1086,340.2z"/>
		</g>
		<g>
			<path class="st13" d="M1211.5,338.1c3.8-16.9,0.2-37.6-39.1-42.9c0.9,16.8,3.5,34.5,4.6,51.7c11-0.9,22-2.3,32.8-4.4
				C1210.5,341,1211.2,339.6,1211.5,338.1z"/>
		</g>
		<g>
			<path class="st16" d="M1176.9,346.9c0.4,6.1,0.6,12.2,0.5,18.2c14.7-6,27.5-14,32.3-22.6C1198.9,344.5,1187.9,346,1176.9,346.9z"
				/>
		</g>
		<g>
			<path class="st19" d="M1172.3,295.2c-1.6-0.2-3.2-0.4-4.9-0.6c-0.7-0.1-1.5-0.1-2.2-0.2c0.2,17.6,0.1,35.6-1.6,53.3
				c4.5-0.2,8.9-0.4,13.4-0.8C1175.8,329.6,1173.2,312,1172.3,295.2z"/>
		</g>
		<g>
			<path class="st18" d="M1163.6,347.6c-0.8,7.8-1.8,15.6-3.3,23.2c5.8-1.6,11.6-3.5,17.1-5.8c0.1-6-0.1-12.1-0.5-18.2
				C1172.5,347.2,1168,347.5,1163.6,347.6z"/>
		</g>
		<g>
			<path class="st21" d="M1060.1,279.8c11.1,1.7,23,3.5,34.9,5.3c13.7,2,27.4,4,39.7,5.6c5.9-7.6,7.2-15.1,7.2-15.1l-107-1.5
				c0,0,0.4,0.8,1.3,2.1C1043.5,277.3,1051.5,278.5,1060.1,279.8z"/>
		</g>
		<g>
			<path class="st17" d="M1055.5,293.3c1.5-4.6,3-9.1,4.6-13.5c-8.5-1.3-16.6-2.6-23.7-3.7C1038.8,279.6,1044.7,286.8,1055.5,293.3z
				"/>
		</g>
		<g>
			<path class="st14" d="M1095,285.1c-11.9-1.8-23.8-3.6-34.9-5.3c-1.6,4.4-3.1,8.9-4.6,13.5c8.6,5.2,20.3,9.9,35.7,11.7
				C1092.4,298.3,1093.7,291.6,1095,285.1z"/>
		</g>
		<g>
			<path class="st17" d="M1134.7,290.7c-12.4-1.6-26-3.6-39.7-5.6c-1.3,6.5-2.6,13.2-3.8,20c0.6,0.1,1.2,0.2,1.7,0.2
				C1115.7,307.6,1128.1,299.2,1134.7,290.7z"/>
		</g>
		<g>
			<path class="st17" d="M880.5,305.3c4.4,8.5,1.4,10.4,1.5,10.4c1.9,2.2,2.6,6.2,3.5,8.8c2.1,6.1,4.2,12.3,6.3,18.4
				c4.7,13.6,9.2,27.5,15.6,40.5c1.5,2.9,2.6,7.4,5.8,8.9c1,0.5,2.2,0.6,3.4,0.7c4.2,0.3,9,1,13.2-0.1c3.8-1,7.1-3.9,9.6-6.8
				c4.9-5.7,8-12.8,10.7-19.8c2.3-5.7,4.3-11.6,6.9-17.2c1.4-2.9,3.6-7.8,7.4-8.1c0.3,0,0.5,0,0.8,0c3.4,0.4,11.9-20.8,7.4-23.8
				c-3.6-2.4,1.7-7.2,3-11.9C956.6,299.4,920.9,287.7,880.5,305.3z"/>
		</g>
	</g>
	<g>
		<path class="st10" d="M804.7,329.7c2.4-7.7,15.2-8,19.1-4s0.5,11.3-1.3,9.4C818.6,331,803.4,333.7,804.7,329.7z"/>
		<path class="st10" d="M761.7,341.4c4.5-2.4,11.4,3.5,11.7,7.2s-3.2,4.9-4.6,3.7S759.4,342.7,761.7,341.4z"/>
		<path class="st12" d="M801.7,351.3c0,4.5,4.5,5.9,5.9,5.9c1.5,0,5.9-4.5,3-4.5S801.7,351.3,801.7,351.3z"/>
		<path class="st12" d="M755.6,369.2c3,3,7.4,4.5,8.9,4.5c1.5,0,3-4.5,0-4.5s-7.4-8.9-8.9-5.9C754.2,366.2,755.6,369.2,755.6,369.2z
			"/>
		<path class="st12" d="M671,333.5c-3,0,8.9-1.5,10.4,0c1.5,1.5,0,4.5-3,4.5S672.4,333.5,671,333.5z"/>
		<path class="st10" d="M650.2,351.3c-3.3,0,3.6,8,7,7.7c3.4-0.3,0.4-6.2,0.4-6.2S651.6,351.3,650.2,351.3z"/>
		<path class="st10" d="M647.2,375.1c1.5,3,3,5.9,4.5,4.5C653.1,378.1,647.2,375.1,647.2,375.1z"/>
		<path class="st10" d="M578.8,375.1c1.5,1.5,3-4.5,1.5-4.5C578.8,370.6,577.4,373.6,578.8,375.1z"/>
		<path class="st12" d="M595.2,373.6c0,0,3,1.5,1.5,3C595.2,378.1,595.2,373.6,595.2,373.6z"/>
		<path class="st12" d="M581.8,338c-1.5,1.5-3,4.5-1.5,4.5C581.8,342.4,581.8,338,581.8,338z"/>
		<path class="st10" d="M613,348.4c-3,3-3,5.9-1.5,4.5C613,351.3,613,348.4,613,348.4z"/>
		<path class="st12" d="M559.5,338c-1.5,0,3,3,1.5,3c-1.5,0-5.9-1.5-4.5-3C558,336.5,559.5,338,559.5,338z"/>
		<path class="st10" d="M526.8,352.8c0,3-4.5,3-1.5,4.5S526.8,352.8,526.8,352.8z"/>
		<path class="st10" d="M305.4,287.4c0,5.9-7.4,4.5,0,5.9s11.9-5.9,8.9-7.4S305.4,287.4,305.4,287.4z"/>
		<path class="st12" d="M326.2,332c5.9,1.5,8.9,5.9,8.9,5.9s-17.8,0-16.3-3S326.2,332,326.2,332z"/>
		<path class="st10" d="M375.3,330.5c-5.3-5.3-4.5,8.9-3,8.9S379.7,335,375.3,330.5z"/>
		<path class="st12" d="M366.4,271.1c0,3,3,10.4,4.5,10.4S366.4,271.1,366.4,271.1z"/>
	</g>
</g>
<g>
	<path class="st22" d="M913.8,391.6c1.4-0.2,2.7-0.4,4.1,0c0.5,0.1,1,0.2,1.5,0.3c29.5,4.5,31.4-53.9,44.2-52.4
		c12.9,1.5,25.5-140.5,64.8-77.9c33.3,53,94.5,43.6,107.6,25c31.8-45.5,101.1,37.5,123.5,44.7c37.9,12.1,90.9-57.9,115.7-66.1
		c40.1-13.4,52,69.8,103.6,81.7c5.4,1.3,10.8,2.2,13.1-2.9c8.1-17.5,17-53.1-7.3-104.4c-10.6-22.4-27.3-46.9-45.5-70.4
		c-0.8-1-1.8-1.8-2.9-2.4c-21-10.4-39.9-19.5-41.4-20.2c-3.3-1.6-73.3-35.8-81.4-34.2c-8.1,1.6-258.9-53.7-356.6-47.2l-72.3,6.4
		c-0.6,0.1-1.2,0-1.9,0c-97.7-13.4-369.9,37.9-377.9,35.6c-8-2.2-80.4,26.5-83.8,27.9c-3.4,1.4-94.3,36.9-102.9,42.8
		c-5.8,3.9-25.2,13.5-40.2,24.5c-0.8,0.6-1.5,1.3-2.1,2.2c-9.7,15-18.4,35.4,2.1,49.4c30.9,21.2,61.9,4.9,78.2,0
		c16.3-4.9,30.9,13,35.8,45.6s22.8,34.2,29.3,40.7c6.5,6.5-4.9,34.2,0,81.4c4.5,43.2,21.2,40.1,26.5,50.4c1.2,2.3,3.4,4,6,4.4
		c10.1,1.8,32.7,2.9,38.6-21c7.6-31.1,4.5-93.9,27.3-105.3c22.7-11.4,50.8-28.8,63.6-17.4c12.9,11.4,53.8,3.8,76.5-7.6
		c22.7-11.4,49.2,12.9,45.5,26.5s25,39.4,32.6,40.9s12.1-28,6.1-48.5c-6.1-20.5,89.8-27.5,99.7-38.9c3.3-3.8,4-44.1,13.4-34.2
		c0.1,0.1,25.2,48.9,25.3,49C884.9,323.5,904.8,392.9,913.8,391.6z"/>
	<path class="st23" d="M1404.9,247.3c-29.7-22.3-60.9-35.7-95.1-49c-5.9-1.5-10.4-7.4-13.4-13.4c-14.9-28.2-22.3-62.4-57.9-68.3
		c-55-7.4-107-10.4-160.5-17.8c-112.9-17.8-222.9,3-335.8-4.5c-32.5-2.6-64.5-8.6-96.5-13.2c-75.1,10.3-137.4,21.2-141.2,20.1
		c-8-2.2-80.4,26.5-83.8,27.9c-3.4,1.4-94.3,36.9-102.9,42.8c-5.1,3.5-20.8,11.3-34.7,20.6c-5.4,14.8-8.7,31.6-1.6,39.9
		c23.8,26.7,68.3-3,95.1,17.8c22.3,17.8,26.7,47.5,44.6,71.3c10.4,14.9,3,38.6,8.9,56.5c8.9,22.3,1.5,50.5,16.3,69.8
		c9.2,11.6,22.1,16.8,36.4,17.2c4-3.3,7.3-8.3,9.1-15.5c7.6-31.1,4.5-93.9,27.3-105.3c22.7-11.4,50.8-28.8,63.6-17.4
		c12.9,11.4,53.8,3.8,76.5-7.6c22.7-11.4,49.2,12.9,45.5,26.5c-3.8,13.6,25,39.4,32.6,40.9c7.6,1.5,12.1-28,6.1-48.5
		c-6.1-20.5,89.8-27.5,99.7-38.9c3.3-3.8,4-44.1,13.4-34.2c0.1,0.1,25.2,48.9,25.3,49c2.9,3.4,22.8,72.8,31.9,71.5
		c1.4-0.2,2.7-0.4,4.1,0c0.5,0.1,1,0.2,1.5,0.3c29.5,4.5,31.4-53.9,44.2-52.4c12.9,1.5,25.5-140.5,64.8-77.9
		c33.3,53,94.5,43.6,107.6,25c31.8-45.5,101.1,37.5,123.5,44.7c37.9,12.1,90.9-57.9,115.7-66.1c24.6-8.2,38.6,20,57.7,45.8
		C1426.1,283.2,1423.9,260.7,1404.9,247.3z"/>
	<path class="st24" d="M446.6,447.9c-14.9-19.3-7.4-47.5-16.3-69.8c-5.9-17.8,1.5-41.6-8.9-56.5c-17.8-23.8-22.3-53.5-44.6-71.3
		c-26.7-20.8-71.3,8.9-95.1-17.8c-7.1-8.3-3.8-25.2,1.6-39.9c-1.9,1.3-3.8,2.6-5.6,3.9c-0.8,0.6-1.5,1.3-2.1,2.2
		c-9.7,15-18.4,35.4,2.1,49.4c30.9,21.2,61.9,4.9,78.2,0c16.3-4.9,30.9,13,35.8,45.6c4.9,32.6,22.8,34.2,29.3,40.7
		c6.5,6.5-4.9,34.2,0,81.4c4.5,43.2,21.2,40.1,26.5,50.4c1.2,2.3,3.4,4,6,4.4c7,1.2,20.2,2.2,29.5-5.5
		C468.7,464.7,455.8,459.5,446.6,447.9z"/>
	<path class="st25" d="M1478.8,340.9c5.4,1.3,10.8,2.2,13.1-2.9c8.1-17.5,17-53.1-7.3-104.4c-10.6-22.4-27.3-46.9-45.5-70.4
		c-0.8-1-1.8-1.8-2.9-2.4c-21-10.4-39.9-19.5-41.4-20.2c-3.3-1.6-73.3-35.8-81.4-34.2c-8.1,1.6-258.9-53.7-356.6-47.2l-72.3,6.4
		c-0.6,0.1-1.2,0-1.9,0c-51.7-7.1-152.3,3.9-236.8,15.5c32.1,4.6,64,10.6,96.5,13.2c112.9,7.4,222.9-13.4,335.8,4.5
		c53.5,7.4,105.5,10.4,160.5,17.8c35.7,5.9,43.1,40.1,57.9,68.3c3,5.9,7.4,11.9,13.4,13.4c34.2,13.4,65.4,26.7,95.1,49
		c18.9,13.4,21.2,35.9,28,57.7C1444.9,321.1,1458.9,336.3,1478.8,340.9z"/>
</g>
<g class="st26">
	<g>
		<polygon points="759.7,166.4 768,146.1 774,146.1 770.4,139 782.3,115.2 788.3,115.2 788.3,100.9 816.9,116.4 810.9,139 
			800.2,158.1 797.8,174.7 		"/>
	</g>
</g>
<g>
	<polygon class="st27" points="761.2,166.4 769.5,146.1 775.5,146.1 771.9,139 783.8,115.2 789.8,115.2 789.8,100.9 818.4,116.4 
		812.4,139 801.7,158.1 799.3,174.7 	"/>
</g>
<g class="st26">
	<g>
		<path d="M611.2,98.4c0,0-17.9,4.8-20.3,7.1c-2.4,2.4,0,2.4,0,2.4s-7.1,7.1-1.2,7.1s32.2,0,32.2,0l15.5-16.7c0,0,2.4-4.8,0-6
			c-2.4-1.2-15.5-2.4-20.3-7.1c-4.8-4.8-9.5-23.8-25-21.4c-15.5,2.4-10.7,9.5-4.8,13.1c6,3.6,4.8,4.8,0,6
			C582.6,84.1,605.3,98.4,611.2,98.4z"/>
	</g>
</g>
<g>
	<path class="st27" d="M612.7,98.4c0,0-17.9,4.8-20.3,7.1s0,2.4,0,2.4s-7.1,7.1-1.2,7.1c6,0,32.2,0,32.2,0l15.5-16.7
		c0,0,2.4-4.8,0-6c-2.4-1.2-15.5-2.4-20.3-7.1c-4.8-4.8-9.5-23.8-25-21.4c-15.5,2.4-10.7,9.5-4.8,13.1c6,3.6,4.8,4.8,0,6
		C584.1,84.1,606.7,98.4,612.7,98.4z"/>
</g>
<g class="st26">
	<g>
		<path d="M658.3,124.4c0,0,38.1-23.8,41.7-25c3.6-1.2,20.3,4.8,16.7,9.5c-3.6,4.8-9.5,10.7-9.5,10.7s26.2-6,27.4-1.2
			c1.2,4.8-7.1,6-7.1,6s9.5,1.2,10.7,4.8c1.2,3.6,4.8,10.7-6,9.5s2.4,7.1-4.8,9.5c-7.1,2.4-28.6-8.3-28.6-8.3s4.8,2.4,0,4.8
			C694,147.1,666.6,137.5,658.3,124.4z"/>
	</g>
</g>
<g>
	<path class="st27" d="M659.8,124.4c0,0,38.1-23.8,41.7-25c3.6-1.2,20.3,4.8,16.7,9.5c-3.6,4.8-9.5,10.7-9.5,10.7s26.2-6,27.4-1.2
		c1.2,4.8-7.1,6-7.1,6s9.5,1.2,10.7,4.8c1.2,3.6,4.8,10.7-6,9.5s2.4,7.1-4.8,9.5c-7.1,2.4-28.6-8.3-28.6-8.3s4.8,2.4,0,4.8
		C695.5,147.1,668.1,137.5,659.8,124.4z"/>
</g>
<g class="st26">
	<g>
		<path d="M952.5,206.1c0,0,38.1-23.8,41.7-25c3.6-1.2,20.3,4.8,16.7,9.5c-3.6,4.8-9.5,10.7-9.5,10.7s26.2-6,27.4-1.2
			c1.2,4.8-7.1,6-7.1,6s9.5,1.2,10.7,4.8c1.2,3.6,4.8,10.7-6,9.5c-10.7-1.2,2.4,7.1-4.8,9.5c-7.1,2.4-28.6-8.3-28.6-8.3
			s4.8,2.4,0,4.8C988.2,228.8,960.8,219.3,952.5,206.1z"/>
	</g>
</g>
<g class="st26">
	<g>
		<path d="M1164.1,233.5c0,0,41.4,17.6,44.4,19.9c3,2.2,7.7,19.3,1.7,19.1c-6-0.2-14.2-1.7-14.2-1.7s19.9,18.1,16.7,21.8
			c-3.2,3.7-9-2.4-9-2.4s4.5,8.5,2.2,11.5c-2.2,3-6.1,10-11.2,0.6c-5.2-9.5-4.5,6-10.5,1.6c-6-4.5-9.5-28.2-9.5-28.2
			s0.8,5.3-3.9,2.7C1166,275.8,1158.1,247.8,1164.1,233.5z"/>
	</g>
</g>
<g class="st26">
	<g>
		<path d="M1065.5,238.7c9.5-16.7,20.3-34.6,28.6-35.7s16.7-16.7,16.7-26.2s13.3,21-11.9,71.5c-9.5,19.1-2.4,26.2-2.4,26.2
			s-19.1,0-27.4,6c-8.3,6-17.9,0-17.9,0L1065.5,238.7z"/>
	</g>
</g>
<g class="st26">
	<g>
		<path d="M949.4,129.1c0,0,13.1,6,16.7,25c3.6,19.1,10.7,0,10.7,0s-1.2,3.6,1.2,6s6,7.1,8.3,4.8c2.4-2.4,1.2-6,1.2-8.3
			c0-2.4-4.8-17.9-10.7-28.6s-9.5-19.1-13.1-23.8c-3.6-4.8-11.9-8.3-13.1-4.8c-1.2,3.6-6,6-6,8.3S948.2,129.1,949.4,129.1z"/>
	</g>
</g>
<g class="st26">
	<g>
		<path d="M1206.9,201.4c0,0,12.3,7.5,13.6,26.8c1.3,19.4,10.6,1.3,10.6,1.3s-1.6,3.4,0.5,6.1s5.1,7.8,7.7,5.7
			c2.6-2.1,1.9-5.8,2.2-8.1c0.3-2.4-2.6-18.3-7.3-29.7s-7.2-20.1-10.2-25.2c-3-5.2-10.8-9.7-12.5-6.3c-1.6,3.4-6.6,5.2-6.9,7.6
			C1204.4,182,1205.7,201.3,1206.9,201.4z"/>
	</g>
</g>
<g class="st26">
	<g>
		<path d="M872.4,151.7c0,0-1.2-3.6-1.2-9.5s4.8-7.1,6-8.3c1.2-1.2,10.7-7.1,10.7-8.3c0-1.2,10.7-4.8,10.7,0c0,4.8,3.6,6,4.8,9.5
			c1.2,3.6-3.5,13.7-1.2,15.2c2.3,1.5,8.3,5.1,7.1,14.6c-1.2,9.5-3.6,8.3-6,0c-2.4-8.3-10.7-3.6-9.5,0c1.2,3.6-4.8,1.2-6-3.6
			c-1.2-4.8-8.3-4.8-6,2.4C884.3,170.8,872.4,164.8,872.4,151.7z"/>
	</g>
</g>
<g class="st26">
	<g>
		<path d="M1186.6,108.6c4.8,6,15.5,9.5,22.6,9.5c7.1,0,0-2.4,3.6-2.4s11.9,4.8,11.9-1.2s3.6-7.1,4.8-7.1s0-6-4.8-7.1
			c-4.8-1.2-4.8-9.5-11.9-9.5s-9.5-4.8-16.7-4.8S1186.6,108.6,1186.6,108.6z"/>
	</g>
</g>
<g class="st26">
	<g>
		<path d="M1237.2,146.9c0,0,9.5-23.8,9.5-27.4c0-3.6,2.4-6,2.4,1.2c0,7.1,1.2,17.9,2.4,21.4c1.2,3.6,8.3,16.7,2.4,17.9
			C1247.9,161.2,1237.2,146.9,1237.2,146.9z"/>
	</g>
</g>
<g class="st26">
	<g>
		<path d="M1284.9,140.3c0.5-0.2,13.9-1.6,14.9-4.8c1.1-3.2,3.2-2.7,3.2,1.6s1.6,0,2.1,1.6c0.5,1.6,0,4.8,0,7.5s-1.1,4.8-0.5,5.9
			c0.5,1.1-1.6,2.1-1.6,2.7c0,0.5-4.3,0.5-4.8,1.1c-0.5,0.5-3.2,2.1-3.2,2.1s-2.7-1.1-4.3-0.5c-1.6,0.5-3.2,3.2-3.2,3.2
			s-3.2,2.1-3.7,0c-0.5-2.1-2.7-6.9-1.6-9.1C1283.3,149.4,1282.8,141.4,1284.9,140.3z"/>
	</g>
</g>
<g class="st26">
	<g>
		<path d="M1169.3,168.4c0,0-3.6,13.1-2.4,14.3s27.4,6,29.8,9.5c2.4,3.6,3.6-4.8,3.6-4.8l-2.4-2.4l3.6-1.2l2.4-4.8L1169.3,168.4z"/>
	</g>
</g>
<g class="st26">
	<g>
		<path d="M1166.9,156.5c7.1,2.4,11.9,8.3,13.1,6c1.2-2.4-1.2-8.3,0-9.5s8.3-3.6,6-7.1c-2.4-3.6-4.8-3.6-6-6
			c-1.2-2.4,4.8-7.1,4.8-8.3s-4.8-7.1-8.3-7.1c-3.6,0-8.3-2.4-9.5,1.2s-6,8.3-4.8,11.9S1166.9,156.5,1166.9,156.5"/>
	</g>
</g>
<g class="st26">
	<g>
		<path d="M1023.9,162.4c3.6,2.4,10.7,10.7,16.7,10.7c6,0,4.8-1.2,4.8-3.6c0-2.4,3.6-3.6,4.8-3.6s6,0,3.6,2.4
			c-2.4,2.4,1.2,3.6,1.2,3.6l-1.2,2.4c0,0,1.2-1.2,1.2,0c0,1.2-1.2,2.4-1.2,2.4h2.4c0,0-3.6,1.2-1.2,2.4c2.4,1.2,11.9-2.4,13.1-4.8
			c1.2-2.4,2.4-9.5,2.4-9.5s-8.3-3.6-9.5-3.6C1059.7,161.2,1023.9,162.4,1023.9,162.4z"/>
	</g>
</g>
<g>
	<path class="st27" d="M954,206.1c0,0,38.1-23.8,41.7-25s20.3,4.8,16.7,9.5c-3.6,4.8-9.5,10.7-9.5,10.7s26.2-6,27.4-1.2
		s-7.1,6-7.1,6s9.5,1.2,10.7,4.8c1.2,3.6,4.8,10.7-6,9.5c-10.7-1.2,2.4,7.1-4.8,9.5c-7.1,2.4-28.6-8.3-28.6-8.3s4.8,2.4,0,4.8
		C989.7,228.8,962.3,219.3,954,206.1z"/>
</g>
<g>
	<path class="st27" d="M1165.6,233.5c0,0,41.4,17.6,44.4,19.9c3,2.2,7.7,19.3,1.7,19.1c-6-0.2-14.2-1.7-14.2-1.7
		s19.9,18.1,16.7,21.8c-3.2,3.7-9-2.4-9-2.4s4.5,8.5,2.2,11.5c-2.2,3-6.1,10-11.2,0.6s-4.5,6-10.5,1.6c-6-4.5-9.5-28.2-9.5-28.2
		s0.8,5.3-3.9,2.7C1167.5,275.8,1159.6,247.8,1165.6,233.5z"/>
</g>
<g class="st26">
	<g>
		<path d="M554.6,109.7c0,0-16.5,41.8-18.6,44.9c-2.2,3.1-19.1,8.2-19.1,2.3s1.3-14.3,1.3-14.3s-17.5,20.4-21.3,17.3
			c-3.8-3.1,2.2-9,2.2-9s-8.4,4.7-11.5,2.6s-10.2-5.8-0.9-11.2c9.3-5.4-6.2-4.3-1.8-10.5c4.3-6.2,27.9-10.3,27.9-10.3
			s-5.2,0.9-2.8-3.8C512.4,112.8,540.1,104.1,554.6,109.7z"/>
	</g>
</g>
<g>
	<path class="st27" d="M556,109.7c0,0-16.5,41.8-18.6,44.9c-2.2,3.1-19.1,8.2-19.1,2.3c0-6,1.3-14.3,1.3-14.3s-17.5,20.4-21.3,17.3
		c-3.8-3.1,2.2-9,2.2-9s-8.4,4.7-11.5,2.6s-10.2-5.8-0.9-11.2c9.3-5.4-6.2-4.3-1.8-10.5c4.3-6.2,27.9-10.3,27.9-10.3
		s-5.2,0.9-2.8-3.8S541.5,104.1,556,109.7z"/>
</g>
<g class="st26">
	<g>
		<path d="M756.8,250.6c27.4-20.3,38.1-17.9,35.7-27.4c-2.4-9.5,0-25,9.5-21.4c9.5,3.6,16.7,10.7,14.3,14.3c-2.4,3.6-4.8,10.7,0,9.5
			c4.8-1.2,2.4,7.1,0,8.3c-2.4,1.2-2.4,11.9,2.4,13.1c4.8,1.2-2.4,11.9-10.7,9.5c-8.3-2.4-25,0-25,0L756.8,250.6z"/>
	</g>
</g>
<g>
	<path class="st27" d="M758.2,250.6c27.4-20.3,38.1-17.9,35.7-27.4c-2.4-9.5,0-25,9.5-21.4c9.5,3.6,16.7,10.7,14.3,14.3
		c-2.4,3.6-4.8,10.7,0,9.5s2.4,7.1,0,8.3c-2.4,1.2-2.4,11.9,2.4,13.1s-2.4,11.9-10.7,9.5c-8.3-2.4-25,0-25,0L758.2,250.6z"/>
</g>
<g class="st26">
	<g>
		<path d="M641.5,189.3c32,11.6,36,21.8,42.6,14.6c6.6-7.3,20.8-13.9,23.1-3.9c2.3,9.9,0.3,19.8-4,19.8c-4.3,0-11.6,2-7.9,5.3
			s-4.6,5.9-6.9,4.6c-2.3-1.3-11.2,4.6-9.6,9.2s-11.2,4.6-13.9-3.6s-13.9-20.8-13.9-20.8L641.5,189.3z"/>
	</g>
</g>
<g>
	<path class="st27" d="M643,189.3c32,11.6,36,21.8,42.6,14.6c6.6-7.3,20.8-13.9,23.1-3.9c2.3,9.9,0.3,19.8-4,19.8
		c-4.3,0-11.6,2-7.9,5.3s-4.6,5.9-6.9,4.6c-2.3-1.3-11.2,4.6-9.6,9.2c1.6,4.6-11.2,4.6-13.9-3.6s-13.9-20.8-13.9-20.8L643,189.3z"/>
</g>
<g class="st26">
	<g>
		<path d="M628.2,229.6c-26.1-21.9-26.2-32.9-35-28.4s-24.3,5.8-23.1-4.3s6.6-18.7,10.6-17.2c4,1.5,11.5,2.1,9.3-2.2
			c-2.3-4.4,6.4-4,8.1-1.9c1.7,2,12.1-0.5,12.2-5.4s12.1-0.5,11.8,8.2c-0.4,8.7,5.8,24.3,5.8,24.3L628.2,229.6z"/>
	</g>
</g>
<g>
	<path class="st27" d="M629.7,229.6c-26.1-21.9-26.2-32.9-35-28.4c-8.7,4.5-24.3,5.8-23.1-4.3s6.6-18.7,10.6-17.2
		c4,1.5,11.5,2.1,9.3-2.2s6.4-4,8.1-1.9c1.7,2,12.1-0.5,12.2-5.4c0.1-4.9,12.1-0.5,11.8,8.2c-0.4,8.7,5.8,24.3,5.8,24.3L629.7,229.6
		z"/>
</g>
<g class="st26">
	<g>
		<path d="M877.5,185.8c2.3,9.3,6,21.4,6,21.4s-15.5,2.4-14.3,9.5c1.2,7.1,6,14.3,7.1,19.1c1.2,4.8,0,4.8,0,4.8l7.1-7.1v7.1
			c0,0,2.4,9.5,10.7,0s-2.4-11.9,0-15.5c2.4-3.6,7.1-1.2,16.7-1.2c9.5,0,16.7-4.8,10.7-8.3c-6-3.6-4.8-8.3-2.4-11.9
			c2.4-3.6-1.2-8.3-6-8.3s-15.5-2.4-21.4-4.8C885.8,188.1,876.3,181,877.5,185.8z"/>
	</g>
</g>
<g>
	<path class="st27" d="M879,185.8c2.3,9.3,6,21.4,6,21.4s-15.5,2.4-14.3,9.5s6,14.3,7.1,19.1c1.2,4.8,0,4.8,0,4.8l7.1-7.1v7.1
		c0,0,2.4,9.5,10.7,0s-2.4-11.9,0-15.5c2.4-3.6,7.1-1.2,16.7-1.2c9.5,0,16.7-4.8,10.7-8.3c-6-3.6-4.8-8.3-2.4-11.9
		c2.4-3.6-1.2-8.3-6-8.3c-4.8,0-15.5-2.4-21.4-4.8C887.3,188.1,877.8,181,879,185.8z"/>
</g>
<g>
	<path class="st27" d="M1067,238.7c9.5-16.7,20.3-34.6,28.6-35.7s16.7-16.7,16.7-26.2s13.3,21-11.9,71.5
		c-9.5,19.1-2.4,26.2-2.4,26.2s-19.1,0-27.4,6c-8.3,6-17.9,0-17.9,0L1067,238.7z"/>
</g>
<g>
	<path class="st27" d="M950.9,129.1c0,0,13.1,6,16.7,25c3.6,19.1,10.7,0,10.7,0s-1.2,3.6,1.2,6s6,7.1,8.3,4.8c2.4-2.4,1.2-6,1.2-8.3
		c0-2.4-4.8-17.9-10.7-28.6s-9.5-19.1-13.1-23.8c-3.6-4.8-11.9-8.3-13.1-4.8c-1.2,3.6-6,6-6,8.3S949.7,129.1,950.9,129.1z"/>
</g>
<g>
	<path class="st27" d="M1208.4,201.4c0,0,12.3,7.5,13.6,26.8s10.6,1.3,10.6,1.3s-1.6,3.4,0.5,6.1c2.1,2.6,5.1,7.8,7.7,5.7
		c2.6-2.1,1.9-5.8,2.2-8.1c0.3-2.4-2.6-18.3-7.3-29.7s-7.2-20.1-10.2-25.2c-3-5.2-10.8-9.7-12.5-6.3c-1.6,3.4-6.6,5.2-6.9,7.6
		S1207.2,201.3,1208.4,201.4z"/>
</g>
<g>
	<path class="st27" d="M873.9,151.7c0,0-1.2-3.6-1.2-9.5s4.8-7.1,6-8.3c1.2-1.2,10.7-7.1,10.7-8.3c0-1.2,10.7-4.8,10.7,0
		c0,4.8,3.6,6,4.8,9.5c1.2,3.6-3.5,13.7-1.2,15.2c2.3,1.5,8.3,5.1,7.1,14.6c-1.2,9.5-3.6,8.3-6,0c-2.4-8.3-10.7-3.6-9.5,0
		c1.2,3.6-4.8,1.2-6-3.6c-1.2-4.8-8.3-4.8-6,2.4C885.8,170.8,873.9,164.8,873.9,151.7z"/>
</g>
<g>
	<path class="st27" d="M1188,108.6c4.8,6,15.5,9.5,22.6,9.5s0-2.4,3.6-2.4s11.9,4.8,11.9-1.2s3.6-7.1,4.8-7.1c1.2,0,0-6-4.8-7.1
		c-4.8-1.2-4.8-9.5-11.9-9.5c-7.1,0-9.5-4.8-16.7-4.8S1188,108.6,1188,108.6z"/>
</g>
<g>
	<path class="st27" d="M1238.7,146.9c0,0,9.5-23.8,9.5-27.4c0-3.6,2.4-6,2.4,1.2c0,7.1,1.2,17.9,2.4,21.4c1.2,3.6,8.3,16.7,2.4,17.9
		C1249.4,161.2,1238.7,146.9,1238.7,146.9z"/>
</g>
<g>
	<path class="st27" d="M1286.4,140.3c0.5-0.2,13.9-1.6,14.9-4.8s3.2-2.7,3.2,1.6s1.6,0,2.1,1.6s0,4.8,0,7.5s-1.1,4.8-0.5,5.9
		c0.5,1.1-1.6,2.1-1.6,2.7c0,0.5-4.3,0.5-4.8,1.1c-0.5,0.5-3.2,2.1-3.2,2.1s-2.7-1.1-4.3-0.5c-1.6,0.5-3.2,3.2-3.2,3.2
		s-3.2,2.1-3.7,0c-0.5-2.1-2.7-6.9-1.6-9.1C1284.8,149.4,1284.3,141.4,1286.4,140.3z"/>
</g>
<g>
	<path class="st27" d="M1170.8,168.4c0,0-3.6,13.1-2.4,14.3s27.4,6,29.8,9.5c2.4,3.6,3.6-4.8,3.6-4.8l-2.4-2.4l3.6-1.2l2.4-4.8
		L1170.8,168.4z"/>
</g>
<g>
	<path class="st27" d="M1168.4,156.5c7.1,2.4,11.9,8.3,13.1,6c1.2-2.4-1.2-8.3,0-9.5s8.3-3.6,6-7.1c-2.4-3.6-4.8-3.6-6-6
		c-1.2-2.4,4.8-7.1,4.8-8.3s-4.8-7.1-8.3-7.1s-8.3-2.4-9.5,1.2s-6,8.3-4.8,11.9S1168.4,156.5,1168.4,156.5"/>
</g>
<g>
	<path class="st27" d="M1025.4,162.4c3.6,2.4,10.7,10.7,16.7,10.7c6,0,4.8-1.2,4.8-3.6c0-2.4,3.6-3.6,4.8-3.6c1.2,0,6,0,3.6,2.4
		c-2.4,2.4,1.2,3.6,1.2,3.6l-1.2,2.4c0,0,1.2-1.2,1.2,0c0,1.2-1.2,2.4-1.2,2.4h2.4c0,0-3.6,1.2-1.2,2.4c2.4,1.2,11.9-2.4,13.1-4.8
		c1.2-2.4,2.4-9.5,2.4-9.5s-8.3-3.6-9.5-3.6C1061.1,161.2,1025.4,162.4,1025.4,162.4z"/>
</g>
<g class="st26">
	<g>
		<path d="M1017.7,89c-11.8-11.7-57.5-39.3-140.2-63.4c-82.8-24.1-157-17.3-157-17.3l11,9.5l49.8,43.3c0,0,35.7,0.8,101.1,16.1
			s87.6,52.3,87.6,52.3c64.5,22.5,76,10.2,79.4,1.4c0.7-1.7,1-3.3,1.4-4.5C1053.1,119.4,1029.5,100.7,1017.7,89z"/>
	</g>
	<g>
		<path d="M1026.2,143.1c-13.4,0-32.2-4.3-56.5-12.8l-0.3-0.1l-0.1-0.2c-0.2-0.4-22.9-37-87.1-52c-64.5-15.1-100.6-16.1-100.9-16.1
			l-0.3,0l-0.2-0.2l-62.1-54l1.7-0.2c0.7-0.1,75.3-6.6,157.3,17.3c79.5,23.2,127.6,50.7,140.6,63.6l0,0c2.8,2.8,6.3,5.9,9.9,9.3
			c12.4,11.4,25.2,23.1,23.3,28.9c-0.1,0.4-0.3,0.9-0.4,1.3c-0.3,0.9-0.6,2-1,3.2C1047,139.1,1039.1,143.1,1026.2,143.1z M970.5,129
			c69.5,24.3,76.1,7.3,78.2,1.7c0.4-1.1,0.7-2.1,1-3.1c0.1-0.5,0.3-1,0.4-1.4c1.6-4.9-12-17.4-22.9-27.4c-3.7-3.4-7.1-6.5-10-9.3
			l0,0c-12.8-12.8-60.7-40.1-139.9-63.2C802.6,4.5,734.1,8.1,722.3,8.9l59.3,51.5c3.4,0.1,39.2,1.7,101,16.1
			C944.8,91.1,968.4,125.8,970.5,129z"/>
	</g>
</g>
<g>
	<g>
		<path class="st28" d="M908.7,45.3c93.9,36.8,122.8,59.5,142.2,85.7c0.7-1.7,1-3.3,1.4-4.5c2.3-7.1-21.2-25.8-33-37.5
			S961.8,49.7,879,25.6C796.2,1.5,722,8.3,722,8.3l11,9.5C760.8,14.9,826.4,13,908.7,45.3z"/>
	</g>
	<g>
		<path class="st29" d="M908.7,45.3C826.4,13,760.8,14.9,733,17.9l49.8,43.3c0,0,35.7,0.8,101.1,16.1s87.6,52.3,87.6,52.3
			c64.5,22.5,76,10.2,79.4,1.4C1031.5,104.8,1002.6,82,908.7,45.3z"/>
	</g>
</g>
<g class="st26">
	<g>
		<path d="M889.8,87.5c-20.9-39.9-130.1-65.7-180.4-58.6c-15,2.1-33,8.4-50.8,16.1c-41.8,18.2-82.8,44.6-82.8,44.6l32.8-7.8
			c5.2,0.7,97.4-28.7,106.2,9.5c0,0,9.2,10.1,5,27.1c-4.1,17,52.9,12.6,52.9,12.6s109.6,10,115.3,7.2c1.6-0.8,4-1.9,6.3-4.1
			C900.2,128.6,904.9,116.4,889.8,87.5z"/>
	</g>
	<g>
		<path d="M881.6,139.6c-23.6,0-99.2-6.8-108.9-7.7c-1.6,0.1-43.2,3.2-52.1-7.2c-1.6-1.8-2.1-4-1.5-6.4c4-16.4-4.8-26.4-4.9-26.5
			l-0.1-0.1l0-0.2C707,60.8,643,75.2,618.9,80.7c-6.1,1.4-9.1,2-10.2,2l-36.9,8.7l3.6-2.3c0.4-0.3,41.5-26.6,82.9-44.7
			c20.3-8.8,37.4-14.3,50.9-16.2c51.4-7.2,160.3,19.2,181.2,59c12,22.9,13.5,38.9,4.3,47.6c-2.4,2.3-4.9,3.5-6.5,4.2
			C887.6,139.4,885.2,139.6,881.6,139.6z M772.6,130.4c44.1,4,111,9.2,115,7.3c1.6-0.8,3.9-1.9,6.1-4c8.6-8.2,7-23.6-4.6-45.9
			c-20.6-39.3-128.6-65.4-179.6-58.2c-13.4,1.9-30.4,7.3-50.6,16.1c-34,14.8-67.8,35.3-78.9,42.2l28.6-6.8l0.1,0
			c0.8,0.1,5-0.8,9.8-1.9c26.8-6,89.4-20.1,96.9,11.8c1.2,1.4,9,11.3,5.1,27.7c-0.5,1.9-0.1,3.6,1.2,5.1
			C730.1,133.6,772.2,130.4,772.6,130.4z"/>
	</g>
</g>
<g>
	<g>
		<path class="st28" d="M889.8,86c-20.9-39.9-130.1-65.7-180.4-58.6c-15,2.1-33,8.4-50.8,16.1c111.1-13,217.7,0,235.7,89.2
			C900.2,127.2,904.9,114.9,889.8,86z"/>
	</g>
	<g>
		<path class="st29" d="M658.6,43.6c-41.8,18.2-82.8,44.6-82.8,44.6l32.8-7.8c5.2,0.7,97.4-28.7,106.2,9.5c0,0,9.2,10.1,5,27.1
			c-4.1,17,52.9,12.6,52.9,12.6s109.6,10,115.3,7.2c1.6-0.8,4-1.9,6.3-4.1C876.4,43.5,769.7,30.6,658.6,43.6z"/>
	</g>
</g>
<g class="st26">
	<g>
		<path d="M1179.3,111.3c-12.4-43.3-77.2-62.9-127.9-66.1c-39.8-2.5-62,2.6-69.7,4.9c-2.1,0.6-3.1,1.1-3.1,1.1s34.2,8.9,34.2,8.9
			c12.3,3.2,24.9,2.8,36.9,8c20.3,8.8,32.3,33.9,25.4,55.6c-0.7,2.2-1.7,4.4-2,6.7c-2,13.3,26.2,14.2,34.9,14.3
			c0,0,53.4,17.5,59.5,16c1.2-0.3,3-0.8,4.9-1.6C1179.6,155.7,1189.1,145.8,1179.3,111.3z"/>
	</g>
	<g>
		<path d="M1166.3,161.6c-9.5,0-55.5-15-58.7-16c-17.9-0.3-29.1-3.1-33.5-8.3c-1.7-2-2.3-4.3-2-6.9c0.3-1.7,0.8-3.4,1.4-4.9
			c0.2-0.6,0.5-1.3,0.7-1.9c6.7-20.9-4.7-46-24.9-54.7c-7.2-3.1-14.8-4.2-22.2-5.3c-4.8-0.7-9.8-1.4-14.6-2.7
			c-0.1,0-34.2-8.9-34.2-8.9l-2.1-0.6l2.1-0.8c0,0,1.1-0.4,3.2-1.1c7.7-2.3,30-7.4,69.9-4.9c51.5,3.2,116,22.6,128.6,66.6
			c7.6,26.5,5.1,42.9-7.5,48.7c-2,0.9-3.8,1.4-5,1.7C1167.2,161.5,1166.8,161.6,1166.3,161.6z M981.1,51.1
			c31.8,8.3,31.8,8.3,31.8,8.3c4.8,1.2,9.7,2,14.5,2.7c7.4,1.1,15.1,2.2,22.5,5.4c20.9,9,32.7,34.9,25.8,56.5
			c-0.2,0.7-0.4,1.3-0.7,2c-0.6,1.6-1.1,3.1-1.3,4.6c-0.3,2.2,0.2,4.1,1.6,5.7c2.8,3.3,10.8,7.4,32.5,7.8l0.2,0
			c14.8,4.8,54.2,17.1,59.1,15.9c1.2-0.3,2.9-0.7,4.8-1.6c11.8-5.4,14.1-21.2,6.7-46.9l0,0c-11.6-40.4-72.3-62-127.3-65.5
			c-39.7-2.5-61.8,2.6-69.4,4.9C981.6,50.9,981.3,51,981.1,51.1z"/>
	</g>
</g>
<g>
	<g>
		<path class="st28" d="M1180.7,111.3c-12.4-43.3-77.2-62.9-127.9-66.1c-39.8-2.5-62,2.6-69.7,4.9c35.3-2.5,137.9-5.8,172.2,38.2
			c28.9,37.1,25.5,57.1,18.3,70.8C1181,155.7,1190.6,145.8,1180.7,111.3z"/>
	</g>
	<g>
		<path class="st29" d="M1155.3,88.3c-34.2-44-136.9-40.7-172.2-38.2c-2.1,0.6-3.1,1.1-3.1,1.1s34.2,8.9,34.2,8.9
			c12.3,3.2,24.9,2.8,36.9,8c20.3,8.8,32.3,33.9,25.4,55.6c-0.7,2.2-1.7,4.4-2,6.7c-2,13.3,26.2,14.2,34.9,14.3
			c0,0,53.4,17.5,59.5,16c1.2-0.3,3-0.8,4.9-1.6C1180.9,145.4,1184.2,125.5,1155.3,88.3z"/>
	</g>
</g>
<g>
	<path class="st30" d="M492.7,143.3c-4.5,3-8.9,5.9-4.5,7.4s1.5,1.5,1.5-1.5S492.7,143.3,492.7,143.3L492.7,143.3z"/>
	<path class="st30" d="M490.7,151.9c-0.1,0-0.1,0-0.2-0.1c-0.2-0.1-0.9-0.4-2.3-0.9c-1.2-0.4-1.9-0.9-2-1.7c-0.2-1.7,3-3.8,6.4-6.1
		l0.2,0.3c0,0-2.9,3-2.9,5.8c0,0.6,0.2,1.6,0.9,2.3c0,0,0.2,0.2,0.1,0.3C490.8,151.9,490.7,151.9,490.7,151.9z M491.6,144.2
		c-2.7,1.9-5.2,3.7-5.1,5c0.1,0.5,0.6,1,1.7,1.3c0.8,0.3,1.4,0.5,1.8,0.7c-0.4-0.7-0.5-1.4-0.5-2
		C489.5,147.3,490.7,145.4,491.6,144.2z"/>
</g>
<g>
	<path class="st30" d="M546.1,110.6c3,0,7.4,3,5.9,4.5c-1.5,1.5-4.5,5.9-4.5,5.9s3-7.4,1.5-7.4C547.6,113.6,546.1,110.6,546.1,110.6
		z"/>
</g>
<g>
	<path class="st30" d="M669.5,128.5c-5.7-3.4,20.8,13.4,23.8,13.4S676.9,132.9,669.5,128.5z"/>
</g>
<g>
	<path class="st30" d="M616,112.1c-1.5,0,1.9,4.4,13.6-5.2C629.6,106.9,619,112.1,616,112.1z"/>
</g>
<g>
	<path class="st30" d="M580.3,183.4c2-0.7-5.9,4.5-4.5,7.4C577.4,193.8,575.9,184.9,580.3,183.4z"/>
</g>
<g>
	<path class="st30" d="M657.6,201.3c-3-3-5.9-5.9-5.9-4.5C651.6,198.3,657.6,201.3,657.6,201.3z"/>
</g>
<g>
	<path class="st30" d="M699.2,198.3c-2.8-0.9,3-1.5,4.5,0C705.1,199.8,703.6,199.8,699.2,198.3z"/>
</g>
<g>
	<path class="st30" d="M767.5,155.2c2-5-4.5,8.9-4.5,8.9h3C766,164.1,764.6,162.6,767.5,155.2z"/>
</g>
<g>
	<path class="st30" d="M795.8,214.6c-1.2,5.8-1.5-7.4,3-10.4C803.2,201.3,797.3,207.2,795.8,214.6z"/>
</g>
<g>
	<path class="st30" d="M898.3,132.9c-2,0.7,4.5-1.5,4.5,1.5c0,3-3,14.9-3,14.9S902.7,131.4,898.3,132.9z"/>
</g>
<g>
	<path class="st30" d="M951.8,112.1c-2.7-1.9,17.8,14.9,16.3,16.3C966.6,129.9,975.5,128.5,951.8,112.1z"/>
</g>
<g>
	<path class="st30" d="M993.4,184.9l-31.2,17.8C962.2,202.7,993.4,187.9,993.4,184.9z"/>
</g>
<g>
	<path class="st30" d="M919.1,202.7c1.6-2.5-4.5,10.4,0,11.9C923.5,216.1,910.2,216.1,919.1,202.7z"/>
</g>
<g>
	<path class="st30" d="M1094.4,205.7c0,0-17.8,17.8-22.3,35.7C1067.7,259.2,1073.6,229.5,1094.4,205.7z"/>
</g>
<g>
	<path class="st30" d="M1219.2,174.5c0,0,11.9,13.4,17.8,38.6L1219.2,174.5z"/>
</g>
<g>
	<path class="st30" d="M1195.4,88.3c0,0-4.5,8.9-4.5,13.4S1195.4,88.3,1195.4,88.3z"/>
</g>
<g>
	<path class="st30" d="M1246,131.4l-4.5,13.4C1241.5,144.8,1247.5,135.9,1246,131.4z"/>
</g>
<g>
	<path class="st30" d="M1173.2,171.5l-1.5,7.4C1171.7,179,1176.1,174.5,1173.2,171.5z"/>
</g>
<g>
	<path class="st30" d="M1168.7,238.4c0,0-3,28.2,3,32.7S1168.7,275.6,1168.7,238.4z"/>
</g>
<g>
	<path class="st30" d="M1289.1,141.8c0,0,0,7.4-3,8.9c-3,1.5,0,5.9,0,5.9S1292,143.3,1289.1,141.8z"/>
</g>
<g class="st26">
	<path class="st0" d="M723,100.2c0,0,3,13.4,1.5,17.8c-1.5,4.5,8.9,4.5,8.9,4.5s-1.5-4.5-5.9-4.5C723,118.1,731.9,103.2,723,100.2z"
		/>
</g>
<g>
	<path class="st0" d="M752.7,97.3"/>
</g>
<g class="st26">
	<path class="st0" d="M965.1,118.1c0,0,8.9,5.9,7.4,8.9c-1.5,3,7.4,1.5,7.4,1.5L965.1,118.1z"/>
</g>
<g class="st26">
	<path class="st0" d="M1079.6,124c0,0-4.5,5.9-3,8.9c1.5,3,4.5,4.5,4.5,4.5s-1.5-5.9-3-5.9C1076.6,131.4,1079.6,124,1079.6,124z"/>
</g>
<g>
	<g class="st26">
		<g>
			<path d="M661.4,94.3c-1.2,3.7-2.5,11.2,0,13.7c2.5,2.5-1.2,7.5,6.2,5c7.5-2.5,17.4-7.5,18.7-11.2s5-14.9-2.5-14.9
				C676.3,86.9,661.4,94.3,661.4,94.3z"/>
		</g>
	</g>
	<g>
		<path class="st31" d="M662.9,94.3c-1.2,3.7-2.5,11.2,0,13.7c2.5,2.5-1.2,7.5,6.2,5c7.5-2.5,17.4-7.5,18.7-11.2s5-14.9-2.5-14.9
			S662.9,94.3,662.9,94.3z"/>
	</g>
	<g class="st26">
		<g>
			<path d="M734.8,124.2c1.2-1.2,5-6.2,2.5-10c-2.5-3.7-5-2.5-7.5,0c-2.5,2.5-2.5,2.5-2.5,2.5c-2.5,0-11.2,5-3.7,7.5
				C731.1,126.7,733.6,125.4,734.8,124.2z"/>
		</g>
		<g>
			<path d="M739.5,65.9c3.7,0,14.9-3.7,14.9-3.7s-1.2-8.7-5-8.7c-3.7,0-24.9-3.7-28.6,3.7C716.1,66.6,735.8,65.9,739.5,65.9z"/>
		</g>
		<g>
			<path d="M753.5,152.8c-5,0-7.5,3.7-6.2,6.2c1.2,2.5,13.7,10,17.4,8.7c3.7-1.2,12.4-6.2,10-11.2
				C772.2,151.6,753.5,152.8,753.5,152.8z"/>
		</g>
		<g>
			<path d="M775.6,93.6c-2.9,8.6-7.5,14.9,0,13.7c7.5-1.2,10-10,10-10S778.1,86.2,775.6,93.6z"/>
		</g>
		<g>
			<path d="M843.1,140.4c-6.2,0-12.4,8.7-12.4,8.7h2.5c-1.2,7.5-6.2,11.2,2.5,8.7C844.4,155.3,849.4,140.4,843.1,140.4z"/>
		</g>
		<g>
			<path d="M993.8,135.4c0-6.2-12.4-21.2-17.4-18.7c-5,2.5,1.2,2.5,1.2,2.5c-3.7,3.7-8.7,12.4-2.5,16.2c6.2,3.7,12.4,6.2,13.7,7.5
				C990,144.1,993.8,141.6,993.8,135.4z"/>
		</g>
		<g>
			<path d="M1027,104.7c-7.5,0-22.4,7.5-22.4,7.5c-1.2,3.7-2.5,11.2,0,13.7c2.5,2.5-1.2,7.5,6.2,5c7.5-2.5,17.4-7.5,18.7-11.2
				C1030.7,115.9,1034.5,104.7,1027,104.7z"/>
		</g>
		<g>
			<path d="M1067.1,56.3c-2.5,2.5-2.5,2.5-2.5,2.5c-2.5,0-11.2,5-3.7,7.5c7.5,2.5,10,1.2,11.2,0c1.2-1.2,5-6.2,2.5-10
				C1072.1,52.6,1069.6,53.8,1067.1,56.3z"/>
		</g>
		<g>
			<path d="M947.3,170.7c0-3.7,0-10,0-10c-3.7,1.2-17.4,2.5-13.7,8.7c3.7,6.2,6.2,11.2,8.7,11.2c2.5,0,10-2.5,10-2.5
				S947.3,174.4,947.3,170.7z"/>
		</g>
		<g>
			<path d="M1125.4,108.4c-3.7,0-24.9-3.7-28.6,3.7c-4.7,9.4,14.9,8.7,18.7,8.7c3.7,0,14.9-3.7,14.9-3.7S1129.1,108.4,1125.4,108.4z
				"/>
		</g>
		<g>
			<path d="M1096.7,170.7c-5,0-7.5,3.7-6.2,6.2c1.2,2.5,13.7,10,17.4,8.7c3.7-1.2,12.4-6.2,10-11.2
				C1115.4,169.4,1096.7,170.7,1096.7,170.7z"/>
		</g>
		<g>
			<path d="M1151.5,123.4c-2.9,8.6-7.5,14.9,0,13.7c7.5-1.2,10-10,10-10S1154,115.9,1151.5,123.4z"/>
		</g>
		<g>
			<path d="M1186.4,158.2c-6.2,0-12.4,8.7-12.4,8.7h2.5c-1.2,7.5-6.2,11.2,2.5,8.7C1187.6,173.2,1192.6,158.2,1186.4,158.2z"/>
		</g>
		<g>
			<path d="M1197.7,119.7c-5,2.5,1.2,2.5,1.2,2.5c-3.7,3.7-8.7,12.4-2.5,16.2c6.2,3.7,12.4,6.2,13.7,7.5s5-1.2,5-7.5
				S1202.7,117.2,1197.7,119.7z"/>
		</g>
		<g>
			<path d="M912.5,134.6c-6.2-5-27.4-2.5-24.9,2.5c4.2,8.5,18.7,11.2,18.7,11.2S918.7,139.5,912.5,134.6z"/>
		</g>
		<g>
			<path d="M870.2,170.7c0,6.2-5,12.4-5,14.9c0,2.5-1.2,11.2,2.5,11.2c3.7,0,12.4-2.5,14.9-11.2
				C885.1,176.9,870.2,166.9,870.2,170.7z"/>
		</g>
		<g>
			<path d="M854.9,86.1c-3.7,0-24.9-3.7-28.6,3.7c-4.7,9.4,14.9,8.7,18.7,8.7c3.7,0,14.9-3.7,14.9-3.7S858.7,86.1,854.9,86.1z"/>
		</g>
		<g>
			<path d="M869.2,53.8c7.5-1.2,10-10,10-10s-7.5-11.2-10-3.7C866.3,48.7,861.7,55.1,869.2,53.8z"/>
		</g>
		<g>
			<path d="M915.4,51.4c-5,2.5,1.2,2.5,1.2,2.5c-3.7,3.7-8.7,12.4-2.5,16.2c6.2,3.7,12.4,6.2,13.7,7.5c1.2,1.2,5-1.2,5-7.5
				C932.8,63.8,920.4,48.9,915.4,51.4z"/>
		</g>
		<g>
			<path d="M739.1,217.8c-6.2,0-12.4,8.7-12.4,8.7h2.5c-1.2,7.5-6.2,11.2,2.5,8.7C740.4,232.7,745.3,217.8,739.1,217.8z"/>
		</g>
		<g>
			<path d="M750.5,179.3c-5,2.5,1.2,2.5,1.2,2.5c-3.7,3.7-8.7,12.4-2.5,16.2c6.2,3.7,12.4,6.2,13.7,7.5c1.2,1.2,5-1.2,5-7.5
				C767.9,191.7,755.5,176.8,750.5,179.3z"/>
		</g>
		<g>
			<path d="M1040.3,152.8c-5,0-7.5,3.7-6.2,6.2c1.2,2.5,13.7,10,17.4,8.7c3.7-1.2,12.4-6.2,10-11.2
				C1058.9,151.6,1040.3,152.8,1040.3,152.8z"/>
		</g>
		<g>
			<path d="M1109.4,87.5c3.7-1.2,12.4-6.2,10-11.2c-2.5-5-21.2-3.7-21.2-3.7c-5,0-7.5,3.7-6.2,6.2
				C1093.2,81.3,1105.7,88.8,1109.4,87.5z"/>
		</g>
		<g>
			<path d="M991,182.9c-2.9,8.6-7.5,14.9,0,13.7c7.5-1.2,10-10,10-10S993.5,175.5,991,182.9z"/>
		</g>
		<g>
			<path d="M1025.9,217.8c-6.2,0-12.4,8.7-12.4,8.7h2.5c-1.2,7.5-6.2,11.2,2.5,8.7C1027.1,232.7,1032.1,217.8,1025.9,217.8z"/>
		</g>
		<g>
			<path d="M1037.2,179.3c-5,2.5,1.2,2.5,1.2,2.5c-3.7,3.7-8.7,12.4-2.5,16.2c6.2,3.7,12.4,6.2,13.7,7.5c1.2,1.2,5-1.2,5-7.5
				C1054.7,191.7,1042.2,176.8,1037.2,179.3z"/>
		</g>
	</g>
	<g>
		<path class="st31" d="M728.8,116.7c-2.5,0-11.2,5-3.7,7.5c7.5,2.5,10,1.2,11.2,0s5-6.2,2.5-10s-5-2.5-7.5,0
			C728.8,116.7,728.8,116.7,728.8,116.7z"/>
	</g>
	<g class="st26">
		<g>
			<path d="M604.1,142.9c-3.7,1.2-17.4,2.5-13.7,8.7s6.2,11.2,8.7,11.2c2.5,0,10-2.5,10-2.5s-5-3.7-5-7.5S604.1,142.9,604.1,142.9z"
				/>
		</g>
	</g>
	<g>
		<path class="st31" d="M605.6,142.9c-3.7,1.2-17.4,2.5-13.7,8.7c3.7,6.2,6.2,11.2,8.7,11.2s10-2.5,10-2.5s-5-3.7-5-7.5
			S605.6,142.9,605.6,142.9z"/>
	</g>
	<g>
		<path class="st31" d="M722.3,57.2c-4.7,9.4,14.9,8.7,18.7,8.7c3.7,0,14.9-3.7,14.9-3.7s-1.2-8.7-5-8.7
			C747.2,53.4,726,49.7,722.3,57.2z"/>
	</g>
	<g>
		<path class="st31" d="M755,152.8c-5,0-7.5,3.7-6.2,6.2s13.7,10,17.4,8.7c3.7-1.2,12.4-6.2,10-11.2
			C773.7,151.6,755,152.8,755,152.8z"/>
	</g>
	<g>
		<path class="st31" d="M777.1,93.6c-2.9,8.6-7.5,14.9,0,13.7c7.5-1.2,10-10,10-10S779.6,86.2,777.1,93.6z"/>
	</g>
	<g>
		<path class="st31" d="M834.7,149.1c-1.2,7.5-6.2,11.2,2.5,8.7c8.7-2.5,13.7-17.4,7.5-17.4c-6.2,0-12.4,8.7-12.4,8.7H834.7z"/>
	</g>
	<g>
		<path class="st31" d="M979.1,119.2c-3.7,3.7-8.7,12.4-2.5,16.2s12.4,6.2,13.7,7.5c1.2,1.2,5-1.2,5-7.5s-12.4-21.2-17.4-18.7
			C972.8,119.2,979.1,119.2,979.1,119.2z"/>
	</g>
	<g class="st26">
		<g>
			<path d="M544.4,119.2c4.2,8.5,18.7,11.2,18.7,11.2s12.4-8.7,6.2-13.7C563,111.8,541.9,114.2,544.4,119.2z"/>
		</g>
	</g>
	<g>
		<path class="st31" d="M545.8,119.2c4.2,8.5,18.7,11.2,18.7,11.2s12.4-8.7,6.2-13.7C564.5,111.8,543.4,114.2,545.8,119.2z"/>
	</g>
	<g class="st26">
		<g>
			<path d="M526.9,152.8c0,6.2-5,12.4-5,14.9c0,2.5-1.2,11.2,2.5,11.2s12.4-2.5,14.9-11.2C541.9,159.1,526.9,149.1,526.9,152.8z"/>
		</g>
	</g>
	<g>
		<path class="st31" d="M528.4,152.8c0,6.2-5,12.4-5,14.9c0,2.5-1.2,11.2,2.5,11.2c3.7,0,12.4-2.5,14.9-11.2
			C543.4,159.1,528.4,149.1,528.4,152.8z"/>
	</g>
	<g>
		<g>
			<path class="st32" d="M668,110.6c3.5-2.2,7.2-4.1,10.8-5.9c0.9-0.5,1.8-0.9,2.7-1.4c0.4-0.3,0.8-0.4,1.1-0.8
				c0.3-0.3,0.5-0.7,0.8-1.2c0.9-1.8,1.7-3.7,2.5-5.6c-0.3,2.1-0.6,4.1-1.5,6.1c-0.2,0.5-0.4,1-0.8,1.5c-0.4,0.5-0.9,0.9-1.3,1.1
				c-0.9,0.6-1.8,1.1-2.7,1.5C675.8,107.9,672,109.5,668,110.6z"/>
		</g>
	</g>
	<g>
		<g>
			<path class="st32" d="M557.3,126.2c1.6,0.5,2.9,0.6,4.4,0.6c0.7,0,1.4-0.2,2.2-0.2c0.7-0.1,1.5-0.3,2.4-0.3
				c-0.6,0.6-1.3,1.1-2,1.4c-0.8,0.3-1.6,0.6-2.4,0.6c-0.9,0-1.7-0.1-2.5-0.4C558.4,127.5,557.7,127,557.3,126.2z"/>
		</g>
	</g>
	<g>
		<g>
			<path class="st32" d="M529.1,175.3c1.1-0.1,2.1-0.3,2.9-0.7c0.8-0.4,1.6-1.1,2.2-1.8c1.4-1.4,2.5-3.2,3.7-4.9
				c-0.1,1.1-0.4,2.2-0.8,3.2c-0.4,1-1.1,2-1.8,2.8c-0.8,0.8-1.8,1.5-2.9,1.8C531.2,175.9,530,175.8,529.1,175.3z"/>
		</g>
	</g>
	<g>
		<g>
			<path class="st32" d="M595.9,153c-0.1,0.8,0.2,1.4,0.6,2c0.4,0.6,0.8,1.2,1.2,1.7c0.9,1.1,1.9,2.3,2.7,3.7
				c-1.6-0.5-2.8-1.5-3.9-2.8c-0.5-0.7-0.9-1.4-1.1-2.2C595.2,154.6,595.3,153.5,595.9,153z"/>
		</g>
	</g>
	<g>
		<g>
			<path class="st32" d="M757.9,163.4c1.2-0.3,2.4-0.4,3.6-0.4c1.2,0,2.3-0.1,3.4-0.2c1.1-0.1,2.2-0.4,3.2-0.8c1-0.4,2.1-1,3.1-1.6
				c-0.6,1-1.5,2-2.6,2.6c-1.1,0.7-2.3,1.1-3.6,1.2c-1.3,0.1-2.5,0.1-3.7-0.1C760.2,163.9,759.1,163.7,757.9,163.4z"/>
		</g>
	</g>
	<g>
		<g>
			<path class="st32" d="M738.6,54.9c-1.1,0.7-2.4,1-3.6,1.2c-1.3,0.2-2.5,0.4-3.7,0.5c-1.2,0.1-2.4,0.3-3.6,0.5
				c-1.1,0.3-2.1,0.9-2.4,2.2c-0.1-0.6-0.1-1.4,0.4-2c0.4-0.6,1-1,1.6-1.3c1.2-0.6,2.5-0.8,3.8-0.9c1.3-0.1,2.5-0.2,3.8-0.2
				C736.1,55,737.3,55,738.6,54.9z"/>
		</g>
	</g>
	<g>
		<g>
			<path class="st32" d="M784.6,99.5c0.1,0.6-0.1,1.2-0.3,1.7c-0.2,0.5-0.5,1-0.9,1.5c-0.7,0.9-1.6,1.7-2.6,2.3
				c-1,0.6-2.1,1-3.3,1.1c-1.2,0.1-2.4-0.1-3.3-0.7c1.1-0.1,2.2-0.2,3.1-0.5c1-0.3,1.9-0.7,2.7-1.2c0.9-0.5,1.7-1.1,2.5-1.8
				C783.3,101.2,784.1,100.5,784.6,99.5z"/>
		</g>
	</g>
	<g>
		<g>
			<path class="st32" d="M728.2,123.3c0.6-0.6,1.4-1,2.3-1.1c0.8-0.1,1.5-0.2,2-0.4c0.5-0.3,1-0.7,1.5-1.3c0.5-0.5,1-1.1,1.7-1.7
				c-0.1,0.8-0.3,1.6-0.7,2.4c-0.4,0.7-1,1.5-1.8,1.9c-0.9,0.4-1.9,0.4-2.6,0.3C729.7,123.2,729,123.2,728.2,123.3z"/>
		</g>
	</g>
	<g>
		<g>
			<path class="st32" d="M843.3,146.3c0.6,2.3-0.1,4.8-1.5,6.8c-1.4,2-3.6,3.4-6,3.6c2-1.3,3.5-2.7,4.7-4.5
				C841.9,150.5,842.7,148.5,843.3,146.3z"/>
		</g>
	</g>
	<g>
		<g>
			<path class="st32" d="M977.8,124.7c0.3,1.1,0.3,2.1,0.4,3.2c0.1,1,0.2,2,0.4,2.9c0.2,0.9,0.6,1.7,1.2,2.5
				c0.6,0.7,1.5,1.3,2.4,1.8c-1.1,0-2.2-0.3-3.2-1c-1-0.7-1.6-1.8-1.9-2.9c-0.3-1.1-0.3-2.3-0.1-3.3
				C977.2,126.8,977.5,125.8,977.8,124.7z"/>
		</g>
	</g>
	<g>
		<path class="st31" d="M1006.1,112.2c-1.2,3.7-2.5,11.2,0,13.7c2.5,2.5-1.2,7.5,6.2,5c7.5-2.5,17.4-7.5,18.7-11.2
			c1.2-3.7,5-14.9-2.5-14.9C1021,104.7,1006.1,112.2,1006.1,112.2z"/>
	</g>
	<g>
		<path class="st31" d="M1066.1,58.8c-2.5,0-11.2,5-3.7,7.5c7.5,2.5,10,1.2,11.2,0s5-6.2,2.5-10c-2.5-3.7-5-2.5-7.5,0
			S1066.1,58.8,1066.1,58.8z"/>
	</g>
	<g>
		<path class="st31" d="M948.8,160.7c-3.7,1.2-17.4,2.5-13.7,8.7c3.7,6.2,6.2,11.2,8.7,11.2s10-2.5,10-2.5s-5-3.7-5-7.5
			S948.8,160.7,948.8,160.7z"/>
	</g>
	<g>
		<path class="st31" d="M1098.2,112.2c-4.7,9.4,14.9,8.7,18.7,8.7s14.9-3.7,14.9-3.7s-1.2-8.7-5-8.7S1101.9,104.7,1098.2,112.2z"/>
	</g>
	<g>
		<path class="st31" d="M1098.2,170.7c-5,0-7.5,3.7-6.2,6.2c1.2,2.5,13.7,10,17.4,8.7c3.7-1.2,12.4-6.2,10-11.2
			S1098.2,170.7,1098.2,170.7z"/>
	</g>
	<g>
		<path class="st31" d="M1153,123.4c-2.9,8.6-7.5,14.9,0,13.7c7.5-1.2,10-10,10-10S1155.5,115.9,1153,123.4z"/>
	</g>
	<g>
		<path class="st31" d="M1177.9,166.9c-1.2,7.5-6.2,11.2,2.5,8.7c8.7-2.5,13.7-17.4,7.5-17.4c-6.2,0-12.4,8.7-12.4,8.7H1177.9z"/>
	</g>
	<g>
		<path class="st31" d="M1200.4,122.2c-3.7,3.7-8.7,12.4-2.5,16.2s12.4,6.2,13.7,7.5c1.2,1.2,5-1.2,5-7.5s-12.4-21.2-17.4-18.7
			C1194.2,122.2,1200.4,122.2,1200.4,122.2z"/>
	</g>
	<g>
		<path class="st31" d="M889.1,137.1c4.2,8.5,18.7,11.2,18.7,11.2s12.4-8.7,6.2-13.7C907.7,129.6,886.6,132.1,889.1,137.1z"/>
	</g>
	<g>
		<path class="st31" d="M871.6,170.7c0,6.2-5,12.4-5,14.9c0,2.5-1.2,11.2,2.5,11.2c3.7,0,12.4-2.5,14.9-11.2
			C886.6,176.9,871.6,166.9,871.6,170.7z"/>
	</g>
	<g>
		<g>
			<path class="st32" d="M1011.2,128.5c3.5-2.2,7.2-4.1,10.8-5.9c0.9-0.5,1.8-0.9,2.7-1.4c0.4-0.3,0.8-0.4,1.1-0.8
				c0.3-0.3,0.5-0.7,0.8-1.2c0.9-1.8,1.7-3.7,2.5-5.6c-0.3,2.1-0.6,4.1-1.5,6.1c-0.2,0.5-0.4,1-0.8,1.5c-0.4,0.5-0.9,0.9-1.3,1.1
				c-0.9,0.6-1.8,1.1-2.7,1.5C1019,125.7,1015.2,127.3,1011.2,128.5z"/>
		</g>
	</g>
	<g>
		<g>
			<path class="st32" d="M900.5,144.1c1.6,0.5,2.9,0.6,4.4,0.6c0.7,0,1.4-0.2,2.2-0.2c0.7-0.1,1.5-0.3,2.4-0.3
				c-0.6,0.6-1.3,1.1-2,1.4c-0.8,0.3-1.6,0.6-2.4,0.6c-0.9,0-1.7-0.1-2.5-0.4C901.7,145.4,900.9,144.8,900.5,144.1z"/>
		</g>
	</g>
	<g>
		<g>
			<path class="st32" d="M872.3,193.1c1.1-0.1,2.1-0.3,2.9-0.7c0.8-0.4,1.6-1.1,2.2-1.8c1.4-1.4,2.5-3.2,3.7-4.9
				c-0.1,1.1-0.4,2.2-0.8,3.2c-0.4,1-1.1,2-1.8,2.8c-0.8,0.8-1.8,1.5-2.9,1.8C874.5,193.8,873.2,193.6,872.3,193.1z"/>
		</g>
	</g>
	<g>
		<g>
			<path class="st32" d="M939.1,170.8c-0.1,0.8,0.2,1.4,0.6,2c0.4,0.6,0.8,1.2,1.2,1.7c0.9,1.1,1.9,2.3,2.7,3.7
				c-1.6-0.5-2.8-1.5-3.9-2.8c-0.5-0.7-0.9-1.4-1.1-2.2C938.4,172.4,938.5,171.4,939.1,170.8z"/>
		</g>
	</g>
	<g>
		<g>
			<path class="st32" d="M1101.1,181.2c1.2-0.3,2.4-0.4,3.6-0.4c1.2,0,2.3-0.1,3.4-0.2c1.1-0.1,2.2-0.4,3.2-0.8c1-0.4,2.1-1,3.1-1.6
				c-0.6,1-1.5,2-2.6,2.6c-1.1,0.7-2.3,1.1-3.6,1.2c-1.3,0.1-2.5,0.1-3.7-0.1C1103.4,181.8,1102.3,181.5,1101.1,181.2z"/>
		</g>
	</g>
	<g>
		<g>
			<path class="st32" d="M1114.5,109.9c-1.1,0.7-2.4,1-3.6,1.2c-1.3,0.2-2.5,0.4-3.7,0.5c-1.2,0.1-2.4,0.3-3.6,0.5
				c-1.1,0.3-2.1,0.9-2.4,2.2c-0.1-0.6-0.1-1.4,0.4-2c0.4-0.6,1-1,1.6-1.3c1.2-0.6,2.5-0.8,3.8-0.9c1.3-0.1,2.5-0.2,3.8-0.2
				C1112,110,1113.2,110,1114.5,109.9z"/>
		</g>
	</g>
	<g>
		<g>
			<path class="st32" d="M1160.5,129.2c0.1,0.6-0.1,1.2-0.3,1.7c-0.2,0.5-0.5,1-0.9,1.5c-0.7,0.9-1.6,1.7-2.6,2.3
				c-1,0.6-2.1,1-3.3,1.1c-1.2,0.1-2.4-0.1-3.3-0.7c1.1-0.1,2.2-0.2,3.1-0.5c1-0.3,1.9-0.7,2.7-1.2c0.9-0.5,1.7-1.1,2.5-1.8
				C1159.2,130.9,1160.1,130.2,1160.5,129.2z"/>
		</g>
	</g>
	<g>
		<g>
			<path class="st32" d="M1065.4,65.3c0.6-0.6,1.4-1,2.3-1.1c0.8-0.1,1.5-0.2,2-0.4c0.5-0.3,1-0.7,1.5-1.3c0.5-0.5,1-1.1,1.7-1.7
				c-0.1,0.8-0.3,1.6-0.7,2.4c-0.4,0.7-1,1.5-1.8,1.9c-0.9,0.4-1.9,0.4-2.6,0.3C1067,65.3,1066.3,65.2,1065.4,65.3z"/>
		</g>
	</g>
	<g>
		<g>
			<path class="st32" d="M1186.5,164.1c0.6,2.3-0.1,4.8-1.5,6.8c-1.4,2-3.6,3.4-6,3.6c2-1.3,3.5-2.7,4.7-4.5
				C1185.1,168.3,1185.9,166.4,1186.5,164.1z"/>
		</g>
	</g>
	<g>
		<g>
			<path class="st32" d="M1199.2,127.7c0.3,1.1,0.3,2.1,0.4,3.2c0.1,1,0.2,2,0.4,2.9c0.2,0.9,0.6,1.7,1.2,2.5
				c0.6,0.7,1.5,1.3,2.4,1.8c-1.1,0-2.2-0.3-3.2-1c-1-0.7-1.6-1.8-1.9-2.9c-0.3-1.1-0.3-2.3-0.1-3.3
				C1198.6,129.8,1198.8,128.8,1199.2,127.7z"/>
		</g>
	</g>
	<g>
		<path class="st31" d="M827.8,89.9c-4.7,9.4,14.9,8.7,18.7,8.7c3.7,0,14.9-3.7,14.9-3.7s-1.2-8.7-5-8.7
			C852.7,86.1,831.5,82.4,827.8,89.9z"/>
	</g>
	<g>
		<path class="st31" d="M870.7,40.2c-2.9,8.6-7.5,14.9,0,13.7c7.5-1.2,10-10,10-10S873.2,32.7,870.7,40.2z"/>
	</g>
	<g>
		<path class="st31" d="M918.1,53.8c-3.7,3.7-8.7,12.4-2.5,16.2c6.2,3.7,12.4,6.2,13.7,7.5s5-1.2,5-7.5c0-6.2-12.4-21.2-17.4-18.7
			C911.9,53.8,918.1,53.8,918.1,53.8z"/>
	</g>
	<g>
		<g>
			<path class="st32" d="M844.1,87.6c-1.1,0.7-2.4,1-3.6,1.2c-1.3,0.2-2.5,0.4-3.7,0.5c-1.2,0.1-2.4,0.3-3.6,0.5
				c-1.1,0.3-2.1,0.9-2.4,2.2c-0.1-0.6-0.1-1.4,0.4-2c0.4-0.6,1-1,1.6-1.3c1.2-0.6,2.5-0.8,3.8-0.9c1.3-0.1,2.5-0.2,3.8-0.2
				C841.5,87.7,842.8,87.7,844.1,87.6z"/>
		</g>
	</g>
	<g>
		<g>
			<path class="st32" d="M878.2,46c0.1,0.6-0.1,1.2-0.3,1.7c-0.2,0.5-0.5,1-0.9,1.5c-0.7,0.9-1.6,1.7-2.6,2.3c-1,0.6-2.1,1-3.3,1.1
				c-1.2,0.1-2.4-0.1-3.3-0.7c1.1-0.1,2.2-0.2,3.1-0.5c1-0.3,1.9-0.7,2.7-1.2c0.9-0.5,1.7-1.1,2.5-1.8C876.9,47.7,877.8,47,878.2,46
				z"/>
		</g>
	</g>
	<g>
		<g>
			<path class="st32" d="M916.9,59.4c0.3,1.1,0.3,2.1,0.4,3.2c0.1,1,0.2,2,0.4,2.9c0.2,0.9,0.6,1.7,1.2,2.5c0.6,0.7,1.5,1.3,2.4,1.8
				c-1.1,0-2.2-0.3-3.2-1c-1-0.7-1.6-1.8-1.9-2.9c-0.3-1.1-0.3-2.3-0.1-3.3C916.3,61.4,916.5,60.4,916.9,59.4z"/>
		</g>
	</g>
	<g class="st26">
		<g>
			<path d="M623.4,194.2c-2.5,0-11.2,5-3.7,7.5c7.5,2.5,10,1.2,11.2,0c1.2-1.2,5-6.2,2.5-10s-5-2.5-7.5,0S623.4,194.2,623.4,194.2z"
				/>
		</g>
	</g>
	<g>
		<path class="st31" d="M624.8,194.2c-2.5,0-11.2,5-3.7,7.5c7.5,2.5,10,1.2,11.2,0c1.2-1.2,5-6.2,2.5-10s-5-2.5-7.5,0
			S624.8,194.2,624.8,194.2z"/>
	</g>
	<g class="st26">
		<g>
			<path d="M649.5,171.7c-4.7,9.4,14.9,8.7,18.7,8.7c3.7,0,14.9-3.7,14.9-3.7s-1.2-8.7-5-8.7S653.2,164.3,649.5,171.7z"/>
		</g>
	</g>
	<g>
		<path class="st31" d="M651,171.7c-4.7,9.4,14.9,8.7,18.7,8.7s14.9-3.7,14.9-3.7s-1.2-8.7-5-8.7C675.9,168,654.7,164.3,651,171.7z"
			/>
	</g>
	<g class="st26">
		<g>
			<path d="M649.5,230.3c-5,0-7.5,3.7-6.2,6.2c1.2,2.5,13.7,10,17.4,8.7c3.7-1.2,12.4-6.2,10-11.2
				C668.2,229,649.5,230.3,649.5,230.3z"/>
		</g>
	</g>
	<g>
		<path class="st31" d="M651,230.3c-5,0-7.5,3.7-6.2,6.2s13.7,10,17.4,8.7c3.7-1.2,12.4-6.2,10-11.2C669.7,229,651,230.3,651,230.3z
			"/>
	</g>
	<g class="st26">
		<g>
			<path d="M704.3,182.9c-2.9,8.6-7.5,14.9,0,13.7c7.5-1.2,10-10,10-10S706.8,175.5,704.3,182.9z"/>
		</g>
	</g>
	<g>
		<path class="st31" d="M705.8,182.9c-2.9,8.6-7.5,14.9,0,13.7c7.5-1.2,10-10,10-10S708.2,175.5,705.8,182.9z"/>
	</g>
	<g>
		<path class="st31" d="M730.7,226.5c-1.2,7.5-6.2,11.2,2.5,8.7c8.7-2.5,13.7-17.4,7.5-17.4c-6.2,0-12.4,8.7-12.4,8.7H730.7z"/>
	</g>
	<g>
		<path class="st31" d="M753.2,181.8c-3.7,3.7-8.7,12.4-2.5,16.2c6.2,3.7,12.4,6.2,13.7,7.5c1.2,1.2,5-1.2,5-7.5
			c0-6.2-12.4-21.2-17.4-18.7S753.2,181.8,753.2,181.8z"/>
	</g>
	<g>
		<g>
			<path class="st32" d="M653.9,240.8c1.2-0.3,2.4-0.4,3.6-0.4c1.2,0,2.3-0.1,3.4-0.2c1.1-0.1,2.2-0.4,3.2-0.8c1-0.4,2.1-1,3.1-1.6
				c-0.6,1-1.5,2-2.6,2.6c-1.1,0.7-2.3,1.1-3.6,1.2c-1.3,0.1-2.5,0.1-3.7-0.1C656.2,241.4,655.1,241.1,653.9,240.8z"/>
		</g>
	</g>
	<g>
		<g>
			<path class="st32" d="M667.2,169.5c-1.1,0.7-2.4,1-3.6,1.2c-1.3,0.2-2.5,0.4-3.7,0.5c-1.2,0.1-2.4,0.3-3.6,0.5
				c-1.1,0.3-2.1,0.9-2.4,2.2c-0.1-0.6-0.1-1.4,0.4-2c0.4-0.6,1-1,1.6-1.3c1.2-0.6,2.5-0.8,3.8-0.9c1.3-0.1,2.5-0.2,3.8-0.2
				C664.7,169.5,666,169.6,667.2,169.5z"/>
		</g>
	</g>
	<g>
		<g>
			<path class="st32" d="M713.3,188.8c0.1,0.6-0.1,1.2-0.3,1.7c-0.2,0.5-0.5,1-0.9,1.5c-0.7,0.9-1.6,1.7-2.6,2.3
				c-1,0.6-2.1,1-3.3,1.1c-1.2,0.1-2.4-0.1-3.3-0.7c1.1-0.1,2.2-0.2,3.1-0.5c1-0.3,1.9-0.7,2.7-1.2c0.9-0.5,1.7-1.1,2.5-1.8
				C712,190.5,712.8,189.8,713.3,188.8z"/>
		</g>
	</g>
	<g>
		<g>
			<path class="st32" d="M624.2,200.7c0.6-0.6,1.4-1,2.3-1.1c0.8-0.1,1.5-0.2,2-0.4c0.5-0.3,1-0.7,1.5-1.3c0.5-0.5,1-1.1,1.7-1.7
				c-0.1,0.8-0.3,1.6-0.7,2.4c-0.4,0.7-1,1.5-1.8,1.9c-0.9,0.4-1.9,0.4-2.6,0.3C625.7,200.7,625,200.6,624.2,200.7z"/>
		</g>
	</g>
	<g>
		<g>
			<path class="st32" d="M739.3,223.7c0.6,2.3-0.1,4.8-1.5,6.8c-1.4,2-3.6,3.4-6,3.6c2-1.3,3.5-2.7,4.7-4.5
				C737.9,227.9,738.7,226,739.3,223.7z"/>
		</g>
	</g>
	<g>
		<g>
			<path class="st32" d="M751.9,187.3c0.3,1.1,0.3,2.1,0.4,3.2c0.1,1,0.2,2,0.4,2.9c0.2,0.9,0.6,1.7,1.2,2.5
				c0.6,0.7,1.5,1.3,2.4,1.8c-1.1,0-2.2-0.3-3.2-1c-1-0.7-1.6-1.8-1.9-2.9c-0.3-1.1-0.3-2.3-0.1-3.3
				C751.3,189.4,751.6,188.3,751.9,187.3z"/>
		</g>
	</g>
	<g>
		<path class="st31" d="M1041.7,152.8c-5,0-7.5,3.7-6.2,6.2c1.2,2.5,13.7,10,17.4,8.7c3.7-1.2,12.4-6.2,10-11.2
			C1060.4,151.6,1041.7,152.8,1041.7,152.8z"/>
	</g>
	<g>
		<g>
			<path class="st32" d="M1044.6,163.4c1.2-0.3,2.4-0.4,3.6-0.4c1.2,0,2.3-0.1,3.4-0.2c1.1-0.1,2.2-0.4,3.2-0.8c1-0.4,2.1-1,3.1-1.6
				c-0.6,1-1.5,2-2.6,2.6c-1.1,0.7-2.3,1.1-3.6,1.2c-1.3,0.1-2.5,0.1-3.7-0.1C1047,163.9,1045.8,163.7,1044.6,163.4z"/>
		</g>
	</g>
	<g>
		<path class="st31" d="M1099.7,72.6c-5,0-7.5,3.7-6.2,6.2c1.2,2.5,13.7,10,17.4,8.7c3.7-1.2,12.4-6.2,10-11.2
			S1099.7,72.6,1099.7,72.6z"/>
	</g>
	<g>
		<g>
			<path class="st32" d="M1102.6,83.1c1.2-0.3,2.4-0.4,3.6-0.4c1.2,0,2.3-0.1,3.4-0.2c1.1-0.1,2.2-0.4,3.2-0.8c1-0.4,2.1-1,3.1-1.6
				c-0.6,1-1.5,2-2.6,2.6c-1.1,0.7-2.3,1.1-3.6,1.2c-1.3,0.1-2.5,0.1-3.7-0.1C1104.9,83.7,1103.8,83.4,1102.6,83.1z"/>
		</g>
	</g>
	<g>
		<path class="st31" d="M992.5,182.9c-2.9,8.6-7.5,14.9,0,13.7c7.5-1.2,10-10,10-10S995,175.5,992.5,182.9z"/>
	</g>
	<g>
		<path class="st31" d="M1017.4,226.5c-1.2,7.5-6.2,11.2,2.5,8.7c8.7-2.5,13.7-17.4,7.5-17.4c-6.2,0-12.4,8.7-12.4,8.7H1017.4z"/>
	</g>
	<g>
		<path class="st31" d="M1040,181.8c-3.7,3.7-8.7,12.4-2.5,16.2s12.4,6.2,13.7,7.5c1.2,1.2,5-1.2,5-7.5c0-6.2-12.4-21.2-17.4-18.7
			S1040,181.8,1040,181.8z"/>
	</g>
	<g>
		<g>
			<path class="st32" d="M1000.1,188.8c0.1,0.6-0.1,1.2-0.3,1.7c-0.2,0.5-0.5,1-0.9,1.5c-0.7,0.9-1.6,1.7-2.6,2.3
				c-1,0.6-2.1,1-3.3,1.1c-1.2,0.1-2.4-0.1-3.3-0.7c1.1-0.1,2.2-0.2,3.1-0.5c1-0.3,1.9-0.7,2.7-1.2c0.9-0.5,1.7-1.1,2.5-1.8
				C998.8,190.5,999.6,189.8,1000.1,188.8z"/>
		</g>
	</g>
	<g>
		<g>
			<path class="st32" d="M1026.1,223.7c0.6,2.3-0.1,4.8-1.5,6.8c-1.4,2-3.6,3.4-6,3.6c2-1.3,3.5-2.7,4.7-4.5
				C1024.6,227.9,1025.5,226,1026.1,223.7z"/>
		</g>
	</g>
	<g>
		<g>
			<path class="st32" d="M1038.7,187.3c0.3,1.1,0.3,2.1,0.4,3.2c0.1,1,0.2,2,0.4,2.9c0.2,0.9,0.6,1.7,1.2,2.5
				c0.6,0.7,1.5,1.3,2.4,1.8c-1.1,0-2.2-0.3-3.2-1c-1-0.7-1.6-1.8-1.9-2.9c-0.3-1.1-0.3-2.3-0.1-3.3
				C1038.1,189.4,1038.4,188.3,1038.7,187.3z"/>
		</g>
	</g>
</g>
<g class="st26">
	<g>
		<path d="M641.2,110.6c-3,4.5-3,10.4-1.5,10.4c1.5,0,10.4,0,10.4-4.5c0-4.5,0-5.9,0-5.9C650.2,107.7,641.2,110.6,641.2,110.6z"/>
	</g>
</g>
<g>
	<g>
		<path class="st33" d="M642.7,110.6c-3,4.5-3,10.4-1.5,10.4c1.5,0,10.4,0,10.4-4.5c0-4.5,0-5.9,0-5.9
			C651.6,107.7,642.7,110.6,642.7,110.6z"/>
	</g>
	<g>
		<path class="st34" d="M647.9,111.4c0.1-0.3,0.4-0.6,0.9-0.7c0.4-0.1,0.8,0.1,1.1,0.3c0.3,0.2,0.5,0.5,0.7,0.8
			c0.2,0.3,0.3,0.6,0.3,1c-0.6-0.4-1-0.9-1.4-1.2c-0.2-0.2-0.4-0.3-0.7-0.4C648.6,111.2,648.3,111.3,647.9,111.4z"/>
	</g>
</g>
<g class="st26">
	<g>
		<path d="M647.2,186.4c-4.5-14.9-8.9-8.9-8.9-8.9c-1.5,5.9-1.5,13.4,3,16.3C645.7,196.8,651.6,201.3,647.2,186.4z"/>
	</g>
</g>
<g>
	<g>
		<path class="st33" d="M639.8,177.5c-1.5,5.9-1.5,13.4,3,16.3c4.5,3,10.4,7.4,5.9-7.4C644.2,171.5,639.8,177.5,639.8,177.5z"/>
	</g>
	<g>
		<path class="st34" d="M640.5,178.2c0.3-0.3,0.7-0.6,1.2-0.7c0.5-0.1,1-0.1,1.5,0.1c0.5,0.2,0.9,0.5,1.2,0.8
			c0.3,0.4,0.5,0.8,0.6,1.2c-0.7-0.6-1.3-1.1-2-1.4C642.2,178,641.4,178.1,640.5,178.2z"/>
	</g>
</g>
<g class="st26">
	<g>
		<path d="M580.3,164.1c-9.2,3.9-8.9,7.4-8.9,11.9s7.4,8.9,10.4,3C584.8,173,590.7,159.7,580.3,164.1z"/>
	</g>
</g>
<g>
	<g>
		<path class="st33" d="M581.8,164.1c-9.2,3.9-8.9,7.4-8.9,11.9s7.4,8.9,10.4,3S592.2,159.7,581.8,164.1z"/>
	</g>
	<g>
		<path class="st34" d="M582.6,166.3c0.4-0.5,0.9-0.8,1.5-1c0.3-0.1,0.7-0.1,1,0.1c0.2,0.1,0.3,0.2,0.4,0.4c0.1,0.2,0.1,0.4,0,0.5
			c-0.2-0.3-0.4-0.3-0.6-0.3c-0.2,0-0.5,0-0.7,0.1l-0.8,0.2C583.2,166.3,582.9,166.4,582.6,166.3z"/>
	</g>
</g>
<g class="st26">
	<g>
		<path d="M578.8,122.5c-1.5,4.5,10.4,11.9,13.4,10.4c3-1.5,3-5.9,3-5.9C593.7,125.5,580.3,118.1,578.8,122.5z"/>
	</g>
</g>
<g>
	<g>
		<path class="st33" d="M596.7,127c-1.5-1.5-14.9-8.9-16.3-4.5c-1.5,4.5,10.4,11.9,13.4,10.4C596.7,131.4,596.7,127,596.7,127z"/>
	</g>
	<g>
		<path class="st34" d="M582.6,123.3c0.4-0.1,0.8-0.2,1.2-0.2c0.4,0,0.8,0.1,1.2,0.2c0.4,0.1,0.8,0.3,1.1,0.6
			c0.3,0.2,0.7,0.5,0.9,0.9c-0.8-0.3-1.5-0.6-2.2-0.8C584.1,123.7,583.3,123.5,582.6,123.3z"/>
	</g>
</g>
<g class="st26">
	<g>
		<path d="M538.7,137.4c-4.5,0-4.5,4.5-8.9,5.9c0,0,4.5,5.9,10.4,7.4s8.9-4.5,8.9-8.9S543.2,137.4,538.7,137.4z"/>
	</g>
</g>
<g>
	<g>
		<path class="st33" d="M531.3,143.3c4.5-1.5,4.5-5.9,8.9-5.9c4.5,0,10.4,0,10.4,4.5s-3,10.4-8.9,8.9S531.3,143.3,531.3,143.3z"/>
	</g>
	<g>
		<path class="st34" d="M545.4,139.6c0.3-0.1,0.6-0.2,0.9-0.2c0.3,0,0.6,0,1,0.1c0.3,0.1,0.6,0.3,0.8,0.6c0.2,0.3,0.4,0.7,0.2,1
			c-0.2-0.3-0.4-0.4-0.6-0.6c-0.2-0.1-0.4-0.2-0.7-0.3C546.6,140,546,139.9,545.4,139.6z"/>
	</g>
</g>
<g class="st26">
	<g>
		<path d="M556.5,179c-1.5-1.5-5.9-8.9-7.4-4.5c-2.1,6.3-5.9,13.4-3,17.8C549.1,196.8,558,180.5,556.5,179z"/>
	</g>
</g>
<g>
	<g>
		<path class="st33" d="M550.6,174.5c-2.1,6.3-5.9,13.4-3,17.8c3,4.5,11.9-11.9,10.4-13.4C556.5,177.5,552.1,170.1,550.6,174.5z"/>
	</g>
	<g>
		<path class="st34" d="M555.8,178.2c0.6,0.2,1.1,0.8,1,1.5c0,0.3-0.1,0.7-0.3,0.9c-0.2,0.3-0.4,0.5-0.7,0.6
			c0.2-0.6,0.3-1.1,0.3-1.5C556.1,179.3,556,178.8,555.8,178.2z"/>
	</g>
</g>
<g class="st26">
	<g>
		<path d="M657.1,153.7c-19.6-7.4-14,3-14,3c0,5.9,5.6,14.9,14,14.9C665.5,171.5,676.7,161.1,657.1,153.7z"/>
	</g>
</g>
<g>
	<g>
		<path class="st33" d="M644.6,156.7c0,5.9,5.6,14.9,14,14.9c8.4,0,19.6-10.4,0-17.8C639,146.3,644.6,156.7,644.6,156.7z"/>
	</g>
	<g>
		<path class="st34" d="M648.8,154.5c1.5-0.3,3-0.3,4.5-0.3c0.7,0.1,1.5,0.2,2.2,0.4c0.4,0.1,0.7,0.2,1.1,0.4
			c0.3,0.2,0.7,0.5,0.6,0.9c-0.1-0.4-0.5-0.5-0.8-0.6c-0.3-0.1-0.7-0.2-1-0.2c-0.7-0.1-1.4-0.1-2.2-0.2
			C651.7,154.8,650.2,154.7,648.8,154.5z"/>
	</g>
</g>
<g class="st26">
	<g>
		<path d="M711.1,109.1c-5.3-3-11.9-3-11.9,1.5s5.9,7.4,11.9,8.9C717,121,721.5,115.1,711.1,109.1z"/>
	</g>
</g>
<g>
	<g>
		<path class="st33" d="M712.6,109.1c-5.3-3-11.9-3-11.9,1.5s5.9,7.4,11.9,8.9S723,115.1,712.6,109.1z"/>
	</g>
	<g>
		<path class="st34" d="M704.4,108.4c1-0.3,2.1-0.2,3.2-0.1c0.5,0.1,1,0.2,1.5,0.5c0.5,0.2,1,0.6,1.2,1c-0.5-0.2-1-0.4-1.4-0.5
			c-0.5-0.1-1-0.2-1.5-0.3C706.4,108.9,705.4,108.7,704.4,108.4z"/>
	</g>
</g>
<g class="st26">
	<g>
		<path d="M730.4,158.2c-3,0-7.4,5.9-7.4,5.9c-3,4.5-4.5,7.4,0,7.4c4.5,0,10.4-3,10.4-5.9S733.4,158.2,730.4,158.2z"/>
	</g>
</g>
<g>
	<g>
		<path class="st33" d="M724.4,164.1c-3,4.5-4.5,7.4,0,7.4c4.5,0,10.4-3,10.4-5.9s0-7.4-3-7.4S724.4,164.1,724.4,164.1z"/>
	</g>
	<g>
		<path class="st34" d="M729.6,160.4c0.1-0.1,0.3-0.3,0.4-0.4c0.2-0.1,0.3-0.2,0.5-0.3c0.4-0.1,0.8-0.2,1.2,0c0.4,0.2,0.7,0.6,0.8,1
			c0.1,0.4,0.1,0.8,0,1.1c-0.3-0.7-0.6-1.3-1.1-1.4c-0.2-0.1-0.5-0.1-0.8-0.1C730.4,160.3,730,160.4,729.6,160.4z"/>
	</g>
</g>
<g class="st26">
	<g>
		<path d="M706.6,204.2c-4.5-3-11.9,0-11.9,1.5c0,6.6,7.4,13.4,11.9,10.4C711.1,213.1,711.1,207.2,706.6,204.2z"/>
	</g>
</g>
<g>
	<g>
		<path class="st33" d="M696.2,205.7c0,6.6,7.4,13.4,11.9,10.4c4.5-3,4.5-8.9,0-11.9C703.6,201.3,696.2,204.2,696.2,205.7z"/>
	</g>
	<g>
		<path class="st34" d="M704.4,205c0.6-0.3,1.3-0.1,1.8,0.2c0.5,0.3,1,0.7,1.2,1.3c-0.6-0.2-1.1-0.4-1.5-0.7
			C705.4,205.5,704.9,205.3,704.4,205z"/>
	</g>
</g>
<g class="st26">
	<g>
		<path d="M663.5,131.4c5.9,7.4,19.3,8.9,19.3,1.5C682.8,125.5,660.2,127.2,663.5,131.4z"/>
	</g>
</g>
<g>
	<g>
		<path class="st33" d="M665,131.4c-3.3-4.2,19.3-5.9,19.3,1.5C684.3,140.3,671,138.9,665,131.4z"/>
	</g>
	<g>
		<path class="st34" d="M678.4,129.9c0.9-0.3,2,0,2.8,0.6c0.4,0.3,0.8,0.6,1,1.1c0.3,0.4,0.5,0.8,0.6,1.3c-0.7-0.7-1.3-1.3-2.1-1.8
			c-0.3-0.3-0.7-0.5-1.1-0.7C679.3,130.2,678.8,130.1,678.4,129.9z"/>
	</g>
</g>
<g class="st26">
	<g>
		<path d="M804.7,63.1c-3,4.5-3,10.4-1.5,10.4c1.5,0,10.4,0,10.4-4.5s0-5.9,0-5.9C813.6,60.1,804.7,63.1,804.7,63.1z"/>
	</g>
</g>
<g>
	<g>
		<path class="st33" d="M806.2,63.1c-3,4.5-3,10.4-1.5,10.4c1.5,0,10.4,0,10.4-4.5s0-5.9,0-5.9C815.1,60.1,806.2,63.1,806.2,63.1z"
			/>
	</g>
	<g>
		<path class="st34" d="M811.4,63.8c0.1-0.3,0.4-0.6,0.9-0.7c0.4-0.1,0.8,0.1,1.1,0.3c0.3,0.2,0.5,0.5,0.7,0.8
			c0.2,0.3,0.3,0.6,0.3,1c-0.6-0.4-1-0.9-1.4-1.2c-0.2-0.2-0.4-0.3-0.7-0.4C812,63.6,811.7,63.7,811.4,63.8z"/>
	</g>
</g>
<g class="st26">
	<g>
		<path d="M786.8,222.1c-4.5-14.9-8.9-8.9-8.9-8.9c-1.5,5.9-1.5,13.4,3,16.3C785.4,232.5,791.3,236.9,786.8,222.1z"/>
	</g>
</g>
<g>
	<g>
		<path class="st33" d="M779.4,213.1c-1.5,5.9-1.5,13.4,3,16.3c4.5,3,10.4,7.4,5.9-7.4C783.9,207.2,779.4,213.1,779.4,213.1z"/>
	</g>
	<g>
		<path class="st34" d="M780.2,213.9c0.3-0.3,0.7-0.6,1.2-0.7c0.5-0.1,1-0.1,1.5,0.1c0.5,0.2,0.9,0.5,1.2,0.8
			c0.3,0.4,0.5,0.8,0.6,1.2c-0.7-0.6-1.3-1.1-2-1.4C781.9,213.7,781.1,213.8,780.2,213.9z"/>
	</g>
</g>
<g class="st26">
	<g>
		<path d="M831.4,205.7c-9.2,3.9-8.9,7.4-8.9,11.9s7.4,8.9,10.4,3S841.8,201.3,831.4,205.7z"/>
	</g>
	<g>
		<path d="M887.9,167.1c0-4.5-5.9-4.5-10.4-4.5c-4.5,0-4.5,4.5-8.9,5.9c0,0,4.5,5.9,10.4,7.4S887.9,171.5,887.9,167.1z"/>
	</g>
	<g>
		<path d="M895.3,204.2c-1.5-1.5-5.9-8.9-7.4-4.5c-2.1,6.3-5.9,13.4-3,17.8S896.8,205.7,895.3,204.2z"/>
	</g>
</g>
<g>
	<g>
		<path class="st33" d="M832.9,205.7c-9.2,3.9-8.9,7.4-8.9,11.9s7.4,8.9,10.4,3S843.3,201.3,832.9,205.7z"/>
	</g>
	<g>
		<path class="st34" d="M833.7,207.9c0.4-0.5,0.9-0.8,1.5-1c0.3-0.1,0.7-0.1,1,0.1c0.2,0.1,0.3,0.2,0.4,0.4c0.1,0.2,0.1,0.4,0,0.5
			c-0.2-0.3-0.4-0.3-0.6-0.3c-0.2,0-0.5,0-0.7,0.1l-0.8,0.2C834.3,207.9,834,208,833.7,207.9z"/>
	</g>
</g>
<g class="st26">
	<g>
		<path d="M798.7,113.6c-1.5,4.5,10.4,11.9,13.4,10.4s3-5.9,3-5.9C813.6,116.6,800.2,109.1,798.7,113.6z"/>
	</g>
	<g>
		<path d="M841.8,109.1c5.9,7.4,19.3,8.9,19.3,1.5C861.1,103.2,838.5,105,841.8,109.1z"/>
	</g>
</g>
<g>
	<g>
		<path class="st33" d="M816.6,118.1c-1.5-1.5-14.9-8.9-16.3-4.5c-1.5,4.5,10.4,11.9,13.4,10.4S816.6,118.1,816.6,118.1z"/>
	</g>
	<g>
		<path class="st34" d="M802.5,114.3c0.4-0.1,0.8-0.2,1.2-0.2c0.4,0,0.8,0.1,1.2,0.2c0.4,0.1,0.8,0.3,1.1,0.6
			c0.3,0.2,0.7,0.5,0.9,0.9c-0.8-0.3-1.5-0.6-2.2-0.8C804,114.8,803.2,114.6,802.5,114.3z"/>
	</g>
</g>
<g class="st26">
	<g>
		<path d="M758.6,128.5c-4.5,0-4.5,4.5-8.9,5.9c0,0,4.5,5.9,10.4,7.4s8.9-4.5,8.9-8.9C769,128.5,763.1,128.5,758.6,128.5z"/>
	</g>
</g>
<g>
	<g>
		<path class="st33" d="M751.2,134.4c4.5-1.5,4.5-5.9,8.9-5.9c4.5,0,10.4,0,10.4,4.5c0,4.5-3,10.4-8.9,8.9S751.2,134.4,751.2,134.4z
			"/>
	</g>
	<g>
		<path class="st34" d="M765.3,130.7c0.3-0.1,0.6-0.2,0.9-0.2c0.3,0,0.6,0,1,0.1c0.3,0.1,0.6,0.3,0.8,0.6c0.2,0.3,0.4,0.7,0.2,1
			c-0.2-0.3-0.4-0.4-0.6-0.6c-0.2-0.1-0.4-0.2-0.7-0.3C766.5,131.1,765.9,131,765.3,130.7z"/>
	</g>
</g>
<g class="st26">
	<g>
		<path d="M776.4,170.1c-1.5-1.5-5.9-8.9-7.4-4.5c-2.1,6.3-5.9,13.4-3,17.8S777.9,171.5,776.4,170.1z"/>
	</g>
</g>
<g>
	<g>
		<path class="st33" d="M770.5,165.6c-2.1,6.3-5.9,13.4-3,17.8s11.9-11.9,10.4-13.4C776.4,168.6,772,161.1,770.5,165.6z"/>
	</g>
	<g>
		<path class="st34" d="M775.7,169.3c0.6,0.2,1.1,0.8,1,1.5c0,0.3-0.1,0.7-0.3,0.9c-0.2,0.3-0.4,0.5-0.7,0.6
			c0.2-0.6,0.3-1.1,0.3-1.5C776,170.3,775.9,169.9,775.7,169.3z"/>
	</g>
</g>
<g class="st26">
	<g>
		<path d="M811,158.2c0,5.9,5.6,14.9,14,14.9c8.4,0,19.6-10.4,0-17.8C805.4,147.8,811,158.2,811,158.2z"/>
	</g>
	<g>
		<path d="M815.2,155.9c2.8,0,8.4,0,8.4,1.5"/>
	</g>
</g>
<g>
	<g>
		<path class="st33" d="M812.5,158.2c0,5.9,5.6,14.9,14,14.9c8.4,0,19.6-10.4,0-17.8C806.9,147.8,812.5,158.2,812.5,158.2z"/>
	</g>
	<g>
		<path class="st34" d="M816.7,155.9c1.5-0.3,3-0.3,4.5-0.3c0.7,0.1,1.5,0.2,2.2,0.4c0.4,0.1,0.7,0.2,1.1,0.4
			c0.3,0.2,0.7,0.5,0.6,0.9c-0.1-0.4-0.5-0.5-0.8-0.6c-0.3-0.1-0.7-0.2-1-0.2c-0.7-0.1-1.4-0.1-2.2-0.2
			C819.6,156.3,818.1,156.2,816.7,155.9z"/>
	</g>
</g>
<g class="st26">
	<g>
		<path d="M954.7,79.4c-5.3-3-11.9-3-11.9,1.5s5.9,7.4,11.9,8.9S965.1,85.4,954.7,79.4z"/>
	</g>
	<g>
		<path d="M997.8,95.8c-3,0-7.4,5.9-7.4,5.9c-3,4.5-4.5,7.4,0,7.4c4.5,0,10.4-3,10.4-5.9S1000.8,95.8,997.8,95.8z"/>
	</g>
	<g>
		<path d="M919.1,207.2c-4.5-3-11.9,0-11.9,1.5c0,6.6,7.4,13.4,11.9,10.4C923.5,216.1,923.5,210.2,919.1,207.2z"/>
	</g>
	<g>
		<path d="M1078.1,103.2c1.5,0,10.4,0,10.4-4.5s0-5.9,0-5.9c0-3-8.9,0-8.9,0C1076.6,97.3,1076.6,103.2,1078.1,103.2z"/>
	</g>
	<g>
		<path d="M1052.8,242.9c-1.5,5.9-1.5,13.4,3,16.3c4.5,3,10.4,7.4,5.9-7.4C1057.3,236.9,1052.8,242.9,1052.8,242.9z"/>
	</g>
	<g>
		<path d="M1119.7,238.4c-9.2,3.9-8.9,7.4-8.9,11.9s7.4,8.9,10.4,3C1124.1,247.3,1130.1,233.9,1119.7,238.4z"/>
	</g>
	<g>
		<path d="M1073.6,143.3c-1.5,4.5,10.4,11.9,13.4,10.4c3-1.5,3-5.9,3-5.9C1088.5,146.3,1075.1,138.9,1073.6,143.3z"/>
	</g>
	<g>
		<path d="M1020.1,156.7c-4.5,0-4.5,4.5-8.9,5.9c0,0,4.5,5.9,10.4,7.4s8.9-4.5,8.9-8.9S1024.6,156.7,1020.1,156.7z"/>
	</g>
	<g>
		<path d="M1057.3,193.8c-2.1,6.3-5.9,13.4-3,17.8c3,4.5,11.9-11.9,10.4-13.4S1058.8,189.4,1057.3,193.8z"/>
	</g>
	<g>
		<path d="M1142.9,180.5c-19.6-7.4-14,3-14,3c0,5.9,5.6,14.9,14,14.9S1162.6,187.9,1142.9,180.5z"/>
	</g>
	<g>
		<path d="M1142,137.4c0-7.4-22.7-5.7-19.3-1.5C1128.6,143.3,1142,144.8,1142,137.4z"/>
	</g>
	<g>
		<path d="M922.1,107.7c1.5,0,10.4,0,10.4-4.5s0-5.9,0-5.9c0-3-8.9,0-8.9,0C920.6,101.7,920.6,107.7,922.1,107.7z"/>
	</g>
	<g>
		<path d="M896.8,247.3c-1.5,5.9-1.5,13.4,3,16.3c4.5,3,10.4,7.4,5.9-7.4C901.3,241.4,896.8,247.3,896.8,247.3z"/>
	</g>
	<g>
		<path d="M963.7,242.9c-9.2,3.9-8.9,7.4-8.9,11.9c0,4.5,7.4,8.9,10.4,3C968.1,251.8,974.1,238.4,963.7,242.9z"/>
	</g>
	<g>
		<path d="M917.6,147.8c-1.5,4.5,10.4,11.9,13.4,10.4s3-5.9,3-5.9C932.5,150.7,919.1,143.3,917.6,147.8z"/>
	</g>
	<g>
		<path d="M981,187.9c-19.6-7.4-14,3-14,3c0,5.9,5.6,14.9,14,14.9C989.4,205.7,1000.6,195.3,981,187.9z"/>
	</g>
	<g>
		<path d="M1204.4,150.7c-4.5-3-11.9,0-11.9,1.5c0,6.6,7.4,13.4,11.9,10.4C1208.8,159.7,1208.8,153.7,1204.4,150.7z"/>
	</g>
	<g>
		<path d="M1248.9,186.4c-9.2,3.9-8.9,7.4-8.9,11.9c0,4.5,7.4,8.9,10.4,3C1253.4,195.3,1259.3,181.9,1248.9,186.4z"/>
	</g>
	<g>
		<path d="M1180.6,147.8c-1.5-1.5-5.9-8.9-7.4-4.5c-2.1,6.3-5.9,13.4-3,17.8C1173.2,165.6,1182.1,149.3,1180.6,147.8z"/>
	</g>
	<g>
		<path d="M1266.3,131.4c-19.6-7.4-14,3-14,3c0,5.9,5.6,14.9,14,14.9C1274.7,149.3,1285.9,138.9,1266.3,131.4z"/>
	</g>
	<g>
		<path d="M1142,216.1c-4.5-3-11.9,0-11.9,1.5c0,6.6,7.4,13.4,11.9,10.4S1146.4,219.1,1142,216.1z"/>
	</g>
	<g>
		<path d="M1299.5,177.5c-9.2,3.9-8.9,7.4-8.9,11.9s7.4,8.9,10.4,3C1303.9,186.4,1309.9,173,1299.5,177.5z"/>
	</g>
	<g>
		<path d="M1118.2,213.1c-1.5-1.5-5.9-8.9-7.4-4.5c-2.1,6.3-5.9,13.4-3,17.8C1110.8,231,1119.7,214.6,1118.2,213.1z"/>
	</g>
	<g>
		<path d="M1192,207.2c-19.6-7.4-14,3-14,3c0,5.9,5.6,14.9,14,14.9S1211.6,214.6,1192,207.2z"/>
	</g>
	<g>
		<path d="M960.7,143.3c5.9,7.4,19.3,8.9,19.3,1.5S957.3,139.1,960.7,143.3z"/>
	</g>
</g>
<g>
	<g>
		<path class="st33" d="M956.2,79.4c-5.3-3-11.9-3-11.9,1.5s5.9,7.4,11.9,8.9S966.6,85.4,956.2,79.4z"/>
	</g>
	<g>
		<path class="st34" d="M948.1,78.7c1-0.3,2.1-0.2,3.2-0.1c0.5,0.1,1,0.2,1.5,0.5c0.5,0.2,1,0.6,1.2,1c-0.5-0.2-1-0.4-1.4-0.5
			c-0.5-0.1-1-0.2-1.5-0.3C950.1,79.1,949.1,79,948.1,78.7z"/>
	</g>
</g>
<g>
	<g>
		<path class="st33" d="M991.9,101.7c-3,4.5-4.5,7.4,0,7.4c4.5,0,10.4-3,10.4-5.9s0-7.4-3-7.4S991.9,101.7,991.9,101.7z"/>
	</g>
	<g>
		<path class="st34" d="M997.1,98c0.1-0.1,0.3-0.3,0.4-0.4c0.2-0.1,0.3-0.2,0.5-0.3c0.4-0.1,0.8-0.2,1.2,0c0.4,0.2,0.7,0.6,0.8,1
			c0.1,0.4,0.1,0.8,0,1.1c-0.3-0.7-0.6-1.3-1.1-1.4c-0.2-0.1-0.5-0.1-0.8-0.1C997.8,97.9,997.5,98,997.1,98z"/>
	</g>
</g>
<g>
	<g>
		<path class="st33" d="M908.7,208.7c0,6.6,7.4,13.4,11.9,10.4c4.5-3,4.5-8.9,0-11.9C916.1,204.2,908.7,207.2,908.7,208.7z"/>
	</g>
	<g>
		<path class="st34" d="M916.9,207.9c0.6-0.3,1.3-0.1,1.8,0.2c0.5,0.3,1,0.7,1.2,1.3c-0.6-0.2-1.1-0.4-1.5-0.7
			C917.8,208.5,917.4,208.2,916.9,207.9z"/>
	</g>
</g>
<g>
	<g>
		<path class="st33" d="M843.3,109.1c-3.3-4.2,19.3-5.9,19.3,1.5C862.6,118.1,849.3,116.6,843.3,109.1z"/>
	</g>
	<g>
		<path class="st34" d="M856.7,107.7c0.9-0.3,2,0,2.8,0.6c0.4,0.3,0.8,0.6,1,1.1c0.3,0.4,0.5,0.8,0.6,1.3c-0.7-0.7-1.3-1.3-2.1-1.8
			c-0.3-0.3-0.7-0.5-1.1-0.7C857.6,107.9,857.1,107.8,856.7,107.7z"/>
	</g>
</g>
<g>
	<g>
		<path class="st33" d="M1081,92.8c-3,4.5-3,10.4-1.5,10.4c1.5,0,10.4,0,10.4-4.5s0-5.9,0-5.9C1090,89.8,1081,92.8,1081,92.8z"/>
	</g>
	<g>
		<path class="st34" d="M1086.2,93.5c0.1-0.3,0.4-0.6,0.9-0.7c0.4-0.1,0.8,0.1,1.1,0.3c0.3,0.2,0.5,0.5,0.7,0.8
			c0.2,0.3,0.3,0.6,0.3,1c-0.6-0.4-1-0.9-1.4-1.2c-0.2-0.2-0.4-0.3-0.7-0.4C1086.9,93.4,1086.6,93.4,1086.2,93.5z"/>
	</g>
</g>
<g>
	<g>
		<path class="st33" d="M1054.3,242.9c-1.5,5.9-1.5,13.4,3,16.3s10.4,7.4,5.9-7.4C1058.8,236.9,1054.3,242.9,1054.3,242.9z"/>
	</g>
	<g>
		<path class="st34" d="M1055,243.6c0.3-0.3,0.7-0.6,1.2-0.7c0.5-0.1,1-0.1,1.5,0.1c0.5,0.2,0.9,0.5,1.2,0.8
			c0.3,0.4,0.5,0.8,0.6,1.2c-0.7-0.6-1.3-1.1-2-1.4C1056.7,243.4,1056,243.5,1055,243.6z"/>
	</g>
</g>
<g>
	<g>
		<path class="st33" d="M1121.2,238.4c-9.2,3.9-8.9,7.4-8.9,11.9s7.4,8.9,10.4,3C1125.6,247.3,1131.6,233.9,1121.2,238.4z"/>
	</g>
	<g>
		<path class="st34" d="M1121.9,240.6c0.4-0.5,0.9-0.8,1.5-1c0.3-0.1,0.7-0.1,1,0.1c0.2,0.1,0.3,0.2,0.4,0.4c0.1,0.2,0.1,0.4,0,0.5
			c-0.2-0.3-0.4-0.3-0.6-0.3c-0.2,0-0.5,0-0.7,0.1l-0.8,0.2C1122.5,240.6,1122.2,240.7,1121.9,240.6z"/>
	</g>
</g>
<g>
	<g>
		<path class="st33" d="M1091.4,147.8c-1.5-1.5-14.9-8.9-16.3-4.5s10.4,11.9,13.4,10.4C1091.4,152.2,1091.4,147.8,1091.4,147.8z"/>
	</g>
	<g>
		<path class="st34" d="M1077.3,144.1c0.4-0.1,0.8-0.2,1.2-0.2c0.4,0,0.8,0.1,1.2,0.2c0.4,0.1,0.8,0.3,1.1,0.6
			c0.3,0.2,0.7,0.5,0.9,0.9c-0.8-0.3-1.5-0.6-2.2-0.8C1078.9,144.5,1078.1,144.3,1077.3,144.1z"/>
	</g>
</g>
<g>
	<g>
		<path class="st33" d="M1012.7,162.6c4.5-1.5,4.5-5.9,8.9-5.9s10.4,0,10.4,4.5s-3,10.4-8.9,8.9S1012.7,162.6,1012.7,162.6z"/>
	</g>
	<g>
		<path class="st34" d="M1026.8,158.9c0.3-0.1,0.6-0.2,0.9-0.2c0.3,0,0.6,0,1,0.1c0.3,0.1,0.6,0.3,0.8,0.6c0.2,0.3,0.4,0.7,0.2,1
			c-0.2-0.3-0.4-0.4-0.6-0.6c-0.2-0.1-0.4-0.2-0.7-0.3C1028,159.3,1027.4,159.2,1026.8,158.9z"/>
	</g>
</g>
<g>
	<g>
		<path class="st33" d="M1058.8,193.8c-2.1,6.3-5.9,13.4-3,17.8c3,4.5,11.9-11.9,10.4-13.4C1064.7,196.8,1060.2,189.4,1058.8,193.8z
			"/>
	</g>
	<g>
		<path class="st34" d="M1064,197.5c0.6,0.2,1.1,0.8,1,1.5c0,0.3-0.1,0.7-0.3,0.9c-0.2,0.3-0.4,0.5-0.7,0.6c0.2-0.6,0.3-1.1,0.3-1.5
			C1064.3,198.6,1064.1,198.2,1064,197.5z"/>
	</g>
</g>
<g>
	<g>
		<path class="st33" d="M1130.4,183.4c0,5.9,5.6,14.9,14,14.9s19.6-10.4,0-17.8S1130.4,183.4,1130.4,183.4z"/>
	</g>
	<g>
		<path class="st34" d="M1134.6,181.2c1.5-0.3,3-0.3,4.5-0.3c0.7,0.1,1.5,0.2,2.2,0.4c0.4,0.1,0.7,0.2,1.1,0.4
			c0.3,0.2,0.7,0.5,0.6,0.9c-0.1-0.4-0.5-0.5-0.8-0.6c-0.3-0.1-0.7-0.2-1-0.2c-0.7-0.1-1.4-0.1-2.2-0.2
			C1137.6,181.6,1136.1,181.5,1134.6,181.2z"/>
	</g>
</g>
<g>
	<g>
		<path class="st33" d="M1124.1,135.9c-3.3-4.2,19.3-5.9,19.3,1.5C1143.4,144.8,1130.1,143.3,1124.1,135.9z"/>
	</g>
	<g>
		<path class="st34" d="M1137.5,134.4c0.9-0.3,2,0,2.8,0.6c0.4,0.3,0.8,0.6,1,1.1c0.3,0.4,0.5,0.8,0.6,1.3c-0.7-0.7-1.3-1.3-2.1-1.8
			c-0.3-0.3-0.7-0.5-1.1-0.7C1138.4,134.7,1138,134.6,1137.5,134.4z"/>
	</g>
</g>
<g>
	<g>
		<path class="st33" d="M925,97.3c-3,4.5-3,10.4-1.5,10.4c1.5,0,10.4,0,10.4-4.5s0-5.9,0-5.9C933.9,94.3,925,97.3,925,97.3z"/>
	</g>
	<g>
		<path class="st34" d="M930.2,98c0.1-0.3,0.4-0.6,0.9-0.7c0.4-0.1,0.8,0.1,1.1,0.3c0.3,0.2,0.5,0.5,0.7,0.8c0.2,0.3,0.3,0.6,0.3,1
			c-0.6-0.4-1-0.9-1.4-1.2c-0.2-0.2-0.4-0.3-0.7-0.4C930.9,97.8,930.6,97.9,930.2,98z"/>
	</g>
</g>
<g>
	<g>
		<path class="st33" d="M898.3,247.3c-1.5,5.9-1.5,13.4,3,16.3c4.5,3,10.4,7.4,5.9-7.4C902.7,241.4,898.3,247.3,898.3,247.3z"/>
	</g>
	<g>
		<path class="st34" d="M899,248.1c0.3-0.3,0.7-0.6,1.2-0.7c0.5-0.1,1-0.1,1.5,0.1c0.5,0.2,0.9,0.5,1.2,0.8c0.3,0.4,0.5,0.8,0.6,1.2
			c-0.7-0.6-1.3-1.1-2-1.4C900.7,247.9,899.9,247.9,899,248.1z"/>
	</g>
</g>
<g>
	<g>
		<path class="st33" d="M965.1,242.9c-9.2,3.9-8.9,7.4-8.9,11.9c0,4.5,7.4,8.9,10.4,3C969.6,251.8,975.5,238.4,965.1,242.9z"/>
	</g>
	<g>
		<path class="st34" d="M965.9,245.1c0.4-0.5,0.9-0.8,1.5-1c0.3-0.1,0.7-0.1,1,0.1c0.2,0.1,0.3,0.2,0.4,0.4c0.1,0.2,0.1,0.4,0,0.5
			c-0.2-0.3-0.4-0.3-0.6-0.3c-0.2,0-0.5,0-0.7,0.1l-0.8,0.2C966.5,245,966.2,245.1,965.9,245.1z"/>
	</g>
</g>
<g>
	<g>
		<path class="st33" d="M935.4,152.2c-1.5-1.5-14.9-8.9-16.3-4.5c-1.5,4.5,10.4,11.9,13.4,10.4S935.4,152.2,935.4,152.2z"/>
	</g>
	<g>
		<path class="st34" d="M921.3,148.5c0.4-0.1,0.8-0.2,1.2-0.2c0.4,0,0.8,0.1,1.2,0.2c0.4,0.1,0.8,0.3,1.1,0.6
			c0.3,0.2,0.7,0.5,0.9,0.9c-0.8-0.3-1.5-0.6-2.2-0.8C922.8,149,922.1,148.8,921.3,148.5z"/>
	</g>
</g>
<g>
	<g>
		<path class="st33" d="M870.1,168.6c4.5-1.5,4.5-5.9,8.9-5.9c4.5,0,10.4,0,10.4,4.5s-3,10.4-8.9,8.9S870.1,168.6,870.1,168.6z"/>
	</g>
	<g>
		<path class="st34" d="M884.2,164.9c0.3-0.1,0.6-0.2,0.9-0.2c0.3,0,0.6,0,1,0.1c0.3,0.1,0.6,0.3,0.8,0.6c0.2,0.3,0.4,0.7,0.2,1
			c-0.2-0.3-0.4-0.4-0.6-0.6c-0.2-0.1-0.4-0.2-0.7-0.3C885.3,165.3,884.8,165.2,884.2,164.9z"/>
	</g>
</g>
<g>
	<g>
		<path class="st33" d="M889.4,199.8c-2.1,6.3-5.9,13.4-3,17.8s11.9-11.9,10.4-13.4C895.3,202.7,890.9,195.3,889.4,199.8z"/>
	</g>
	<g>
		<path class="st34" d="M894.6,203.5c0.6,0.2,1.1,0.8,1,1.5c0,0.3-0.1,0.7-0.3,0.9c-0.2,0.3-0.4,0.5-0.7,0.6
			c0.2-0.6,0.3-1.1,0.3-1.5C894.9,204.5,894.8,204.1,894.6,203.5z"/>
	</g>
</g>
<g>
	<g>
		<path class="st33" d="M968.5,190.9c0,5.9,5.6,14.9,14,14.9c8.4,0,19.6-10.4,0-17.8S968.5,190.9,968.5,190.9z"/>
	</g>
	<g>
		<path class="st34" d="M972.7,188.6c1.5-0.3,3-0.3,4.5-0.3c0.7,0.1,1.5,0.2,2.2,0.4c0.4,0.1,0.7,0.2,1.1,0.4
			c0.3,0.2,0.7,0.5,0.6,0.9c-0.1-0.4-0.5-0.5-0.8-0.6c-0.3-0.1-0.7-0.2-1-0.2c-0.7-0.1-1.4-0.1-2.2-0.2
			C975.6,189,974.1,188.9,972.7,188.6z"/>
	</g>
</g>
<g>
	<g>
		<path class="st33" d="M1194,152.2c0,6.6,7.4,13.4,11.9,10.4c4.5-3,4.5-8.9,0-11.9C1201.4,147.8,1194,150.7,1194,152.2z"/>
	</g>
	<g>
		<path class="st34" d="M1202.1,151.5c0.6-0.3,1.3-0.1,1.8,0.2c0.5,0.3,1,0.7,1.2,1.3c-0.6-0.2-1.1-0.4-1.5-0.7
			C1203.1,152,1202.7,151.8,1202.1,151.5z"/>
	</g>
</g>
<g>
	<g>
		<path class="st33" d="M1250.4,186.4c-9.2,3.9-8.9,7.4-8.9,11.9c0,4.5,7.4,8.9,10.4,3C1254.9,195.3,1260.8,181.9,1250.4,186.4z"/>
	</g>
	<g>
		<path class="st34" d="M1251.2,188.6c0.4-0.5,0.9-0.8,1.5-1c0.3-0.1,0.7-0.1,1,0.1c0.2,0.1,0.3,0.2,0.4,0.4c0.1,0.2,0.1,0.4,0,0.5
			c-0.2-0.3-0.4-0.3-0.6-0.3c-0.2,0-0.5,0-0.7,0.1l-0.8,0.2C1251.8,188.6,1251.5,188.7,1251.2,188.6z"/>
	</g>
</g>
<g>
	<g>
		<path class="st33" d="M1174.6,143.3c-2.1,6.3-5.9,13.4-3,17.8c3,4.5,11.9-11.9,10.4-13.4C1180.6,146.3,1176.1,138.9,1174.6,143.3z
			"/>
	</g>
	<g>
		<path class="st34" d="M1179.8,147c0.6,0.2,1.1,0.8,1,1.5c0,0.3-0.1,0.7-0.3,0.9c-0.2,0.3-0.4,0.5-0.7,0.6c0.2-0.6,0.3-1.1,0.3-1.5
			C1180.2,148.1,1180,147.6,1179.8,147z"/>
	</g>
</g>
<g>
	<g>
		<path class="st33" d="M1253.7,134.4c0,5.9,5.6,14.9,14,14.9c8.4,0,19.6-10.4,0-17.8C1248.1,124,1253.7,134.4,1253.7,134.4z"/>
	</g>
	<g>
		<path class="st34" d="M1257.9,132.2c1.5-0.3,3-0.3,4.5-0.3c0.7,0.1,1.5,0.2,2.2,0.4c0.4,0.1,0.7,0.2,1.1,0.4
			c0.3,0.2,0.7,0.5,0.6,0.9c-0.1-0.4-0.5-0.5-0.8-0.6c-0.3-0.1-0.7-0.2-1-0.2c-0.7-0.1-1.4-0.1-2.2-0.2
			C1260.9,132.5,1259.4,132.5,1257.9,132.2z"/>
	</g>
</g>
<g>
	<g>
		<path class="st33" d="M1131.6,217.6c0,6.6,7.4,13.4,11.9,10.4s4.5-8.9,0-11.9S1131.6,216.1,1131.6,217.6z"/>
	</g>
	<g>
		<path class="st34" d="M1139.7,216.9c0.6-0.3,1.3-0.1,1.8,0.2c0.5,0.3,1,0.7,1.2,1.3c-0.6-0.2-1.1-0.4-1.5-0.7
			C1140.7,217.4,1140.3,217.2,1139.7,216.9z"/>
	</g>
</g>
<g>
	<g>
		<path class="st33" d="M1300.9,177.5c-9.2,3.9-8.9,7.4-8.9,11.9s7.4,8.9,10.4,3C1305.4,186.4,1311.3,173,1300.9,177.5z"/>
	</g>
	<g>
		<path class="st34" d="M1301.7,179.7c0.4-0.5,0.9-0.8,1.5-1c0.3-0.1,0.7-0.1,1,0.1c0.2,0.1,0.3,0.2,0.4,0.4c0.1,0.2,0.1,0.4,0,0.5
			c-0.2-0.3-0.4-0.3-0.6-0.3c-0.2,0-0.5,0-0.7,0.1l-0.8,0.2C1302.3,179.7,1302,179.7,1301.7,179.7z"/>
	</g>
</g>
<g>
	<g>
		<path class="st33" d="M1112.2,208.7c-2.1,6.3-5.9,13.4-3,17.8c3,4.5,11.9-11.9,10.4-13.4S1113.7,204.2,1112.2,208.7z"/>
	</g>
	<g>
		<path class="st34" d="M1117.4,212.4c0.6,0.2,1.1,0.8,1,1.5c0,0.3-0.1,0.7-0.3,0.9c-0.2,0.3-0.4,0.5-0.7,0.6
			c0.2-0.6,0.3-1.1,0.3-1.5C1117.8,213.4,1117.6,213,1117.4,212.4z"/>
	</g>
</g>
<g>
	<g>
		<path class="st33" d="M1179.5,210.2c0,5.9,5.6,14.9,14,14.9s19.6-10.4,0-17.8S1179.5,210.2,1179.5,210.2z"/>
	</g>
	<g>
		<path class="st34" d="M1183.7,207.9c1.5-0.3,3-0.3,4.5-0.3c0.7,0.1,1.5,0.2,2.2,0.4c0.4,0.1,0.7,0.2,1.1,0.4
			c0.3,0.2,0.7,0.5,0.6,0.9c-0.1-0.4-0.5-0.5-0.8-0.6c-0.3-0.1-0.7-0.2-1-0.2c-0.7-0.1-1.4-0.1-2.2-0.2
			C1186.6,208.3,1185.1,208.2,1183.7,207.9z"/>
	</g>
</g>
<g>
	<g>
		<path class="st33" d="M962.2,143.3c-3.3-4.2,19.3-5.9,19.3,1.5S968.1,150.7,962.2,143.3z"/>
	</g>
	<g>
		<path class="st34" d="M975.5,141.8c0.9-0.3,2,0,2.8,0.6c0.4,0.3,0.8,0.6,1,1.1c0.3,0.4,0.5,0.8,0.6,1.3c-0.7-0.7-1.3-1.3-2.1-1.8
			c-0.3-0.3-0.7-0.5-1.1-0.7C976.4,142.1,976,142,975.5,141.8z"/>
	</g>
</g>
</svg>