<svg version="1.1" xmlns="http://www.w3.org/2000/svg" xmlns:xlink="http://www.w3.org/1999/xlink" x="0px" y="0px" width="800.5px"
	 height="246.8px" viewBox="0 0 800.5 246.8" style="overflow:visible;enable-background:new 0 0 800.5 246.8;"
	 xml:space="preserve">
<style type="text/css">
	.st0{fill:#D51324;}
	.st1{fill:url(#SVGID_1_);}
	.st2{fill:url(#SVGID_2_);}
	.st3{fill:#FFBD23;stroke:#B17B3B;stroke-width:0.5;stroke-miterlimit:10;}
	.st4{fill:#1D1D1B;}
	.st5{fill:#FFBC25;stroke:#B17B3A;stroke-width:0.25;stroke-miterlimit:10;}
	.st6{fill:#FFFFFF;}
	.st7{fill:url(#SVGID_3_);}
	.st8{fill:url(#SVGID_4_);}
</style>
<defs>
</defs>
<g>
	<g>
		<path class="st0" d="M655.4,236.8c0,0.1-0.1,0.1-0.4,0.2c-0.5,0.1-1.7,0.1-3.6,0.1c-1.7,0-2.8,0-3.4-0.1c-0.3,0-0.4-0.1-0.5-0.1
			c-0.1,0-0.2-0.2-0.3-0.4c-0.2-0.5-0.5-1.2-0.8-2.1c-0.5-1.2-1.3-3-2.3-5.4c-0.2-0.5-0.8-0.7-1.6-0.8c0.4,0-0.3,0-2,0
			c-0.2,0-0.3,0.3-0.3,0.9c0,0.8,0.1,2.1,0.2,3.7c0.2,1.6,0.2,2.9,0.2,3.7c0,0.2-0.1,0.3-0.2,0.4c-0.2,0-0.4,0-0.5,0
			c-0.7,0-1.9,0.1-3.5,0.1c-1.8,0-2.9,0-3.3-0.1c-0.4-0.1-0.5-0.3-0.5-0.6c0-1.3,0.1-3.3,0.2-6c0.1-2.7,0.2-4.7,0.2-6.1
			c0-5.1-0.1-9.1-0.4-12l0-0.3c0-0.2,0.2-0.3,0.6-0.4c0.4-0.1,2.3-0.1,5.8-0.2c2.3,0,4.2-0.1,5.6-0.1c2.9,0,5.2,0.6,7,1.9
			c2.1,1.4,3.1,3.4,3.1,6.1c0,1.8-0.3,3.2-0.8,4.2c-0.5,1.1-1.5,2.1-2.9,3.1c-0.3,0.2-0.4,0.4-0.4,0.5c0,0,0.8,1.5,2.3,4.6
			C654.7,234.8,655.4,236.5,655.4,236.8z M647.5,220.5c0-1.5-0.5-2.5-1.5-3.1c-0.8-0.4-2-0.7-3.7-0.7c-1.2,0-1.8,0.2-1.9,0.5
			c-0.1,0.4-0.1,1.6-0.1,3.6c0,0.3,0,0.7,0,1.2c0,0.5,0,1,0,1.2c0,0.1,0.2,0.1,0.6,0.2c0.8,0.1,1.6,0.2,2.4,0.2
			C646.1,223.6,647.5,222.6,647.5,220.5z"/>
	</g>
	<g>
		<path class="st0" d="M644.1,246.8c-12.5,0-22.6-10.2-22.6-22.6c0-12.5,10.2-22.6,22.6-22.6s22.6,10.2,22.6,22.6
			C666.8,236.7,656.6,246.8,644.1,246.8z M644.1,205.3c-10.4,0-18.9,8.5-18.9,18.9c0,10.4,8.5,18.9,18.9,18.9s18.9-8.5,18.9-18.9
			C663.1,213.8,654.6,205.3,644.1,205.3z"/>
	</g>
</g>
<linearGradient id="SVGID_1_" gradientUnits="userSpaceOnUse" x1="398.9913" y1="137.3272" x2="399.8684" y2="48.121">
	<stop  offset="1.302160e-02" style="stop-color:#D51324"/>
	<stop  offset="0.2805" style="stop-color:#D21323"/>
	<stop  offset="0.5132" style="stop-color:#C71322"/>
	<stop  offset="0.7329" style="stop-color:#B5121F"/>
	<stop  offset="0.9436" style="stop-color:#9C111B"/>
	<stop  offset="1" style="stop-color:#94111A"/>
</linearGradient>
<path class="st1" d="M784.1,82.2c-4.2-16.9-10.2-29.6-23.9-33.5c-34.6-9.8-79-2-79-2S534.7,71.4,404.6,73.8
	C269.5,76.2,108.8,47.4,64.9,38.5C31,31.6,27.7,44.5,15,78.1c-5,35.6-2.2,69,8.3,106.2c4.1,14.7,19.4,22.9,33.5,18
	c212.2-73.9,472.8-72,685.3-0.4c14.1,4.7,29.2-3.6,33.3-18.2C785.4,147.9,788.2,115.9,784.1,82.2z"/>
<linearGradient id="SVGID_2_" gradientUnits="userSpaceOnUse" x1="399.5263" y1="84.4162" x2="399.5263" y2="3.3946">
	<stop  offset="0" style="stop-color:#A31122"/>
	<stop  offset="0.844" style="stop-color:#891419"/>
</linearGradient>
<path class="st2" d="M64.9,38.5c43.9,8.9,204.6,37.7,339.7,35.3c130.1-2.3,276.5-27.1,276.5-27.1s44.4-7.8,79,2
	c13.8,3.9,19.7,16.6,23.9,33.5c-1.6-12.9-4.2-26-7.8-39.7c-3.8-14.2-17.9-22.6-31.8-19.1C517,82,281.7,82.1,54.3,22.9
	c-13.9-3.6-28,4.8-31.9,19c-3.3,12.4-5.8,24.4-7.5,36.2C27.7,44.5,31,31.6,64.9,38.5z"/>
<path class="st3" d="M779.7,16.9C774.2,3.4,759.3-3.1,746,2C642.1,41.8,525.1,56.3,407.8,57.4C285.5,58.5,162.9,44.6,54.6,2.2
	C41.2-3,26.2,3.5,20.7,17.1C-6.5,84.4-6.4,139.9,20.1,206.6c5.6,14.1,21.5,20.6,35,14.4c102-46.8,227.1-66.1,351.8-64.9
	c120.2,1.1,240.1,21,338.6,65.2c13.5,6.1,29.2-0.5,34.8-14.5C807.1,139.5,806.9,83.8,779.7,16.9z M775.4,183.6
	c-4.1,14.6-19.2,22.9-33.3,18.2c-212.5-71.6-473.1-73.5-685.3,0.4c-14.1,4.9-29.4-3.3-33.5-18C12.8,147.1,10,113.7,15,78.1
	c1.6-11.7,4.1-23.7,7.5-36.2c3.8-14.2,18-22.6,31.9-19C281.7,82.1,517,82,744.5,23.4c13.9-3.6,28,4.9,31.8,19.1
	c3.6,13.7,6.2,26.8,7.8,39.7C788.2,115.9,785.4,147.9,775.4,183.6z"/>
<g>
	<path class="st4" d="M69.7,61.1c2.8-0.5,6.7-0.4,11.7,0.2c7.1,0.8,12.2,2.1,15.3,3.8c7,4.1,11.7,10.7,14.8,20
		c1,2.7,1.9,6.1,2.7,10.2c0.9,4.1,1.4,7,1.4,8.6c0,0.7-0.1,1.1-0.3,1.1c-0.8,0.2-4.2,0.6-10.4,1.2c-6.2,0.6-10.4,1-12.7,1
		c-0.3,0-0.6,0-0.9-0.1c-0.2,0-0.3,0-0.4,0c-0.4-0.3-0.8-1.4-1.1-3.1c-0.7-3.8-2.9-7-6.7-9.5c-1.7-1-4-1.6-6.8-1.6
		c-4.3-0.1-7.8,0.8-10.4,2.8c-5.4,4.2-8.4,11.1-7.9,20.2c0.4,9.3,4.1,16.3,10.1,20.8c4.4,3.3,8.4,4.7,12,4.2
		c0.9-0.1,1.8-0.4,2.5-0.8c1.2-0.6,2.8-2,4.5-4.2c1.7-2.2,2.9-4.1,3.4-5.9c0.3-0.8,1.4-1.3,3.5-1.4c2.3-0.2,5.9-0.2,10.5-0.2
		c8.8,0,13.4-0.2,13.6,0c0.4,0.3-0.4,3-2.2,8.2c-1.7,5.2-3.1,9.1-4.3,11.6c-3.5,7.5-7.5,12.5-12.8,14.8c-1.8,0.8-4.3,1.5-7.3,2.1
		c-7.4,1.5-13.9,2.4-19.6,2.4c-9.9,0.1-18.9-4-26.2-13.6c-2.9-3.8-6-10-8.7-18.7c-2.7-8.8-3.9-17.2-4-24.9c-0.2-14,4-25.8,10.8-34.4
		C50.8,67.1,59.7,62.5,69.7,61.1z"/>
	<path class="st4" d="M165.8,64.8c1.3-0.1,3.5-0.1,6.6,0.2c8.4,0.8,14.8,1.8,19.1,3c6,1.8,10.8,4.3,14.2,7.5
		c2.8,2.6,5.2,6.9,7.5,12.6c2.3,5.7,4,11.7,5,17.8c0.5,2.9,0.8,5.5,0.8,7.5c0.3,8.4-1.6,15.4-6.1,21.2c-4.5,5.9-11.2,10.3-20.4,13.3
		c-3.8,1.2-9.2,2.1-16.3,2.9c-6.8,0.7-12.7,1-17.7,0.7c-13.1-1.1-22.9-5.6-28.6-14.1c-4-5.9-6.3-12.6-6.7-19.6
		c-0.1-1.9-0.1-3.3-0.1-4.3c0.1-13.9,5.1-25.7,13.3-34.6C144.6,70.2,154.7,65.8,165.8,64.8z M179.4,91.4c-3.2-1.6-5.5-2.5-7-2.7
		c-0.2,0-0.4,0-0.6-0.1c-0.2-0.1-0.4-0.1-0.5-0.1c-2.6-0.1-5.6,0.9-9,3c-3.3,2.1-6.1,4.9-8.3,8.4c-2.2,3.4-3.4,6.7-3.5,9.9
		c0,0.3,0,0.7,0,1.3c0,0.6,0,0.9,0,1.1c0.1,2,1,4.6,3,7.8c4.8,7.9,10.9,11.4,17.7,10.9c1.1-0.1,2.2-0.3,3.3-0.6
		c3.6-1.2,7.1-3.5,10.5-6.9c3.4-3.4,5.7-6.9,7-10.6c0.5-1.4,0.8-2.5,0.8-3c0-0.4-0.3-1.7-1-3.8c-0.8-2.4-2.4-5.1-4.5-7.9
		C184.8,95,182.2,92.8,179.4,91.4z"/>
	<path class="st4" d="M257.7,76.4c2.8-0.4,6.7-0.4,11.8-0.2c7.4,0.3,12.7,1,16.1,2.1c7.8,2.5,13.6,6.8,17.5,13.1
		c1.2,1.8,2.4,4.2,3.5,7c1.1,2.8,1.6,4.8,1.6,5.9c0,0.5-0.1,0.7-0.3,0.7c-0.8,0.1-4.3,0.4-10.6,0.7c-6.3,0.3-10.6,0.5-12.9,0.5
		c-0.3,0-0.6,0-0.9-0.1c-0.2,0-0.3,0-0.4,0c-0.4-0.2-0.8-0.9-1.1-2.1c-0.7-2.5-3.1-4.6-7.1-6.3c-1.8-0.7-4.1-1-7-1.1
		c-4.4-0.1-7.9,0.5-10.4,1.7c-5.4,2.6-8.1,6.9-8,12.6c0.1,5.8,3.2,10.3,8.7,13.4c4.1,2.3,8,3.4,11.6,3.3c0.9,0,1.9-0.2,2.7-0.4
		c1.3-0.3,3.1-1.2,5.1-2.5c2-1.3,3.4-2.6,4-3.7c0.4-0.5,1.6-0.8,3.7-0.8c2.4,0,6,0.1,10.6,0.3c8.9,0.3,13.6,0.4,13.8,0.5
		c0.4,0.2-0.7,2-3.1,5.5c-2.4,3.5-4.4,6-6,7.7c-4.8,4.9-10,7.9-15.7,9.1c-2,0.4-4.6,0.6-7.8,0.8c-7.8,0.4-14.5,0.4-20.2,0
		c-9.9-0.7-18-4-23.7-10.3c-2.2-2.5-4.4-6.4-6.2-11.8c-1.8-5.4-2.7-10.5-2.7-15.2c0-8.5,3.2-15.5,9.2-20.8
		C239.7,80.7,247.7,77.5,257.7,76.4z"/>
	<path class="st4" d="M355.1,75.2c1.2-0.2,3.5-0.2,6.7-0.2c8.6,0.1,15.2,0.6,19.7,1.3c6.4,1.1,11.6,2.8,15.6,5.3c3.2,2,6.2,5.3,9,10
		c2.8,4.6,4.8,9.5,5.8,14.6c0.5,2.4,0.7,4.6,0.7,6.3c0,7-2.8,12.7-8.1,17.3c-5.4,4.6-13,7.7-22.8,9.6c-4,0.7-9.7,1.1-16.9,1.2
		c-7,0.1-12.9-0.1-17.9-0.7c-12.9-1.7-21.7-5.6-26.3-11.8c-3.2-4.4-5-9.1-5.1-14c0-1.3,0-2.3,0.1-3c0.5-9.6,4.7-17.8,12-24.3
		C335,80.2,344.2,76.5,355.1,75.2z M372.3,95c-3.3-1.2-5.8-1.8-7.3-1.9c-0.2,0-0.4,0-0.6-0.1c-0.2,0-0.4-0.1-0.5-0.1
		c-2.7,0-5.6,0.8-8.8,2.4c-3.2,1.6-5.9,3.7-8,6.3c-2.1,2.5-3.3,4.9-3.5,7.2c0,0.2,0,0.5-0.1,0.9c0,0.4-0.1,0.7-0.1,0.8
		c0,1.4,0.9,3.4,2.7,5.8c4.3,5.9,10,8.8,16.9,8.7c1.1,0,2.3-0.1,3.4-0.3c3.8-0.8,7.5-2.4,11.2-5c3.7-2.6,6.3-5.3,7.7-8.1
		c0.6-1.1,0.9-1.9,0.9-2.4c0-0.3-0.3-1.4-1-3c-0.8-1.9-2.4-4-4.7-6.2C378,97.7,375.3,96,372.3,95z"/>
	<path class="st4" d="M421.9,138.9c0-0.5-0.4-10.2-1.6-29.8c-1.2-19.6-2-29.4-2-29.9c0-1,0-1.5,0-2.5c1.1,0.1,1.6,0.1,2.7,0.2
		c1,0.1,6.3,0.2,15.8,0.4c5.2,0.1,7.8,0.2,12.9,0.2c-0.1,1.2-0.2,1.8-0.3,3.1c-0.8,7.4-1.1,15.8-1.1,25c0,2.6,0,5.6,0.2,8.9
		c0.3,5.4,0.7,8.8,1,10.1c0.3,1.4,0.8,2,1.4,2c0.2,0,0.3,0,0.6,0c1.2-0.2,7.2-0.6,18.2-1.1c11-0.6,17.2-0.8,18.9-0.8
		c0.1,0,0.2,0,0.3,0c0.1,0.7,0.1,1.5,0,2.5c0,0.5-0.1,1.4-0.2,2.6c-0.1,1.3-0.2,2.3-0.3,3.1c-0.4,3.2-0.6,4.8-1.1,8
		c-10.6-0.2-15.8-0.2-26.4-0.3c-19.6-0.1-30.5,0-32.8,0.1c-2.5,0-3.7,0-6.2,0.1C421.8,140.1,421.8,139.7,421.9,138.9z"/>
	<path class="st4" d="M518.3,77.5c0.6-2.3,1.2-3.5,1.9-3.5c0.3,0,0.5,0,0.7,0.1c0.9,0.2,4.3,0.1,10.4-0.1c3.5-0.2,5.3-0.2,8.8-0.4
		c7,12.5,10.2,19.2,15.6,32.7c8.5,21.1,10.3,32.7,10,34.4c0,0.2-3.6,0.8-10.8,1.8c-7.2,0.9-11.1,1.4-11.8,1.4c-0.1,0-0.1,0-0.1,0
		c-0.2-0.2-0.7-3.8-1.9-10.8c-0.8-4.3-1.2-6.5-2.2-10.8c-3.1-0.1-4.7-0.2-7.9-0.3c-1.3-0.1-2.8-0.2-4.4-0.2c-1.5,0-2.5,0-2.9,0.2
		c-0.4,0.1-0.7,0.4-0.9,0.9c0,0.1-0.7,1.9-2.1,5.4c-1.4,3.5-2.9,6.9-4.3,10.1c-1.5,3.2-2.3,4.9-2.5,5c-0.1,0.1-0.5,0.1-1.1,0.1
		c-2.2-0.1-6-0.6-11.3-1.5c-5.3-0.9-8-1.4-7.9-1.7c0-0.2,0.8-1.8,2.2-4.8c1.5-3,3.2-6.8,5.3-11.2c2.1-4.5,4.2-9.4,6.5-14.9
		c2.2-5.5,4.1-10.5,5.7-15.1c1.6-4.6,2.9-8.5,4-11.7C517.5,80.4,517.8,79.5,518.3,77.5z M534.9,108.4c-0.3-1.1-0.5-1.6-0.9-2.7
		c-0.5-1.8-1-3.5-1.6-5.2c-0.6-1.7-1-2.5-1.1-2.5c-0.2,0-0.8,1.7-1.9,5c-1.1,3.3-1.7,5.3-1.7,5.9c0,0.4,1.2,0.6,3.7,0.7
		c2.4,0,3.6-0.2,3.6-0.5C535,108.7,535,108.5,534.9,108.4z"/>
	<path class="st4" d="M572,74.4c-0.2-0.9-0.3-1.4-0.5-2.3c1.1,0,1.6,0,2.7,0.1c1,0,6.1-0.1,15.6-0.4c5.1-0.1,7.7-0.2,12.9-0.4
		c0.2,2.6,0.3,3.8,0.5,6.4c0.2,3.3,1.3,10.9,1.6,23.2c0.6,22.9-2.1,36.5-2.4,40.9c-0.2,3.4-0.5,5.3-0.6,5.6
		c-0.1,0.2-4.6-0.1-13.7-0.7c-5.4-0.4-8.1-0.5-13.6-0.9c1.9-13.3,2.2-20.4,1.8-34.4C575.5,90.6,572.6,78.4,572,74.4z"/>
	<path class="st4" d="M665.4,82.2c-1.1-7-1.8-10.5-3.6-17.2c6.2-0.4,9.2-0.6,15.4-1c6.2-0.4,9.3-0.6,15.5-1c0.1,0.1,1,3.8,1.7,11.2
		c0.5,4.4,1.3,10.7,1.9,18.9c0.9,12,1.1,24.6,0.2,37.4c-0.9,12.8-2.4,21.8-3,27.3c-0.1,0.8-0.2,1.2-0.3,2c-3.5-0.4-5.2-0.6-8.7-1
		c-4.8-0.6-8.6-1-11.5-1.5c-1.4-0.2-2-0.3-3.4-0.5c-2.4-0.5-3.6-0.7-6.1-1.1c-2.1-5.8-3.3-8.7-6-14.4c-0.9-1.9-2.1-4.5-3.8-8
		c-1.7-3.4-3.3-6.4-4.7-8.9c-1.4-2.5-2.5-4.3-3.3-5.6c-2-3.2-3-4.8-5.2-7.9c0.1,4.2,0,6.3-0.1,10.5c-0.3,8-0.7,14.5-0.8,19.6
		c-0.2,5.7-0.5,8.9-0.7,9.5c-0.1,0.2-3.1,0-9.1-0.6c-2.3-0.2-3.4-0.3-5.7-0.6c-5.9-0.6-8.9-0.9-14.8-1.5c0.6-3.2,0.8-4.9,1.2-8.2
		c0.2-1.4,0.5-3.8,0.9-7.5c0.4-3.7,0.9-8.7,1.1-15.1c0.2-6.4,0.1-11.6-0.1-15.6c-0.5-12-1.3-18-3.6-29.6c5.2-0.3,7.8-0.5,12.9-0.8
		c10-0.6,15.8-0.8,17.2-0.8c1.8,0,2.6,0,4.4,0c5.7,6.8,8.5,10.4,13.6,17.9c1.9,2.7,3.9,5.7,6,9.1c2.1,3.4,3.6,5.9,4.5,7.5
		c0.9,1.6,1.4,2.4,1.5,2.4c0-0.2,0-0.3,0-0.4c0-0.4-0.1-0.9-0.2-1.5c-0.1-0.6-0.3-1.2-0.4-1.8C667.7,101.9,667.4,94.6,665.4,82.2z"
		/>
	<path class="st4" d="M721.7,62.6c0.2-3.6,0.6-5.4,1.2-5.5c0.3,0,0.5,0,0.7,0.1c0.9,0.2,4.2-0.1,10-0.8c3.4-0.5,5.1-0.7,8.5-1.2
		c7.9,19.4,9.9,30.5,14.4,53.4c7.1,35.7,9.6,55.4,9.4,58.1c0,0.4-3.6,0.9-10.7,1.4c-7.1,0.6-11.1,0.7-11.8,0.6c-0.1,0-0.1,0-0.1,0
		c-0.2-0.4-0.1-6-0.7-17.3c-0.4-7-0.7-10.5-1.4-17.6c-2.8-0.4-4.2-0.6-7.1-1c-1.2-0.3-2.5-0.5-4-0.6c-1.4-0.2-2.2-0.1-2.6,0.1
		c-0.4,0.2-0.7,0.7-0.9,1.4c0,0.1-0.7,2.9-2.4,8.2c-1.7,5.3-3.6,10.3-5.6,15.1c-2.1,4.7-3.4,7.1-3.6,7.2c-0.1,0.1-0.5,0.1-1.1-0.1
		c-2.1-0.4-5.6-1.6-10.4-3.6c-4.8-1.9-7.1-3-7-3.4c0.1-0.3,1.3-2.5,3.4-6.8c2.1-4.3,4.5-9.7,6.9-16.3c2.4-6.6,4.8-14,6.9-22.4
		c2.1-8.3,3.6-16.1,4.8-23.3c1.2-7.1,2-13.3,2.6-18.3C721.4,67.1,721.5,65.6,721.7,62.6z M738.1,111.3c-0.3-1.8-0.4-2.7-0.7-4.4
		c-0.4-2.9-0.9-5.7-1.4-8.4c-0.5-2.7-0.9-4-1-4c-0.2,0-0.7,2.7-1.7,8.1c-1,5.4-1.6,8.4-1.6,9.4c0,0.7,1.1,1.1,3.3,1.2
		c2.1,0.1,3.2-0.1,3.2-0.7C738.3,111.9,738.2,111.6,738.1,111.3z"/>
</g>
<g>
	<path class="st5" d="M67.9,57.4c2.9-0.4,6.7-0.3,11.6,0.3c7.1,0.9,12.1,2.3,15.2,4c6.9,4.1,11.4,10.8,14.4,20.2
		c0.9,2.7,1.7,6.2,2.5,10.3c0.8,4.1,1.3,7,1.2,8.7c0,0.7-0.1,1.1-0.3,1.1c-0.8,0.2-4.3,0.6-10.4,1.1c-6.2,0.6-10.4,0.9-12.7,0.9
		c-0.3,0-0.6,0-0.8-0.2c-0.2,0-0.3,0-0.4,0c-0.4-0.3-0.7-1.4-1-3.1c-0.6-3.9-2.7-7-6.5-9.6c-1.7-1.1-3.9-1.6-6.8-1.7
		c-4.3-0.1-7.8,0.7-10.4,2.7c-5.5,4.2-8.6,11.1-8.3,20.3c0.2,9.4,3.8,16.5,9.7,21.1c4.4,3.4,8.4,4.8,11.9,4.4
		c0.9-0.1,1.8-0.4,2.6-0.8c1.3-0.6,2.8-2,4.6-4.2c1.8-2.2,2.9-4.2,3.5-6c0.3-0.8,1.5-1.3,3.5-1.4c2.3-0.2,5.9-0.1,10.5-0.1
		c8.8,0,13.4-0.1,13.7,0.1c0.4,0.3-0.5,3-2.3,8.2c-1.8,5.2-3.2,9.1-4.4,11.7c-3.6,7.6-7.7,12.6-13,15c-1.9,0.8-4.3,1.4-7.4,2
		c-7.4,1.4-14,2.3-19.7,2.3c-9.9,0-18.9-4.3-26-14.1c-2.8-3.9-5.8-10.2-8.3-19.1c-2.5-8.9-3.6-17.5-3.5-25.3
		c0.1-14.2,4.5-26,11.6-34.6C49,63.2,57.9,58.6,67.9,57.4z"/>
	<path class="st5" d="M163.6,61.9c1.3-0.1,3.5,0,6.6,0.3c8.4,0.8,14.7,1.9,19,3.2c6,1.8,10.7,4.4,14.1,7.6c2.7,2.6,5.1,6.9,7.3,12.6
		c2.2,5.7,3.8,11.7,4.7,17.9c0.4,3,0.7,5.5,0.8,7.6c0.2,8.4-1.8,15.5-6.4,21.4c-4.6,5.9-11.3,10.3-20.6,13.4
		c-3.8,1.2-9.3,2.1-16.4,2.9c-6.8,0.7-12.8,1-17.8,0.7c-13.1-1.2-22.9-5.8-28.4-14.4c-3.9-6-6.1-12.8-6.5-19.9
		c-0.1-1.9-0.1-3.4,0-4.4c0.4-14,5.5-25.9,13.9-34.7C142.4,67.2,152.5,62.8,163.6,61.9z M176.8,88.7c-3.2-1.6-5.5-2.5-7-2.8
		c-0.2,0-0.4,0-0.6-0.1c-0.2-0.1-0.4-0.1-0.5-0.1c-2.6-0.1-5.7,0.8-9,2.9c-3.3,2.1-6.2,4.9-8.5,8.4c-2.2,3.4-3.5,6.7-3.7,9.9
		c0,0.3,0,0.7-0.1,1.3c0,0.6-0.1,0.9-0.1,1.1c0,2,1,4.6,2.9,7.9c4.7,8,10.8,11.5,17.5,11.1c1.1-0.1,2.3-0.3,3.3-0.6
		c3.7-1.2,7.1-3.5,10.6-6.9c3.4-3.4,5.8-7,7.2-10.6c0.5-1.4,0.8-2.5,0.8-3.1c0-0.4-0.3-1.7-1-3.8c-0.8-2.4-2.3-5.1-4.4-8
		C182.1,92.4,179.6,90.1,176.8,88.7z"/>
	<path class="st5" d="M255.1,74.1c2.8-0.4,6.7-0.4,11.8-0.2c7.3,0.4,12.7,1.1,16.1,2.1c7.8,2.5,13.5,6.9,17.4,13.2
		c1.2,1.9,2.4,4.2,3.4,7c1.1,2.8,1.6,4.8,1.6,5.9c0,0.5-0.1,0.7-0.3,0.7c-0.8,0.1-4.3,0.4-10.6,0.7c-6.3,0.3-10.6,0.5-12.9,0.5
		c-0.3,0-0.6,0-0.9-0.1c-0.2,0-0.3,0-0.4,0c-0.4-0.2-0.8-0.9-1.1-2.1c-0.7-2.5-3-4.6-7-6.3c-1.8-0.7-4.1-1.1-7-1.1
		c-4.4-0.1-7.9,0.5-10.4,1.7c-5.4,2.6-8.2,6.9-8.1,12.6c0.1,5.9,3.1,10.4,8.6,13.5c4.1,2.3,8,3.4,11.6,3.4c0.9,0,1.9-0.2,2.7-0.4
		c1.3-0.3,3.1-1.2,5.1-2.5c2-1.3,3.4-2.6,4.1-3.8c0.4-0.5,1.6-0.8,3.7-0.8c2.4,0,6,0.1,10.6,0.3c8.9,0.3,13.6,0.4,13.8,0.6
		c0.4,0.2-0.7,2-3.1,5.5c-2.4,3.5-4.4,6.1-6,7.7c-4.9,4.9-10,8-15.8,9.1c-2,0.4-4.6,0.6-7.8,0.8c-7.8,0.4-14.5,0.4-20.3,0
		c-9.9-0.7-18-4.1-23.6-10.5c-2.2-2.5-4.3-6.5-6.1-11.9c-1.8-5.5-2.6-10.6-2.5-15.3c0.1-8.5,3.4-15.6,9.4-20.9
		C237.1,78.2,245.2,75.2,255.1,74.1z"/>
	<path class="st5" d="M352.4,73.2c1.2-0.2,3.5-0.2,6.7-0.2c8.6,0.2,15.1,0.6,19.6,1.4c6.4,1.1,11.6,2.8,15.5,5.3
		c3.2,2,6.2,5.3,9,9.9c2.8,4.6,4.8,9.5,5.8,14.6c0.5,2.4,0.7,4.6,0.7,6.3c0,7-2.7,12.8-8.1,17.4c-5.4,4.6-13,7.8-22.8,9.6
		c-4,0.7-9.7,1.1-16.9,1.2c-7,0.1-12.9-0.1-17.9-0.7c-12.9-1.7-21.7-5.6-26.3-11.9c-3.2-4.4-4.9-9.1-5-14c0-1.3,0-2.3,0.1-3
		c0.6-9.7,4.8-17.9,12.2-24.4C332.3,78.2,341.5,74.5,352.4,73.2z M369.5,92.9c-3.3-1.2-5.8-1.8-7.3-2c-0.2,0-0.4,0-0.6-0.1
		c-0.2,0-0.4-0.1-0.5-0.1c-2.7,0-5.6,0.8-8.8,2.4c-3.2,1.6-5.9,3.7-8,6.3c-2.1,2.5-3.3,4.9-3.5,7.2c0,0.2,0,0.5-0.1,0.9
		c0,0.4-0.1,0.7-0.1,0.8c0,1.4,0.9,3.4,2.7,5.8c4.3,5.9,10,8.8,16.9,8.8c1.1,0,2.3-0.1,3.4-0.3c3.8-0.8,7.6-2.4,11.3-5
		c3.7-2.6,6.3-5.3,7.7-8.1c0.6-1.1,0.9-1.9,0.9-2.4c0-0.3-0.3-1.4-1-3c-0.8-1.9-2.4-4-4.7-6.2C375.2,95.6,372.4,94,369.5,92.9z"/>
	<path class="st5" d="M419.1,137c0-0.5-0.4-10.3-1.7-29.8c-1.2-19.6-2-29.4-2-29.8c0-1,0-1.5,0-2.5c1.1,0.1,1.6,0.1,2.7,0.2
		c1,0.1,6.3,0.2,15.7,0.4c5.2,0.1,7.7,0.2,12.9,0.2c-0.1,1.2-0.2,1.8-0.3,3c-0.8,7.4-1.1,15.7-1.1,24.9c0,2.6,0.1,5.6,0.3,8.9
		c0.4,5.4,0.8,8.8,1.1,10.1c0.3,1.4,0.8,2,1.5,2c0.2,0,0.3,0,0.6,0c1.2-0.2,7.2-0.6,18.2-1.2c11-0.6,17.3-0.8,18.9-0.8
		c0.1,0,0.2,0,0.3,0c0.1,0.7,0.1,1.5,0,2.5c0,0.5-0.1,1.4-0.2,2.6c-0.1,1.3-0.2,2.3-0.3,3.1c-0.4,3.2-0.6,4.8-1,8
		c-10.6-0.1-15.9-0.2-26.5-0.2c-19.6,0-30.6,0.1-32.8,0.1c-2.5,0-3.7,0-6.2,0.1C419,138.2,419,137.8,419.1,137z"/>
	<path class="st5" d="M515.3,75.6c0.6-2.3,1.2-3.4,1.9-3.5c0.3,0,0.5,0,0.7,0.1c0.9,0.2,4.3,0.1,10.3-0.1c3.5-0.2,5.2-0.2,8.7-0.4
		c7.1,12.4,10.3,19,15.8,32.4c8.7,20.9,10.7,32.6,10.4,34.2c0,0.2-3.6,0.8-10.8,1.8c-7.2,1-11.1,1.4-11.8,1.4c-0.1,0-0.1,0-0.1,0
		c-0.2-0.2-0.8-3.8-2.1-10.8c-0.8-4.3-1.3-6.5-2.3-10.8c-3.2-0.1-4.7-0.1-7.9-0.2c-1.3-0.1-2.8-0.1-4.4-0.2c-1.5,0-2.5,0-2.9,0.2
		c-0.4,0.1-0.7,0.4-0.9,0.9c0,0.1-0.7,1.9-2,5.4c-1.4,3.5-2.8,6.9-4.2,10.1c-1.4,3.2-2.3,4.9-2.5,5c-0.1,0.1-0.5,0.1-1.1,0.1
		c-2.3-0.1-6-0.6-11.4-1.4c-5.3-0.9-8-1.4-8-1.7c0-0.2,0.8-1.8,2.2-4.8c1.4-3,3.2-6.8,5.2-11.3c2-4.5,4.2-9.4,6.3-14.9
		c2.2-5.4,4-10.5,5.6-15c1.6-4.6,2.9-8.5,3.9-11.7C514.5,78.5,514.7,77.5,515.3,75.6z M532,106.2c-0.3-1.1-0.5-1.6-0.9-2.7
		c-0.5-1.8-1-3.5-1.6-5.2c-0.6-1.6-1-2.5-1.2-2.5c-0.2,0-0.8,1.7-1.9,5c-1.1,3.3-1.7,5.3-1.7,5.8c0,0.4,1.2,0.6,3.7,0.6
		c2.4,0,3.6-0.2,3.6-0.5C532.2,106.6,532.1,106.4,532,106.2z"/>
	<path class="st5" d="M568.8,72.3c-0.2-0.9-0.3-1.4-0.5-2.3c1.1,0,1.6,0,2.7,0.1c1,0,6.1-0.1,15.5-0.4c5.1-0.2,7.7-0.2,12.8-0.4
		c0.3,2.5,0.4,3.8,0.6,6.3c0.2,3.2,1.4,10.8,1.8,23c0.9,22.8-1.6,36.3-1.8,40.8c-0.2,3.4-0.4,5.3-0.5,5.6c0,0.2-4.6,0-13.8-0.7
		c-5.4-0.3-8.2-0.5-13.6-0.8c1.7-13.3,1.9-20.4,1.3-34.3C572.4,88.4,569.5,76.3,568.8,72.3z"/>
	<path class="st5" d="M662.2,79.6c-1.2-6.9-2-10.3-3.8-17c6.1-0.4,9.2-0.6,15.3-1c6.2-0.4,9.3-0.7,15.4-1.1c0.1,0.1,1,3.7,1.9,11
		c0.5,4.4,1.4,10.6,2.1,18.6c1.1,11.8,1.5,24.3,0.8,37.1c-0.7,12.8-2,21.8-2.4,27.3c-0.1,0.8-0.2,1.2-0.3,2
		c-3.5-0.4-5.2-0.5-8.7-0.9c-4.8-0.5-8.7-1-11.6-1.3c-1.4-0.2-2.1-0.3-3.4-0.5c-2.4-0.4-3.7-0.6-6.1-1.1c-2.2-5.8-3.5-8.7-6.3-14.4
		c-0.9-1.9-2.2-4.5-4-7.9c-1.8-3.4-3.4-6.3-4.9-8.8c-1.5-2.4-2.6-4.3-3.4-5.5c-2.1-3.2-3.1-4.7-5.3-7.8c0.1,4.2,0.1,6.3,0,10.4
		c-0.2,8-0.5,14.5-0.5,19.5c-0.1,5.7-0.4,8.9-0.5,9.5c-0.1,0.2-3.1,0.1-9.1-0.5c-2.3-0.2-3.4-0.3-5.7-0.5c-5.9-0.6-8.9-0.9-14.9-1.4
		c0.5-3.2,0.7-4.9,1.1-8.2c0.1-1.4,0.4-3.8,0.8-7.5c0.4-3.7,0.8-8.7,0.9-15c0.1-6.4-0.1-11.5-0.3-15.5c-0.7-11.9-1.5-17.9-3.9-29.3
		c5.2-0.3,7.7-0.5,12.9-0.8c10-0.6,15.7-0.9,17.2-0.9c1.8,0,2.6,0,4.4,0c5.8,6.7,8.6,10.3,13.8,17.6c1.9,2.6,4,5.6,6.1,8.9
		c2.2,3.3,3.7,5.8,4.6,7.4c0.9,1.6,1.4,2.4,1.5,2.4c0-0.2,0-0.3,0-0.4c0-0.4-0.1-0.9-0.2-1.5c-0.2-0.6-0.3-1.2-0.4-1.7
		C664.8,99.1,664.4,91.9,662.2,79.6z"/>
	<path class="st5" d="M718.5,59.8c0.1-3.5,0.5-5.3,1.1-5.4c0.3,0,0.5,0,0.7,0.1c0.9,0.2,4.2-0.1,10.1-0.9c3.4-0.5,5.1-0.7,8.5-1.2
		c8.4,19,10.5,29.9,15.1,52.5c7.3,35.3,9.7,55.1,9.4,57.8c0,0.4-3.5,0.9-10.5,1.6c-7,0.7-10.9,0.9-11.6,0.7c-0.1,0-0.1,0-0.1,0
		c-0.2-0.4-0.2-6-0.9-17.4c-0.4-7-0.7-10.5-1.5-17.6c-2.8-0.4-4.2-0.6-7-0.9c-1.2-0.2-2.5-0.4-4-0.6c-1.4-0.1-2.2-0.1-2.6,0.1
		c-0.4,0.2-0.7,0.7-0.9,1.4c0,0.1-0.7,2.9-2.3,8.2c-1.6,5.3-3.4,10.4-5.4,15.1c-2,4.8-3.3,7.1-3.5,7.3c-0.1,0.1-0.5,0.1-1.1,0
		c-2.1-0.4-5.6-1.6-10.4-3.5c-4.8-1.9-7.1-3-7-3.3c0.1-0.3,1.3-2.5,3.3-6.8c2-4.3,4.3-9.7,6.7-16.3c2.4-6.6,4.6-14,6.6-22.3
		c2-8.3,3.4-16,4.5-23.1c1.1-7.1,1.8-13.1,2.3-18.1C718.2,64.2,718.3,62.7,718.5,59.8z M735.6,107.7c-0.3-1.8-0.4-2.6-0.7-4.4
		c-0.4-2.9-0.9-5.7-1.4-8.3c-0.5-2.6-0.9-3.9-1.1-3.9c-0.2,0-0.7,2.7-1.6,8c-0.9,5.3-1.5,8.4-1.5,9.3c0,0.7,1.1,1.1,3.3,1.1
		c2.1,0.1,3.2-0.2,3.2-0.8C735.8,108.3,735.7,108,735.6,107.7z"/>
</g>
<g>
	<g>
		<path class="st0" d="M580.5,236c-121.2-14.7-240.7-14.7-361.8,0c-11.8,1.6-23.4-3.9-25.8-12.4c-1.9-6.7-2.9-10.1-4.8-16.9
			c-2.4-8.5,5.9-17,18.5-18.7c129.2-15.8,256.9-15.8,386.1,0c12.6,1.7,20.9,10.2,18.5,18.7c-1.9,6.7-2.9,10.1-4.8,16.9
			C603.9,232.1,592.3,237.6,580.5,236z"/>
		<g>
			<path class="st6" d="M213.8,196c3.7-0.6,6.9-1,9.3-1.3c7.3-0.9,12.8-1.5,16.6-1.7c1-0.1,1.4-0.1,2.4-0.1c0,0.4,0,0.6,0,1.1
				c0,0.6,0.2,1.7,0.5,3.3c0.2,0.9,0.3,1.4,0.5,2.3c-2.2,0.2-3.3,0.4-5.5,0.6c-3.8,0.4-6.1,0.8-6.8,0.9c-0.5,0.1-0.8,0.2-1.3,0.3
				c0,0.4,0,0.6,0,1.1c0,0.6,0.5,3.1,1.5,7.4c1.3,5.8,2.1,9,2.4,9.5c0.1,0.1,0.2,0.3,0.3,0.4c0.1,0.1,0.3,0.2,0.4,0.3
				c0.1,0,0.1,0.1,0.1,0.1c0,0-1.6,0.3-4.8,0.7c-2.1,0.3-3.2,0.4-5.3,0.7c-0.9-3.4-1.3-5.2-2.2-8.6c-1.6-6.5-2.8-9.9-3.4-10.2
				c-0.1-0.1-2.1,0.1-5.9,0.6c-2.3,0.3-3.4,0.4-5.6,0.7c-0.1-0.2-0.2-0.4-0.3-0.6c-0.2-0.4-0.5-1.3-0.9-2.9c-0.5-2-0.7-3.1-0.6-3.1
				C205.2,197.4,208.1,196.9,213.8,196z"/>
			<path class="st6" d="M240.7,207.3c-0.3-1.6-0.5-2.3-0.8-3.9c1-0.1,1.5-0.2,2.4-0.3c1.7-0.2,2.8-0.3,3.3-0.2c0.4,0,0.5,0,0.9,0.1
				c0.3,1.3,0.4,2,0.7,3.3c0.7,3.4,1.6,5.4,2.6,6.1c0.4,0.3,1,0.4,1.6,0.4c0.1,0,0.2,0,0.4-0.1c0.2,0,0.4-0.1,0.6-0.1
				c0.8-0.1,1.4-0.3,1.6-0.4c0.3-0.1,0.6-0.3,0.9-0.6c0.3-0.3,0.5-0.7,0.5-1c0-0.4-0.1-1.2-0.2-2.5c-0.3-2.1-0.5-3.5-0.6-4.4
				c-0.1-0.6-0.2-0.9-0.3-1.5c2.5-0.3,3.8-0.4,6.3-0.6c0.5,2.5,0.8,3.7,1.3,6.2c1.1,4.9,1.7,7.7,1.9,8.4c0.2,0.9,0.3,1.3,0.6,2.2
				c-0.7,0.1-1.1,0.2-1.8,0.3c-1,0.1-1.8,0.3-2.5,0.3c-0.3,0-0.4,0-0.7,0.1c-0.5,0-0.8,0-1,0c-0.2,0-0.3-0.1-0.4-0.1
				c-0.1-0.1-0.1-0.2-0.2-0.5c-0.2-0.4-0.3-0.6-0.5-0.6c-0.2,0-0.7,0.3-1.5,0.8c-1.2,0.7-2.5,1.2-4,1.3c-2.2,0.2-4.1-0.2-5.8-1.2
				c-1.2-0.8-2.2-1.7-2.9-2.9c-0.6-0.8-1.2-2.9-1.9-6.1C241,208.7,240.9,208.2,240.7,207.3z"/>
			<path class="st6" d="M287.5,197c0.1,0,0.5-0.1,1-0.1c2.2-0.2,4.1-0.1,5.6,0.1c1.8,0.3,3.5,1.2,4.8,2.6c1.3,1.4,2.2,3.1,2.6,5.1
				c0.1,0.6,0.2,0.9,0.3,1.5c-3.2,0.3-4.7,0.4-7.9,0.7c-3.2,0.3-4.7,0.4-7.9,0.7c0.2,0.3,0.3,0.4,0.5,0.7c0.6,0.7,1.3,1.3,2.3,1.7
				c1,0.4,2,0.6,2.9,0.5c0.6,0,1.3-0.4,2.1-1.1c0.5-0.4,0.7-0.7,1.2-1.1c1.4,0,2.1,0,3.5-0.1c2.3,0,3.5,0,3.6,0c0,0,0.1,0,0.1,0.1
				c0,0.2-0.2,0.8-0.7,1.6c-0.5,0.9-1,1.6-1.4,2.1c-1.2,1.3-2.6,2.2-4.3,2.6c-0.4,0.1-1,0.2-1.8,0.2c-3.1,0.2-5.4,0.3-6.8,0.1
				c-1.2-0.1-2.4-0.5-3.6-1.2c-1.2-0.7-2-1.4-2.6-2.3c-1-1.5-1.8-3.4-2.1-5.7c0-0.2-0.1-0.3-0.1-0.5c-0.3-1.8,0.3-3.5,1.8-5.1
				c0.5-0.5,1.3-1,2.3-1.5c1-0.5,2-0.9,2.8-1.1c0.3-0.1,0.7-0.2,1.2-0.3S287.4,197,287.5,197z M292.2,202.6
				c-0.8-0.3-1.7-0.4-2.7-0.3c-0.5,0-0.9,0.1-1.2,0.2c-0.5,0.2-1.1,0.5-1.7,1.1c-0.6,0.6-0.9,1-0.8,1.3c0,0.1,0,0.1,0.1,0.2
				c0.3,0,0.6,0,1,0c0.5,0,1.6-0.2,3.3-0.3c1.6-0.2,2.5-0.3,4.1-0.5c-0.2-0.3-0.3-0.4-0.5-0.6C293.3,203.1,292.9,202.8,292.2,202.6z
				"/>
			<path class="st6" d="M303.2,198.6c-0.4-2.8-0.6-4.2-1.1-7.1c1.2-0.1,1.8-0.1,3-0.1c2-0.1,3.1,0,3.2,0.1c0.1,0.1,0.8,3.6,2.1,10.4
				c1.3,6.8,1.9,10.3,2,10.5c0,0.1,0.1,0.2,0.1,0.2c0,0.1-0.1,0.2-0.3,0.3c-0.2,0.1-0.8,0.2-1.7,0.3c-2.2,0.3-3.4,0.5-3.5,0.5
				c-0.5,0.1-0.8,0.1-1.3,0.2c-0.3-1.7-0.4-2.5-0.7-4.1c-0.1-0.8-0.4-2.7-0.8-5.5C303.6,201.4,303.3,199.5,303.2,198.6z"/>
			<path class="st6" d="M314.1,193c0.5-0.3,1-0.5,1.6-0.5c0.9-0.1,1.7,0.2,2.5,0.7c0.8,0.5,1.2,1.1,1.3,1.9c0,0.5-0.1,1-0.3,1.5
				c-0.3,0.5-0.6,0.9-1,1.1c-0.4,0.2-1,0.3-1.7,0.4c-0.8,0-1.4,0-1.8-0.2c-1.1-0.4-1.7-1.2-1.8-2.3
				C312.7,194.6,313.1,193.7,314.1,193z M316.2,199.9c2.1-0.3,3.4-0.5,3.9-0.5c0.1,0,0.1,0,0.2,0c0.2,0.7,0.5,2.9,1.2,6.4
				c0.6,3.6,0.9,5.5,1,5.9c0,0.3,0.1,0.5,0.1,0.8c-0.9,0.1-1.3,0.2-2.2,0.3c-2.3,0.3-3.4,0.4-3.6,0.4c-0.5,0.1-0.8,0.1-1.3,0.2
				c-0.6-5.3-0.9-8-1.5-13.3C314.8,200.1,315.3,200.1,316.2,199.9z"/>
			<path class="st6" d="M340.4,195.1c0.8-0.8,1.3-1.2,1.5-1.2c0.1,0,1.2,0.5,3.2,1.6c1.2,0.6,1.8,1,3.1,1.6c-0.4,0.1-0.6,0.2-1,0.3
				c-0.9,0.3-1.5,0.6-2,0.9c-0.4,0.3-0.5,0.4-0.9,0.7c0.3,0.3,0.5,0.5,0.8,0.9c0.7,0.8,1.1,1.9,1.2,3c0.1,1.9-0.5,3.4-1.9,4.6
				c-0.9,0.8-1.9,1.3-3,1.7c-1.1,0.3-2.8,0.6-5,0.7c-3.6,0.3-5.6,0.8-6,1.4c-0.1,0.2-0.2,0.3-0.2,0.4c0,0.2,0.2,0.2,0.7,0.2
				c0.4,0,1.2-0.1,2.3-0.3c1.8-0.4,4-0.7,6.5-0.8c1.6-0.1,2.8,0,3.4,0.1c2.2,0.3,3.8,1.5,4.7,3.4c0.4,0.8,0.6,1.4,0.7,1.9
				c0,0.7-0.5,1.6-1.5,2.5c-2.2,2-6.3,3.2-12.4,3.4c-6.7,0.3-10.3-0.8-10.9-3.4c0-0.1,0-0.2-0.1-0.4c0-0.2-0.1-0.3-0.1-0.3
				c-0.1-0.7,0.2-1.5,0.7-2.1c0.3-0.5,0.5-0.8,0.5-1.1c0,0-0.1-0.3-0.4-0.9c-0.3-0.8-0.5-1.5-0.6-2c-0.1-0.8,0.2-1.5,0.7-2.1
				c0.6-0.7,1.1-1,1.3-1.1c0.2,0-0.1-0.4-1.1-1.2c-1.7-1.2-2.6-2.4-2.7-3.8c0-0.3,0-0.5,0-0.7c0.1-1.4,0.7-2.7,1.8-3.9
				c2-2.1,5.3-3.2,10-3.5c1.8-0.1,3.1,0,3.9,0.1c0.5,0.1,0.8,0.1,1,0.1C339.1,196.2,339.7,195.8,340.4,195.1z M341.3,215.1
				c-0.5-0.2-1.1-0.3-2.1-0.3c-1.4,0.1-3.3,0.4-5.9,1.1c-0.8,0.2-1.4,0.4-1.9,0.7c-0.5,0.3-0.7,0.5-0.7,0.8c0,0.1,0.1,0.2,0.2,0.2
				c0.4,0.3,1.5,0.3,3.2,0.3c3.2-0.2,5.5-0.5,6.9-1.2c0.6-0.3,0.9-0.6,0.8-0.9C341.9,215.5,341.7,215.3,341.3,215.1z M337.3,201.1
				c-0.5-0.1-1.4-0.2-2.7-0.1c-1.7,0.1-2.9,0.3-3.6,0.5c-1,0.3-1.5,0.8-1.4,1.5c0,0.4,0.3,0.7,0.9,1c1,0.6,2.5,0.9,4.4,0.8
				c1,0,1.9-0.2,2.6-0.5c0.7-0.3,1.2-0.6,1.3-1c0-0.1,0.1-0.2,0-0.4C338.7,202,338.2,201.4,337.3,201.1z"/>
			<path class="st6" d="M358.4,193.2c0.2,0,0.5-0.1,1-0.1c2.3-0.1,4.1,0.1,5.5,0.4c1.8,0.4,3.3,1.3,4.5,2.8c1.2,1.4,1.9,3.2,2.1,5.2
				c0,0.6,0.1,0.9,0.1,1.5c-3.2,0.1-4.8,0.1-7.9,0.3c-3.2,0.1-4.8,0.1-7.9,0.3c0.2,0.3,0.3,0.4,0.4,0.7c0.5,0.7,1.2,1.3,2.2,1.8
				c1,0.5,1.9,0.7,2.9,0.6c0.6,0,1.3-0.4,2.2-1c0.5-0.4,0.8-0.6,1.3-1c1.4,0,2.1,0.1,3.5,0.1c2.3,0.1,3.5,0.2,3.6,0.2
				c0,0,0.1,0.1,0.1,0.1c0,0.2-0.3,0.7-0.8,1.6c-0.6,0.8-1.1,1.5-1.6,2c-1.3,1.3-2.8,2.1-4.5,2.4c-0.4,0.1-1.1,0.1-1.8,0.1
				c-3.1,0.1-5.4,0-6.8-0.2c-1.2-0.2-2.4-0.6-3.5-1.3c-1.1-0.7-1.9-1.5-2.4-2.4c-0.9-1.6-1.4-3.5-1.6-5.7c0-0.2,0-0.3,0-0.5
				c-0.1-1.8,0.7-3.5,2.2-5c0.5-0.4,1.4-0.9,2.4-1.4c1.1-0.5,2.1-0.8,2.9-0.9c0.3-0.1,0.8-0.1,1.3-0.2
				C358.1,193.2,358.3,193.2,358.4,193.2z M362.6,199c-0.7-0.3-1.6-0.4-2.7-0.4c-0.5,0-0.9,0.1-1.2,0.2c-0.5,0.1-1.2,0.5-1.8,1
				c-0.6,0.5-1,0.9-1,1.2c0,0.1,0,0.1,0.1,0.2c0.3,0,0.6,0,1,0c0.5,0,1.6-0.1,3.3-0.2c1.7-0.1,2.5-0.2,4.1-0.3
				c-0.2-0.3-0.3-0.4-0.5-0.7C363.6,199.5,363.2,199.2,362.6,199z"/>
			<path class="st6" d="M382,193.5c0.8-0.1,2-0.2,3.7-0.2c1.7,0,3.3,0,5,0.1c1.6,0.1,2.4,0.2,2.4,0.4c0,0.3-0.2,1-0.7,2.2
				c-0.5,1.2-0.8,1.9-1,2c0,0,0,0-0.1,0c-0.2,0-0.9-0.1-1.9-0.4c-1.3-0.3-2.5-0.5-3.6-0.4c-1.6,0-2.6,0.3-2.9,0.9c0,0,0,0,0,0
				c0,0,0,0-0.1,0.1c0,0.6,1.6,1.4,4.8,2.3c2,0.6,3.3,1,4,1.4c0.7,0.3,1.2,0.7,1.5,1.2c0.3,0.5,0.5,1.1,0.5,1.9
				c0,0.8-0.2,1.6-0.6,2.2c-1,1.5-2.3,2.5-3.8,3.1c-1,0.4-2.4,0.6-4.1,0.6c-2.5,0-5.4-0.3-8.6-1c-1-0.2-1.5-0.3-2.5-0.5
				c0.4-0.7,0.6-1,1-1.7c0.2-0.3,0.5-0.8,0.8-1.4c0.3-0.6,0.5-0.9,0.5-0.9c0.1-0.3,0.2-0.4,0.4-0.7c1,0.4,1.4,0.5,2.4,0.9
				c2.7,0.9,4.7,1.4,5.9,1.4c0.2,0,0.5,0,0.8-0.1c1.3-0.3,2-0.7,2-1.2c0-0.7-1.2-1.3-3.6-1.7c-4.6-0.9-7.4-2.6-8.4-5.2
				c-0.1-0.3-0.2-0.5-0.2-0.8c0-1,0.5-2,1.7-2.8C378.6,194.3,380.1,193.7,382,193.5z"/>
			<path class="st6" d="M420.5,192.8c0.2,0,0.5,0,1,0c2.3,0,4.1,0.2,5.5,0.6c1.8,0.5,3.2,1.5,4.3,3c1.1,1.5,1.6,3.3,1.7,5.3
				c0,0.6,0,0.9,0,1.5c-3.2,0-4.8-0.1-7.9-0.1c-3.2,0-4.8-0.1-7.9-0.1c0.2,0.3,0.2,0.4,0.4,0.7c0.4,0.8,1.1,1.4,2,1.9
				c0.9,0.5,1.8,0.7,2.8,0.8c0.6,0,1.3-0.3,2.2-0.9c0.6-0.4,0.8-0.6,1.4-1c1.4,0.1,2.1,0.2,3.4,0.3c2.3,0.2,3.5,0.3,3.5,0.4
				c0,0,0.1,0.1,0.1,0.1c0,0.2-0.3,0.7-1,1.5c-0.6,0.8-1.2,1.4-1.8,1.9c-1.4,1.2-3,2-4.7,2.2c-0.4,0-1.1,0.1-1.9,0
				c-3.1-0.1-5.4-0.2-6.8-0.5c-1.2-0.2-2.3-0.7-3.3-1.5c-1-0.8-1.8-1.6-2.2-2.5c-0.8-1.6-1.1-3.6-1.1-5.8c0-0.2,0-0.3,0-0.5
				c0.1-1.8,0.9-3.5,2.6-4.9c0.6-0.4,1.4-0.9,2.5-1.3c1.1-0.4,2.1-0.7,3-0.8c0.3,0,0.8-0.1,1.3-0.2
				C420.2,192.8,420.4,192.8,420.5,192.8z M424.2,198.7c-0.7-0.3-1.6-0.5-2.7-0.5c-0.5,0-0.9,0-1.2,0.1c-0.6,0.1-1.2,0.4-1.9,0.9
				c-0.7,0.5-1,0.9-1.1,1.2c0,0.1,0,0.1,0.1,0.2c0.3,0,0.6,0,1,0.1c0.5,0,1.6,0,3.4,0c1.7,0,2.5-0.1,4.2-0.1
				c-0.2-0.3-0.3-0.4-0.4-0.7C425.2,199.3,424.8,199,424.2,198.7z"/>
			<path class="st6" d="M435.7,195.8c0.1-2.8,0.1-4.3,0.2-7.1c1.2,0.1,1.8,0.1,3,0.2c2,0.1,3,0.3,3.2,0.4c0.1,0.1,0.2,3.7,0.3,10.5
				c0.1,6.9,0.1,10.4,0.2,10.6c0,0.1,0,0.2,0,0.2c0,0.1-0.1,0.2-0.4,0.3c-0.2,0-0.8,0.1-1.8,0.1c-2.3,0.1-3.5,0.1-3.6,0.1
				c-0.5,0-0.8,0.1-1.3,0.1c0-1.7,0-2.5,0-4.2c0-0.9,0-2.7,0.1-5.6C435.7,198.6,435.7,196.7,435.7,195.8z"/>
			<path class="st6" d="M469.7,195.7c2.1-0.5,4.6-0.8,7.4-0.9c0.2,0,0.3,0,0.5,0c0.3,0,0.5,0.2,0.6,0.5c0.1,0.3,0.1,1.2,0.2,2.7
				c0,0.5,0,0.7,0,1.2c-1,0-1.5,0.1-2.5,0.1c-2.2,0.1-3.9,0.3-5.1,0.8c-1.2,0.5-2.1,1.2-2.6,2.1c-0.3,0.6-0.6,2-0.8,4.1
				c-0.1,0.7-0.1,1-0.1,1.6c-0.1,1.9-0.2,2.8-0.4,4.6c-0.7,0-1.1-0.1-1.8-0.1c-1,0-2.2-0.1-3.7,0c-0.8,0-1.2,0-2,0
				c0.1-1.8,0.2-2.7,0.4-4.5c0.2-2.1,0.3-4.6,0.4-7.6c0.1-2.9,0.1-4.6,0-5.1c0,0,0-0.1,0-0.1c0,0,0-0.1,0-0.1c0-0.2,0.3-0.3,0.9-0.4
				c0.6-0.1,1.9-0.1,3.9-0.1c1.2,0,1.7,0,2.9,0c-0.1,0.3-0.1,0.4-0.2,0.7c-0.1,0.3-0.2,0.4-0.3,0.7
				C468.2,196.1,468.7,196,469.7,195.7z"/>
			<path class="st6" d="M491.3,195.6c0.2,0,0.5,0,1,0c2.3,0.1,4.1,0.4,5.4,0.9c1.7,0.6,3.1,1.6,4,3.2c0.9,1.6,1.3,3.3,1.2,5.4
				c-0.1,0.6-0.1,0.9-0.1,1.5c-3.2-0.2-4.7-0.3-7.9-0.5c-3.2-0.2-4.7-0.3-7.9-0.5c0.1,0.3,0.2,0.4,0.3,0.7c0.4,0.8,1,1.4,1.8,2
				c0.9,0.5,1.8,0.8,2.8,0.9c0.6,0,1.4-0.2,2.3-0.8c0.6-0.4,0.9-0.5,1.5-0.9c1.4,0.2,2,0.3,3.4,0.4c2.3,0.3,3.4,0.5,3.5,0.5
				c0,0,0,0.1,0,0.1c0,0.2-0.4,0.7-1.1,1.5c-0.7,0.8-1.4,1.4-1.9,1.8c-1.5,1.1-3.2,1.8-4.9,2c-0.5,0-1.1,0-1.9,0
				c-3.1-0.2-5.4-0.5-6.7-0.8c-1.2-0.3-2.2-0.8-3.2-1.6c-1-0.8-1.6-1.7-2-2.6c-0.6-1.7-0.8-3.6-0.6-5.8c0-0.2,0-0.3,0.1-0.5
				c0.2-1.8,1.3-3.4,3.1-4.8c0.6-0.4,1.5-0.8,2.7-1.2c1.2-0.4,2.2-0.6,3.1-0.7c0.3,0,0.8-0.1,1.3-0.1
				C491,195.6,491.3,195.6,491.3,195.6z M494.5,201.7c-0.7-0.4-1.6-0.6-2.6-0.7c-0.5,0-0.9,0-1.2,0c-0.6,0.1-1.2,0.3-2,0.8
				c-0.7,0.5-1.1,0.8-1.2,1.1c0,0.1,0,0.1,0,0.2c0.3,0,0.6,0.1,1,0.1c0.5,0,1.6,0.1,3.4,0.1c1.7,0,2.5,0.1,4.2,0.1
				c-0.1-0.3-0.2-0.4-0.4-0.7C495.4,202.3,495,202,494.5,201.7z"/>
			<path class="st6" d="M506.3,199.3c0.3-2.8,0.5-4.3,0.8-7.1c1.2,0.1,1.8,0.2,3,0.3c2,0.2,3,0.4,3.1,0.6c0.1,0.1-0.1,3.7-0.7,10.5
				c-0.6,6.9-0.9,10.4-0.8,10.6c0,0.1,0,0.2,0,0.2c0,0.1-0.2,0.2-0.4,0.2c-0.2,0-0.9,0-1.8,0c-2.3,0-3.5,0-3.6,0c-0.5,0-0.8,0-1.4,0
				c0.2-1.7,0.3-2.5,0.4-4.1c0.1-0.8,0.3-2.7,0.6-5.5C506,202.2,506.2,200.3,506.3,199.3z"/>
			<path class="st6" d="M516.3,200.1c0.4-2.8,0.6-4.2,0.9-7.1c1.2,0.1,1.8,0.2,3,0.3c2,0.2,3,0.4,3.1,0.6c0.1,0.1-0.2,3.7-0.9,10.5
				c-0.7,6.9-1,10.4-0.9,10.6c0,0.1,0,0.2,0,0.2c0,0.1-0.2,0.2-0.4,0.2c-0.2,0-0.9,0-1.8,0c-2.3-0.1-3.5-0.1-3.6-0.1
				c-0.5,0-0.8,0-1.4,0c0.2-1.7,0.3-2.5,0.5-4.1c0.1-0.8,0.3-2.7,0.7-5.5C515.9,203,516.2,201.1,516.3,200.1z"/>
			<path class="st6" d="M536.8,199.2c0.2,0,0.5,0,1,0.1c2.2,0.2,4,0.6,5.4,1.1c1.7,0.6,3,1.7,3.8,3.3c0.8,1.6,1.1,3.4,0.8,5.4
				c-0.1,0.6-0.1,0.9-0.2,1.5c-3.2-0.3-4.7-0.4-7.9-0.7c-3.2-0.3-4.7-0.4-7.9-0.7c0.1,0.3,0.2,0.5,0.3,0.8c0.3,0.8,0.9,1.5,1.7,2
				s1.7,0.9,2.7,1c0.6,0.1,1.4-0.2,2.4-0.7c0.6-0.3,0.9-0.5,1.5-0.9c1.4,0.2,2,0.3,3.4,0.5c2.3,0.4,3.4,0.6,3.5,0.6c0,0,0,0.1,0,0.1
				c0,0.2-0.4,0.7-1.2,1.4c-0.8,0.8-1.4,1.3-2.1,1.8c-1.6,1.1-3.3,1.7-5,1.8c-0.5,0-1.1,0-1.9-0.1c-3.1-0.3-5.3-0.7-6.7-1.1
				c-1.1-0.3-2.2-0.9-3.1-1.7c-0.9-0.8-1.5-1.7-1.8-2.7c-0.5-1.7-0.6-3.6-0.2-5.9c0-0.2,0.1-0.3,0.1-0.5c0.3-1.8,1.5-3.4,3.4-4.7
				c0.6-0.4,1.6-0.7,2.7-1.1c1.2-0.3,2.2-0.5,3.1-0.6c0.3,0,0.8,0,1.3-0.1C536.4,199.2,536.7,199.2,536.8,199.2z M539.5,205.4
				c-0.7-0.4-1.5-0.6-2.6-0.7c-0.5,0-0.9,0-1.2,0c-0.6,0.1-1.3,0.3-2,0.8c-0.8,0.4-1.2,0.8-1.2,1.1c0,0.1,0,0.1,0,0.2
				c0.3,0.1,0.6,0.1,1,0.1c0.5,0,1.6,0.1,3.3,0.2c1.7,0.1,2.5,0.1,4.2,0.3c-0.1-0.3-0.2-0.4-0.3-0.7
				C540.5,206.1,540.1,205.8,539.5,205.4z"/>
			<path class="st6" d="M561.8,200.9c0.7-0.1,1.3-0.1,1.8-0.1c1.3,0.2,2.5,0.7,3.6,1.6c1.1,0.9,1.8,2.2,2.3,3.7
				c0.2,0.5,0.2,0.8,0.4,1.3c-0.5,2.5-0.8,3.7-1.3,6.2c-0.5,2.5-0.8,3.7-1.4,6.2c-0.3,0-0.5,0-0.8,0.1c-0.3,0-0.7,0-1.2-0.1
				c-0.4,0-1-0.1-1.7-0.3c-0.8-0.2-1.2-0.2-2.1-0.4c0.2-0.6,0.3-0.9,0.5-1.6c0.1-0.3,0.1-0.4,0.1-0.6c0.2-1.1,0.4-2.5,0.6-4.1
				c0.2-1.6,0.2-2.6,0.1-3c-0.1-0.5-0.3-0.9-0.6-1.2c-0.3-0.3-0.8-0.5-1.5-0.6c-0.6-0.1-1.3,0-2,0.1c-0.7,0.1-1.2,0.4-1.5,0.6
				c-0.3,0.3-0.8,2-1.5,5c-0.5,1.8-0.7,2.8-1.1,4.6c-1.1-0.2-1.6-0.2-2.7-0.4c-1.1-0.1-1.6-0.2-2.7-0.3c0.5-3.4,0.7-5.2,1.2-8.6
				c0.6-4,1-6.7,1.3-8.3c0-0.1,0-0.2,0.1-0.3c0.1-0.1,0.9-0.1,2.3-0.1c0.4,0,1,0,1.7,0c0.7,0,1.1,0,1.2,0c0.1,0,0.2,0,0.3,0
				c0.1,0,0.2,0,0.2,0c0.3,0,0.4,0.3,0.3,0.9c0,0.4,0,0.6,0,0.9c0.6-0.2,0.9-0.4,1.5-0.6C560.3,201.3,561.1,201,561.8,200.9z"/>
			<path class="st6" d="M581.2,205.6c1.1-0.1,2.4-0.1,3.8,0.1c2.9,0.4,5.2,1.1,6.8,2.1c1.1,0.7,1.9,1.9,2.3,3.7
				c0.5,1.8,0.5,3.5,0.1,5.1c-0.1,0.2-0.1,0.3-0.1,0.5c-1,2.8-3.2,4.5-6.7,5.2c-1.8,0.4-4,0.4-6.6,0c-2-0.3-3.9-0.7-5.6-1.3
				c-1.7-0.6-2.8-1.3-3.4-2.1c-1.1-1.5-1.4-3.3-1-5.1c0.4-1.5,1.2-3.1,2.5-4.5C575.4,207.2,578,205.9,581.2,205.6z M586,211.3
				c-0.7-0.5-1.6-0.8-2.5-0.9c-0.4-0.1-0.8,0-1.1,0c-1,0.2-2,0.7-2.9,1.4c-0.9,0.7-1.5,1.4-1.6,2c-0.2,0.8,0.1,1.6,0.7,2.5
				c0.7,0.9,1.4,1.5,2.3,1.8c0.1,0,0.3,0.1,0.5,0.1c0.9,0.1,2,0,3.2-0.5c1.2-0.5,2.2-1.1,2.9-1.9c0.4-0.3,0.6-0.6,0.6-0.8
				c0.1-0.2,0-0.5,0-0.7C587.9,213.1,587.2,212.1,586,211.3z"/>
		</g>
	</g>
</g>
</svg>